<svg xmlns="http://www.w3.org/2000/svg" viewBox="0 0 1366 768"><defs><style>.cls-1{fill:#98bc62;}.cls-2{fill:#fff;}</style></defs><title>dianaymiguelblanco</title><g id="BG"><rect class="cls-1" width="1366" height="768"/></g><g id="Layer_2" data-name="Layer 2"><path class="cls-2" d="M328.47,379.83q2.83-19.84,4.25-37.19t1.42-32.55q0-17.52-1.48-34.16t-3.42-32.23l-.77-4.38a70.55,70.55,0,0,0,15.66-3.67,112.72,112.72,0,0,0,16.83-7.8q-3,19.22-4.45,34.87T355,291l.12,5.8q1.43,29.15,2.39,45.25t1.61,19.72l6.06,3a57.6,57.6,0,0,0,19.46,3.61q22.05,0,37.39-18.44a166.63,166.63,0,0,0,10.44-16.63,101.43,101.43,0,0,0,6.89-15.66,85.07,85.07,0,0,0,3.74-15.85,128.94,128.94,0,0,0,1.1-17.34,105.81,105.81,0,0,0-1.48-18.37,68.53,68.53,0,0,0-4.58-15.4,62.79,62.79,0,0,0-7.8-13.22,80.57,80.57,0,0,0-11.28-11.79,64.5,64.5,0,0,0-19.4-11.35,72,72,0,0,0-26-4.38,68.63,68.63,0,0,0-14.25,1.61,99.77,99.77,0,0,0-15.27,4.64,123.52,123.52,0,0,0-15.34,7.29A114.83,114.83,0,0,0,314.42,233l8.64-33.78L343.94,191q9.66-2.83,17.92-4.45a79.48,79.48,0,0,1,15.08-1.61,84.58,84.58,0,0,1,12.12,1,79.4,79.4,0,0,1,14.11,3.55A95.58,95.58,0,0,1,419,196.65a118.72,118.72,0,0,1,17.15,12A65.1,65.1,0,0,1,447.39,221a88.2,88.2,0,0,1,9.41,17.14,114.62,114.62,0,0,1,6.44,21.34,125,125,0,0,1,2.39,25.07,111.53,111.53,0,0,1-2.9,26.1,116.41,116.41,0,0,1-7.54,22,89.28,89.28,0,0,1-10.64,17.53,80.22,80.22,0,0,1-33.26,25.27,62.51,62.51,0,0,1-22.49,4.38L361,368a79,79,0,0,0-11.54,2.13,65.2,65.2,0,0,0-8.83,3,56.72,56.72,0,0,0-6.77,3.41C331.89,377.7,330.1,378.8,328.47,379.83Z"/><path class="cls-2" d="M657.25,377.83q-7.35-2.58-23.33-10.83-12-6.18-23.21-18.56-8.25-12.88-8.25-23.85V324a36.46,36.46,0,0,1,14.44-25.27q21.14-16.24,53-16.5-39.32,14.44-45.5,32.23a22.09,22.09,0,0,0-1.29,7.22,15.48,15.48,0,0,0,4.12,10.57q11.09,11.21,18.69,14.95,23.34,11.48,38.42,12.89ZM605.43,269.55a37.6,37.6,0,0,1,11.34-14.18l6.06-4.9,29.39-18.3a94.52,94.52,0,0,1,18.18,7.47,80.59,80.59,0,0,1,19.33,14.05q11.34,11.08,16,23.85a76.77,76.77,0,0,1,5.41,27.07q.9,36.61,4.77,56.72l1,4.64a68.26,68.26,0,0,0-15.72,3.61q-11.22,4.13-16.76,8.25a497,497,0,0,0,4.9-69.22v-3.48q0-14.7-4.64-22.43A54.08,54.08,0,0,0,662.28,264q-12.9-6.06-38.16-11.61-2.07,3.22-2.06,11.22a68,68,0,0,0,1.67,13.15Z"/><path class="cls-2" d="M749.16,377.83q4.89-38.67,4.9-64.2,0-12.75-.13-13.92a361.69,361.69,0,0,0-4.13-54l-.64-2.06q15.58-1.8,31.58-11l.9-.51q-2.58,7.61-5.54,17.53l28.23-17.53a94.52,94.52,0,0,1,18.18,7.47,88.11,88.11,0,0,1,19.33,14.05,61.62,61.62,0,0,1,16,23.85,76.77,76.77,0,0,1,5.41,27.07q1.15,37.51,4.77,56.72l1,4.64a70.48,70.48,0,0,0-15.73,3.61q-11.2,4.13-16.75,8.25a444,444,0,0,0,5-65.36c-.08-2.75-.12-5.19-.12-7.34q0-14.82-4.65-22.43-7.72-11.34-22.43-18.69-12.89-6.45-38.15-11.61h-.13q-.9,9.42-.9,41.77v4.51q0,36.22,5.41,62.65l1,4.64a68.26,68.26,0,0,0-15.72,3.61Q754.7,373.71,749.16,377.83Z"/><path class="cls-2" d="M949.61,377.83q-7.35-2.58-23.33-10.83-12-6.18-23.21-18.56-8.25-12.88-8.25-23.85V324a36.46,36.46,0,0,1,14.44-25.27q21.13-16.24,53-16.5-39.32,14.44-45.5,32.23a22.09,22.09,0,0,0-1.29,7.22,15.48,15.48,0,0,0,4.12,10.57q11.08,11.21,18.69,14.95Q961.6,358.63,976.68,360ZM897.79,269.55a37.6,37.6,0,0,1,11.34-14.18l6.06-4.9,29.39-18.3a94.52,94.52,0,0,1,18.18,7.47,80.59,80.59,0,0,1,19.33,14.05q11.34,11.08,16,23.85a76.77,76.77,0,0,1,5.41,27.07q.9,36.61,4.77,56.72l1,4.64a68.47,68.47,0,0,0-15.73,3.61q-11.2,4.13-16.75,8.25a497,497,0,0,0,4.9-69.22v-3.48q0-14.7-4.65-22.43A54,54,0,0,0,954.63,264Q941.74,258,916.48,252.4q-2.07,3.22-2.06,11.22a68,68,0,0,0,1.67,13.15Z"/><path class="cls-2" d="M286.38,694.63q6.45-21.52,17.41-95.39,5.41-36.48,8.76-68.06a141.8,141.8,0,0,0-12.24-19.73A76.31,76.31,0,0,0,316,507.84q11.73-4,16.76-8v.26l.26-.26-.13.26q3.87,15.74,28.1,92.68,17.53,55.44,24.36,63.55,7.1-10.17,27.59-65.74,19.33-52.46,24-70.25a42.43,42.43,0,0,0-2.45-5.16l-2.19-4.12q15.58-1.81,31.58-11l.9-.52v.26q0,41.39,7.35,91.65Q481,652.1,491,678.13c1.11,2.92,1.89,4.47,2.32,4.64a68.23,68.23,0,0,0-15.73,3.61q-11.21,4.13-16.76,8.25a57,57,0,0,0,.26-6.06q-.26-24.36-9-95-3.61-29.27-8-49.12l-19.21,46.93Q404.6,642.68,399.69,678a30,30,0,0,1-.64,3.87l.13,1.29q-15.6,1.8-31.58,11l-.91.52q-4.12-38.93-26.16-98-10.45-28-19.34-47.57-3.62,21.54-7.61,50.66-6.18,44.36-7.73,80.44l-.13,3q-9.8,1.94-18.82,11Z"/><path class="cls-2" d="M519.06,542a98,98,0,0,0,2.45-22.17q0-3.48-.19-7t-.71-7l-.78-2.71q16.63-1.67,33.65-11.47l.9-.51q-2.05,7.33-2.06,21c0,2.4.11,5,.32,7.93s.54,6,1,9.47a81.08,81.08,0,0,0-10.51,2,93.31,93.31,0,0,0-9.8,3.09,74.85,74.85,0,0,0-8.25,3.68A51.68,51.68,0,0,0,519.06,542Zm2.19,152.63q2.44-19.47,3.68-35.38t1.22-28.82q0-10.44-.19-19.52t-.71-17.28q-.53-8.18-1.36-15.79t-2-15.34l-.65-2.06a70.58,70.58,0,0,0,15.66-3.68,104.68,104.68,0,0,0,15.92-7.28l.91-.51q-6.45,22.29-6.45,62v4.51q0,36.22,5.42,62.65l1,4.64a71.43,71.43,0,0,0-10.51,2,83.16,83.16,0,0,0-9.15,3,68.69,68.69,0,0,0-7.48,3.48A46.13,46.13,0,0,0,521.25,694.63Z"/><path class="cls-2" d="M699.14,683.93q-4.89,11.09-17.66,25.78-8.51,9.79-15.85,14.83L637,743q-12.12-4.63-13.79-5.54-7-3.75-17.41-13.41a85.06,85.06,0,0,1-7.47-8.51l23.33-11.6L633,714.48q10.44,9.79,28.23,9.8H664l.26-.13q8.25-6.57,12.89-33.26A121.12,121.12,0,0,0,679,673.1q.39-27.06.39-36.61v-3.74q-.13-7.86-.13-10.44,0-14.94-5.93-22.68a52.8,52.8,0,0,0-22.3-18.7q-13.41-6.18-37.12-12.89a75.25,75.25,0,0,0-9.41,24.37,116.92,116.92,0,0,0-2.07,20.88,52.06,52.06,0,0,0,1,9.8,60.82,60.82,0,0,0,9.54,23.2q7.35,11.09,21.66,18.05Q648.61,671,673,676.71l-27.32,17.92q-6.06-1.54-18.44-7.86-8.9-4.51-19.33-13.93a62.64,62.64,0,0,1-16-24.62,79.6,79.6,0,0,1-5.28-27.32,75.55,75.55,0,0,1,5.67-28.23q6.06-15.21,14.69-21.4l4.52-3.87,29.39-18.31a77.74,77.74,0,0,1,18.3,7.61,132.27,132.27,0,0,1,19.21,13.92q16.5,13.92,21.14,23.46l.39,27.46q.9,33.9,2.06,43.05c.77,6.11,1.16,9.24,1.16,9.41Z"/><path class="cls-2" d="M1009.38,692.15q-7.61-1.81-18.3-7.55a88.12,88.12,0,0,1-19.34-14q-11.34-11-15.85-23.85-4.38-10.69-5.54-27.07v-.52a71.9,71.9,0,0,1,6.31-28.48,70,70,0,0,1,12.76-20,62.26,62.26,0,0,1,7.74-7L1004.23,546q6.82,2.31,23.33,10.82,12,6.19,23.2,18.57,8.25,12.89,8.25,23.84v.65a36.09,36.09,0,0,1-14.43,25.26q-21.27,16.25-53,16.5,40-13.65,47.3-31.58a19,19,0,0,0,1.55-7.35v-.51q0-5.42-4.51-10.57-7.1-8.39-20.37-15Q992.89,565.43,978.71,564q-4.9,8-8.9,24.24a94.08,94.08,0,0,0-3.09,21.91,52.55,52.55,0,0,0,.64,8.38q1.8,11.48,9.54,23.07,8,11.86,22.3,18.7,12.38,5.93,38,11.73l.13-.13q2.06-3.23,2.06-11.22a68.13,68.13,0,0,0-1.68-13.15l18.31,7.22a38,38,0,0,1-11.34,14.18c-4,3.18-5.93,4.82-5.93,4.9Z"/><path class="cls-2" d="M1091.24,691.63q5.54-38.67,5.54-86.63,0-7.08-.13-13.92-1-56.46-4.64-78.37l-.77-4.38q15.72-1.81,31.58-11l.9-.52q-5.79,36.61-5.8,88.69v4.51q0,61.88,4.77,85.08l1,4.64a68.26,68.26,0,0,0-15.72,3.61Q1096.78,687.51,1091.24,691.63Z"/><path class="cls-2" d="M926.56,593.65h-5l-1.19-26.49,6.83-10.76a2.5,2.5,0,0,0,.4-1.38V528.63a2.58,2.58,0,0,0-2.57-2.58H918a2.58,2.58,0,0,0-2.57,2.58v6.66h-5.06v-6.66a2.58,2.58,0,0,0-2.57-2.58H893.54a2.58,2.58,0,0,0-2.57,2.58v6.66h-4.55v-6.66a2.59,2.59,0,0,0-2.58-2.58H869.62a2.58,2.58,0,0,0-2.57,2.58v6.66H862v-6.66a2.58,2.58,0,0,0-2.57-2.58h-7.11a2.58,2.58,0,0,0-2.57,2.58V555a2.58,2.58,0,0,0,.4,1.38L857,567.16l-1.19,26.49h-.07a2.58,2.58,0,0,0-2.57,2.58v7.13h-5.69v-7.13a2.58,2.58,0,0,0-2.57-2.58h-16.4a2.58,2.58,0,0,0-2.57,2.58v7.13h-5.69v-7.13a2.58,2.58,0,0,0-2.57-2.58h-16.4a2.58,2.58,0,0,0-2.57,2.58v7.13H793v-7.13a2.58,2.58,0,0,0-2.57-2.58h-.08l-1.18-26.49L796,556.4a2.5,2.5,0,0,0,.4-1.38V528.63a2.58,2.58,0,0,0-2.57-2.58h-7.11a2.58,2.58,0,0,0-2.57,2.58v6.66h-5.06v-6.66a2.58,2.58,0,0,0-2.57-2.58H762.29a2.58,2.58,0,0,0-2.57,2.58v6.66h-4.55v-6.66a2.58,2.58,0,0,0-2.57-2.58H738.37a2.58,2.58,0,0,0-2.57,2.58v6.66h-5.06v-6.66a2.58,2.58,0,0,0-2.57-2.58h-7.11a2.58,2.58,0,0,0-2.57,2.58V555a2.58,2.58,0,0,0,.4,1.38l6.83,10.76-1.19,26.49h-5a2.58,2.58,0,0,0-2.57,2.58v83.31a2.57,2.57,0,0,0,2.57,2.57h207a2.57,2.57,0,0,0,2.57-2.57V596.22A2.58,2.58,0,0,0,926.56,593.65ZM916.4,563.9H861l-4-6.31H920.4Zm-59.55-32.7v6.66a2.57,2.57,0,0,0,2.57,2.57h10.2a2.57,2.57,0,0,0,2.57-2.57V531.2h9.08v6.66a2.58,2.58,0,0,0,2.58,2.57h9.69a2.57,2.57,0,0,0,2.57-2.57V531.2h9.08v6.66a2.57,2.57,0,0,0,2.57,2.57H918a2.57,2.57,0,0,0,2.57-2.57V531.2h2v21.25H854.88V531.2ZM862,569h53.32l1.1,24.61h-6.29a2.57,2.57,0,0,0-2.57,2.57v7.14h-5.68v-7.14a2.57,2.57,0,0,0-2.57-2.57h-16.4a2.58,2.58,0,0,0-2.58,2.57v7.14h-5.68v-7.14a2.57,2.57,0,0,0-2.57-2.57H860.93Zm-76.88-5.14H729.74l-4-6.31h63.41ZM725.6,531.2v6.66a2.57,2.57,0,0,0,2.57,2.57h10.2a2.57,2.57,0,0,0,2.57-2.57V531.2H750v6.66a2.57,2.57,0,0,0,2.57,2.57h9.69a2.57,2.57,0,0,0,2.57-2.57V531.2h9.08v6.66a2.57,2.57,0,0,0,2.57,2.57h10.2a2.57,2.57,0,0,0,2.57-2.57V531.2h2v21.25H723.63V531.2ZM730.78,569H784.1l1.11,24.61H774a2.57,2.57,0,0,0-2.57,2.57v7.14h-5.69v-7.14a2.57,2.57,0,0,0-2.57-2.57H746.8a2.57,2.57,0,0,0-2.57,2.57v7.14h-5.69v-7.14a2.57,2.57,0,0,0-2.57-2.57h-6.29ZM847.61,677h-3.28V652a21.27,21.27,0,1,0-42.53,0v25h-3.27V652a24.54,24.54,0,1,1,49.08,0Zm-40.67,0V652a16.13,16.13,0,1,1,32.25,0v25Zm117,0H852.75V652a29.68,29.68,0,1,0-59.36,0v25H722.14V598.8H733.4v7.13A2.57,2.57,0,0,0,736,608.5H746.8a2.57,2.57,0,0,0,2.57-2.57V598.8h11.26v7.13a2.57,2.57,0,0,0,2.57,2.57H774a2.57,2.57,0,0,0,2.57-2.57V598.8h11.26v7.13a2.57,2.57,0,0,0,2.57,2.57h10.82a2.57,2.57,0,0,0,2.57-2.57V598.8h11.26v7.13a2.57,2.57,0,0,0,2.57,2.57h10.83a2.57,2.57,0,0,0,2.57-2.57V598.8h11.26v7.13a2.57,2.57,0,0,0,2.57,2.57h10.83a2.57,2.57,0,0,0,2.57-2.57V598.8h11.26v7.13a2.57,2.57,0,0,0,2.57,2.57h10.83a2.57,2.57,0,0,0,2.57-2.57V598.8h11.26v7.13a2.57,2.57,0,0,0,2.57,2.57h10.82a2.57,2.57,0,0,0,2.57-2.57V598.8H924V677Z"/><path class="cls-2" d="M588.16,177.12l-53.75-61.88v-8.6a3.86,3.86,0,0,0-7.71,0v8.6l-53.76,61.88a3.86,3.86,0,0,0,2.91,6.38h7.09v24.05a3.85,3.85,0,0,0,3.85,3.85h1.37V378.18h-.9a3.87,3.87,0,0,0-3.84,3.45l-5.8,53.95a3.89,3.89,0,0,0,1,3,3.82,3.82,0,0,0,2.86,1.28h98.2a3.83,3.83,0,0,0,2.87-1.28,3.89,3.89,0,0,0,1-3l-5.8-53.95a3.87,3.87,0,0,0-3.84-3.45H573V211.4h1.37a3.85,3.85,0,0,0,3.85-3.85V183.5h7.08a3.85,3.85,0,0,0,2.91-6.38Zm-57.61-54.56,46.25,53.23H484.31Zm39.91,81.14H490.65v-6.25h79.81ZM485.75,432.14l5-46.25h79.67L573,410.42h-5a3.86,3.86,0,1,0,0,7.71h5.81l1.5,14Zm79.49-170.28h-3.5a3.86,3.86,0,1,0,0,7.71h3.5V378.18H495.87V211.4h3.85v6.66a3.86,3.86,0,0,0,7.71,0V211.4h10.28v6.66a3.86,3.86,0,0,0,7.71,0V211.4h10.27v6.66a3.86,3.86,0,0,0,7.71,0V211.4h10.28v6.66a3.86,3.86,0,0,0,7.71,0V211.4h3.85Zm5.22-72.12H490.65V183.5h79.81Z"/><path class="cls-2" d="M522.62,265.68h15.87a3.85,3.85,0,0,0,3.85-3.85V240a11.79,11.79,0,1,0-23.57,0v21.82A3.85,3.85,0,0,0,522.62,265.68ZM526.47,240a4.08,4.08,0,0,1,8.16,0v18h-8.16V240Z"/><path class="cls-2" d="M522.62,313.87h15.87a3.85,3.85,0,0,0,3.85-3.85V288.2a11.79,11.79,0,1,0-23.57,0V310A3.85,3.85,0,0,0,522.62,313.87Zm3.85-25.67a4.08,4.08,0,0,1,8.16,0v18h-8.16v-18Z"/><path class="cls-2" d="M542.34,358.21V336.39a11.79,11.79,0,0,0-23.57,0v21.82a3.85,3.85,0,0,0,3.85,3.86h15.87A3.85,3.85,0,0,0,542.34,358.21Zm-7.71-3.85h-8.16v-18a4.08,4.08,0,0,1,8.16,0v18Z"/><path class="cls-2" d="M502.17,241.54h7a3.86,3.86,0,1,0,0-7.71h-7a3.86,3.86,0,0,0,0,7.71Z"/><path class="cls-2" d="M549.48,275.52a3.85,3.85,0,0,0,3.85,3.86h7a3.86,3.86,0,0,0,0-7.71h-7A3.85,3.85,0,0,0,549.48,275.52Z"/><path class="cls-2" d="M509.88,322.12h-7a3.86,3.86,0,0,0,0,7.71h7a3.86,3.86,0,1,0,0-7.71Z"/><path class="cls-2" d="M550.53,365.57h-7a3.86,3.86,0,1,0,0,7.71h7a3.86,3.86,0,0,0,0-7.71Z"/><path class="cls-2" d="M513.39,390.8h-7a3.86,3.86,0,1,0,0,7.71h7a3.86,3.86,0,0,0,0-7.71Z"/><path class="cls-2" d="M503.58,400.61h-7a3.86,3.86,0,1,0,0,7.71h7a3.86,3.86,0,0,0,0-7.71Z"/><path class="cls-2" d="M895.63,416.36a31,31,0,0,0,5.31-.95,38.55,38.55,0,0,0,8.5-3.4,27.48,27.48,0,0,0,2.8-1.71,228.48,228.48,0,0,0-2.57,33.42c.09,1.89.17,3.58.23,5.07s.17,2.85.3,4.06a16.94,16.94,0,0,0,.66,3.29,12.88,12.88,0,0,0,1.25,2.81A27.78,27.78,0,0,0,916.5,464a26.78,26.78,0,0,0,6.09,4.06,57.41,57.41,0,0,0,8.61,3.36q5,1.55,11.89,3h.07c0-1.63.08-3.27.1-4.91s0-3.31,0-5v-2.31q-.06-15.89-.59-26.7a106.65,106.65,0,0,0-1.85-16.8l-.52-2.38a31,31,0,0,0,5.3-.95,38.55,38.55,0,0,0,8.5-3.4,27.75,27.75,0,0,0,2.81-1.71q-1.46,10-2.15,21t-.69,23.34q.07,17.4.69,29.2a154.37,154.37,0,0,0,1.75,18l.4,2.24a37.19,37.19,0,0,0-8,1.88,57.2,57.2,0,0,0-8.63,4q1.11-7.38,1.84-15.82t1-18.26l-14.44,9a41,41,0,0,1-6.72-2.61,49.32,49.32,0,0,1-8-4.81,44.19,44.19,0,0,1-7.44-6.89,27.69,27.69,0,0,1-5.21-8.9,39,39,0,0,1-2.77-13.84q-.33-9.63-.92-16.84a122.11,122.11,0,0,0-1.52-12.16Z"/><path class="cls-2" d="M153.8,146.73A52.74,52.74,0,0,0,143,148q.64-4.4,1-9.28t.3-10.4q0-7.74-.3-13a70.07,70.07,0,0,0-.78-8l-.18-1a15.7,15.7,0,0,0,3.56-.83,25.42,25.42,0,0,0,3.83-1.77A130.26,130.26,0,0,0,149,123.85v1q0,13.41,1,18.84a5.21,5.21,0,0,0,1.38.23q10.08,0,16.7-3.37a17.32,17.32,0,0,0-1.14,2.89,21.13,21.13,0,0,0-.82,4.49l-.76-.23Q162.19,146.74,153.8,146.73Z"/><path class="cls-2" d="M182,148a47.79,47.79,0,0,1-5.31-2.46,18.84,18.84,0,0,1-5.27-4.22,10.21,10.21,0,0,1-1.87-5.42v-.14a8.24,8.24,0,0,1,3.28-5.74,19.44,19.44,0,0,1,12-3.75q-8.94,3.27-10.34,7.32a4.92,4.92,0,0,0-.3,1.64,3.48,3.48,0,0,0,.94,2.4,17.35,17.35,0,0,0,4.25,3.4,26.48,26.48,0,0,0,8.73,2.93Zm-11.78-24.61a8.63,8.63,0,0,1,2.58-3.22l1.37-1.11,6.68-4.16a21.17,21.17,0,0,1,4.13,1.7,18.11,18.11,0,0,1,4.4,3.19,14.54,14.54,0,0,1,3.63,5.42,17.54,17.54,0,0,1,1.23,6.15,82.93,82.93,0,0,0,1.09,12.89l.23,1.06A17.19,17.19,0,0,0,188.2,148a113,113,0,0,0,1.11-15.73v-.79a10.08,10.08,0,0,0-1.05-5.1,12.28,12.28,0,0,0-5.1-4.24,43.25,43.25,0,0,0-8.67-2.64A5,5,0,0,0,174,122a15.83,15.83,0,0,0,.38,3Z"/><path class="cls-2" d="M221.89,148c.43-3,.75-5.81,1-8.46s.32-5.17.32-7.53q0-4.31-.34-8.06t-.77-6.88l-.18-1a16.25,16.25,0,0,0,3.56-.83,24.55,24.55,0,0,0,3.62-1.66l.2-.12c-.45,3-.78,5.63-1,8s-.34,4.45-.34,6.28v.73c0,.24,0,.46,0,.68q.3,6.15.52,9.81t.42,5l1.35.68a21.63,21.63,0,0,0,5.39.76,14.48,14.48,0,0,0,4.83-.79,13.4,13.4,0,0,0,4.11-2.35,13.51,13.51,0,0,0,1.68-3.26,9.93,9.93,0,0,0,.54-3.18,8.7,8.7,0,0,0-1.7-5.51,8.17,8.17,0,0,0-4.92-2.9,7.17,7.17,0,0,0-1.43-.15q-3.53,0-9.47,3.05l4.31-7.47q6.06-2.76,6.06-8.79a4.45,4.45,0,0,0-1.56-3.49,7,7,0,0,0-4.68-1.37,20.39,20.39,0,0,0-3.25.36,27,27,0,0,0-3.7,1,31,31,0,0,0-3.9,1.7,26.48,26.48,0,0,0-3.82,2.44l1.93-7.68c1.41-.57,2.5-1,3.28-1.3l1.49-.58a35.09,35.09,0,0,1,4.19-1,24.12,24.12,0,0,1,4.11-.36,15.09,15.09,0,0,1,3.57.38,8.29,8.29,0,0,1,2.55,1,10.7,10.7,0,0,1,3.28,3.34,7.71,7.71,0,0,1,1.08,4,8.37,8.37,0,0,1-.68,3.15,12.23,12.23,0,0,1-1.69,2.77,13.54,13.54,0,0,1-2.27,2.21,10.23,10.23,0,0,1-2.45,1.42l1-.1c.33,0,.65,0,1,0a13.65,13.65,0,0,1,4.11.59,13.42,13.42,0,0,1,3.33,1.55,12.5,12.5,0,0,1,2.55,2.24,13.71,13.71,0,0,1,2.84,5.41,10.69,10.69,0,0,1,.35,2.58,13.43,13.43,0,0,1-.26,2.72,17.16,17.16,0,0,1-.5,1.91,14.73,14.73,0,0,1-2.24,4.33,12.84,12.84,0,0,1-3.11,2.9,12.15,12.15,0,0,1-3.69,1.61,16.06,16.06,0,0,1-4,.5c-.82,0-1.48,0-2-.06a7.49,7.49,0,0,1-.85-.09l-6.33-2.69a17.59,17.59,0,0,0-2.36.45c-.75.21-1.44.44-2.08.69s-1.2.52-1.71.79A11,11,0,0,0,221.89,148Z"/><path class="cls-2" d="M272.1,148.08a19.5,19.5,0,0,1-4.16-1.7,19.75,19.75,0,0,1-4.39-3.19,13.92,13.92,0,0,1-3.6-5.42,15.67,15.67,0,0,1-1.26-6.15v-.12a16.5,16.5,0,0,1,1.43-6.48,15.57,15.57,0,0,1,2.9-4.54,13.81,13.81,0,0,1,1.76-1.58l6.21-4.07a23.26,23.26,0,0,1,4.19,1.79,20.59,20.59,0,0,1,4.37,3.16,14.31,14.31,0,0,1,3.66,5.6,18.8,18.8,0,0,1,1.2,6.09v.12a13.47,13.47,0,0,1-1.29,6.41,19.37,19.37,0,0,1-3.34,4.87,6,6,0,0,0-1,1ZM265,119.14l0,0a25.47,25.47,0,0,0-1.82,5.3,19.55,19.55,0,0,0-.7,5,14.18,14.18,0,0,0,.14,1.9,13,13,0,0,0,2.17,5.25,11.83,11.83,0,0,0,5.07,4.25,47.87,47.87,0,0,0,8.64,2.66l0,0a35.84,35.84,0,0,0,1.67-5.8,20.88,20.88,0,0,0,.59-4.63,11.41,11.41,0,0,0-.15-2,12.8,12.8,0,0,0-7.24-9.46A25.64,25.64,0,0,0,265,119.14Z"/><path class="cls-2" d="M316.4,103.7a139.54,139.54,0,0,0-1.26,19.68c0,.73,0,1.78,0,3.17a136.09,136.09,0,0,0,1.06,17.81l.17,1a18.76,18.76,0,0,0-7.18,2.49l-.2.11c.17-1.17.34-2.39.5-3.66L303.66,148a20.38,20.38,0,0,1-4.16-1.69,16.35,16.35,0,0,1-4.4-3.2,19.11,19.11,0,0,1-3.6-5.42,14.13,14.13,0,0,1-1.26-6.15v-.12a18.73,18.73,0,0,1,1.43-6.47,18.1,18.1,0,0,1,2.91-4.54,10.51,10.51,0,0,1,1.75-1.59l6.21-3.92a15.39,15.39,0,0,1,4.19,1.64,20.87,20.87,0,0,1,3.37,2.28q-.23-5.57-.91-11.48l-.11-.56-.06-.35v-.09a19,19,0,0,0,7.18-2.49ZM310.22,128A12.66,12.66,0,0,0,305,121.6q-2.37-1.53-8.49-2.58l0,0a27.78,27.78,0,0,0-1.82,5.3,19.32,19.32,0,0,0-.7,5,12.49,12.49,0,0,0,.15,1.91,13.46,13.46,0,0,0,2.16,5.24,11.73,11.73,0,0,0,5.07,4.25,43.72,43.72,0,0,0,8.26,2.58q.64-6,.71-13.57C310.29,129.14,310.26,128.54,310.22,128Z"/><path class="cls-2" d="M336.15,148a47.79,47.79,0,0,1-5.31-2.46,18.84,18.84,0,0,1-5.27-4.22,10.21,10.21,0,0,1-1.87-5.42v-.14A8.24,8.24,0,0,1,327,130a19.44,19.44,0,0,1,12-3.75q-8.94,3.27-10.34,7.32a4.92,4.92,0,0,0-.3,1.64,3.53,3.53,0,0,0,.94,2.4,17.35,17.35,0,0,0,4.25,3.4,26.48,26.48,0,0,0,8.73,2.93Zm-11.78-24.61a8.63,8.63,0,0,1,2.58-3.22l1.38-1.11,6.67-4.16a21.22,21.22,0,0,1,4.14,1.7,18.26,18.26,0,0,1,4.39,3.19,14.54,14.54,0,0,1,3.63,5.42,17.54,17.54,0,0,1,1.23,6.15,82.93,82.93,0,0,0,1.09,12.89l.23,1.06a17.19,17.19,0,0,0-7.38,2.69,113,113,0,0,0,1.11-15.73v-.79a10.08,10.08,0,0,0-1.05-5.1,12.28,12.28,0,0,0-5.1-4.24,43,43,0,0,0-8.67-2.64,5.05,5.05,0,0,0-.47,2.55,15.83,15.83,0,0,0,.38,3Z"/><path class="cls-2" d="M399.31,103.7a139.54,139.54,0,0,0-1.26,19.68c0,.73,0,1.78,0,3.17a136.09,136.09,0,0,0,1.06,17.81l.17,1a18.76,18.76,0,0,0-7.18,2.49l-.2.11c.17-1.17.34-2.39.5-3.66L386.57,148a20.38,20.38,0,0,1-4.16-1.69,16.35,16.35,0,0,1-4.4-3.2,19.11,19.11,0,0,1-3.6-5.42,14.13,14.13,0,0,1-1.26-6.15v-.12a19,19,0,0,1,1.43-6.47,18.1,18.1,0,0,1,2.91-4.54,10.51,10.51,0,0,1,1.75-1.59l6.21-3.92a15.39,15.39,0,0,1,4.19,1.64,20.87,20.87,0,0,1,3.37,2.28q-.22-5.57-.91-11.48l-.11-.56-.06-.35v-.09a19,19,0,0,0,7.18-2.49ZM393.13,128a12.64,12.64,0,0,0-5.21-6.35q-2.39-1.53-8.5-2.58l0,0a27.78,27.78,0,0,0-1.82,5.3,19.32,19.32,0,0,0-.7,5,12.49,12.49,0,0,0,.15,1.91,13.46,13.46,0,0,0,2.16,5.24,11.73,11.73,0,0,0,5.07,4.25,43.72,43.72,0,0,0,8.26,2.58q.64-6,.71-13.57C393.2,129.14,393.17,128.54,393.13,128Z"/><path class="cls-2" d="M420,148.08a18,18,0,0,1-4.16-1.71,20.1,20.1,0,0,1-4.39-3.18,13.92,13.92,0,0,1-3.6-5.42,19.8,19.8,0,0,1-1.26-6.15v-.12A16.32,16.32,0,0,1,408,125a16.06,16.06,0,0,1,2.9-4.54,15.23,15.23,0,0,1,1.76-1.58l6.15-4a46.24,46.24,0,0,1,5.31,2.46,19,19,0,0,1,5.27,4.22A10.21,10.21,0,0,1,431.3,127v.14a8.18,8.18,0,0,1-3.28,5.75,19.53,19.53,0,0,1-12,3.75q9.09-3.1,10.75-7.18a4.24,4.24,0,0,0,.35-1.67v-.12a3.64,3.64,0,0,0-1-2.4,14.27,14.27,0,0,0-4.63-3.4,26.27,26.27,0,0,0-8.38-2.87,20.46,20.46,0,0,0-2,5.51,21.22,21.22,0,0,0-.7,5,12.86,12.86,0,0,0,.14,1.9,13.32,13.32,0,0,0,2.17,5.25,12.46,12.46,0,0,0,5.07,4.25,44.3,44.3,0,0,0,8.64,2.66l0,0a5.05,5.05,0,0,0,.47-2.55,15.93,15.93,0,0,0-.38-3l4.16,1.65a8.72,8.72,0,0,1-2.58,3.22q-1.35,1.08-1.35,1.11Z"/></g></svg>