<svg xmlns="http://www.w3.org/2000/svg" viewBox="0 0 554.33 67.56"><defs><style>.cls-1{fill:#fff;}.cls-2{fill:#3b451e;}.cls-3{fill:#fcc44d;}</style></defs><title>Asset 21</title><g id="Layer_2" data-name="Layer 2"><g id="Layer_2-2" data-name="Layer 2"><path class="cls-1" d="M31.81,44.08c-.33.17-.86.28-1.09.6a1.42,1.42,0,0,1-1.1.72c-.14,0-.24.43-.51,1a1.85,1.85,0,0,1,2.11.06,14.77,14.77,0,0,1,2.53,2,3.18,3.18,0,0,1,.75,2.4c-.67.28-.9,1.17-1.76,1.17-.14.58-.67.29-.87.23-.94-.31-1.85-.74-2.91-1.18l-.59.22a5.7,5.7,0,0,1-1.65,3.45,2.39,2.39,0,0,1-2.06.86c-1.52-.53-1.88-2.18-1.35-4.54-.26-.48-.74-.35-1.06-.25a6.67,6.67,0,0,1-2.09,0,2.54,2.54,0,0,1-2-1l-.51-.58c.29-.36-.12-.73-.08-1.21A3,3,0,0,1,19,45.79a5.75,5.75,0,0,1,4.2-1.19,4.6,4.6,0,0,0-.08-.84c-.18-.57-.41-1.11-.59-1.68a1.59,1.59,0,0,1,.25-1.85c.15-.14.14-.43.19-.6l1.18-.1a5.83,5.83,0,0,0,.88.33c.52.13.71.55.94.94l1,1.81a6.88,6.88,0,0,1,3.29-2.81,2.36,2.36,0,0,1,2,.66l-.61.87.82-.19C32.88,41.89,32.88,41.91,31.81,44.08Z"/><path class="cls-1" d="M39.74,56.15l-2-2.36-.24.19-.17-2.07.63-1c.24,0,.55,0,.69-.11,1.12-1.09,2.36-.68,3.72-.29-.31-.73.38-1.25.21-2s.68-1.16.91-1.77l.78-.07c.27,0,.54-.11.82-.17,0,.17,0,.28,0,.39a4.41,4.41,0,0,1,2.7,4,4.26,4.26,0,0,1-.2,1c-.08.4-.37.78-.14,1.24A6.3,6.3,0,0,1,51.3,53a2.89,2.89,0,0,1,1.64,1.3,2.34,2.34,0,0,1,.42,2,3.68,3.68,0,0,0,.09,1.37l-1.61,1.17a9.86,9.86,0,0,0-1.32-.55,9.16,9.16,0,0,0-1.46-.13l.43.42.21.18L49.89,61c-.22.45-.58,1.18-.94,1.93l-1.25.73-1.11-.2c-.05-.27-.11-.56-.17-.88-.93.16-1-.73-1.29-1.33S44.7,60,44.44,59.2a15.75,15.75,0,0,1-2.64,1.15,13.05,13.05,0,0,1-2.73.07c-.47-.7-1-1.32-.7-2.21a2.81,2.81,0,0,1,.3-.63C39.08,57,39.51,56.46,39.74,56.15Z"/><path class="cls-1" d="M54.36,13.76c.61,0,.89.4,1,1.09l.47-.65A6,6,0,0,1,57,16.72a3.75,3.75,0,0,1-.17,2.73l.75,1.09,1.32-.32.34.4.34-.36a3.23,3.23,0,0,1,2.11,2.3c-.06.24-.14.54-.21.8a4.21,4.21,0,0,1-2.9,1.23l-2.93-.2-.49-.71c0,.2-.12.34-.08.42a6,6,0,0,1,.25,1.78c.17,1.05-1.55,3.18-2.58,3.46a1.75,1.75,0,0,1-2.05-1c-.25-.65-.39-1.35-.6-2.11a23.31,23.31,0,0,0-2.65-.42c-1.22-.07-1.82-1-2.67-1.55a7.24,7.24,0,0,1,.34-1.75c.19-.4.67-.66,1.06-1a4.85,4.85,0,0,0,.87-.34,6.4,6.4,0,0,0,.83-.64c-.12-.84-1-1.16-1.3-1.9s-.42-1.47-.63-2.24l1.22-1.6,1.5.21.48.62c.16,0,.41-.11.51,0,.8.66,1.79,1.13,2.18,2.22.09.24.45.37.77.63.08-.42.07-.92.19-1,.63-.18.12-.48.13-.72a3,3,0,0,1,.06-.91A3.16,3.16,0,0,1,54.36,13.76Z"/><path class="cls-1" d="M12.09,33.56c0,.12.06.23.12.41l1.1.14.14-.35c.5.23.17.66.26,1s.45.6.72.91l-.56.32a4.35,4.35,0,0,1,.07,1c-.14.8-.79,1.22-1.39,1.66-.19.14-.44.19-.63.33a2.12,2.12,0,0,1-1.71.54c-.16,0-.36.11-.53.16.13.67.72.71,1.1,1a11.59,11.59,0,0,1,2,1.87,5.73,5.73,0,0,1,1,2.13,1.44,1.44,0,0,1-.66,1.54,4.28,4.28,0,0,0-.48.54c-1.93.41-2.8-1.17-3.92-2.06L7,46.3c-.08.08-.22.11-.31.18-.31.23-.59.6-.93.67a14.63,14.63,0,0,1-2.12.13,5,5,0,0,0-.29-.57c-.83-1.08-.4-2.07.17-3.07a8.33,8.33,0,0,0,.39-.89L.73,41.46,0,40l.71-1.85.54-.31.38.43L1.53,37l2.39-.37c-.16-.77-.34-1.58-.55-2.52l.89-1.37,1-.26L7.7,33.9l.83,1.61c1.12-.34,1.58-1.62,2.72-2l.87.1Z"/><path class="cls-1" d="M88.59,20.26c-.23.46-1,.57-.8,1.3l-1.17,1c0,.55.45.5.71.5a3.42,3.42,0,0,1,1.88.35,2.08,2.08,0,0,0,.32.12,4.14,4.14,0,0,1,1,.3,3.17,3.17,0,0,1,.78.81,6,6,0,0,1,.46.81l-.65,1.48a5.18,5.18,0,0,1-4.22.6l-.23,2.59-1.1.89L83.6,31c-.29-.43-.79-.65-.67-1.39.07-.43-.45-.95-.72-1.46l-3.71.32c0-.21.06-.29.09-.46l-1.18-.2-.67-1.34a2.83,2.83,0,0,1,2-2.85c.53-.23,1.17-.23,1.72-.51a.83.83,0,0,0,.21-.17L79,20.33c.09-.72.19-1.52.31-2.41l1.31-.23a6.45,6.45,0,0,1,2.63,2.86l2.92-2.35.69.25.44-.61.92,1,.33-.13c0,.15.1.27.07.37A1.66,1.66,0,0,0,88.59,20.26Z"/><path class="cls-1" d="M37.77,26.56c.27,1,.51,1.81.66,2.37l-.65,2.19a2.6,2.6,0,0,1-2,.87,4.54,4.54,0,0,1-1.25-.46,6.43,6.43,0,0,1-.28-3.69l-3.61.58-1-.5c-.78-1.61-.62-2.09,1.18-3.44a2.45,2.45,0,0,0-.95-1.54,3.46,3.46,0,0,1-.77-2,1.72,1.72,0,0,1,.77-1.78l.59.47.32-.5c.45-.11.88.2,1.27.92l.24-.38,2.09,1.79c.67-1.11.39-2.6,1.56-3.29l1.43-.41,1.34,1.15-.38.32a2.63,2.63,0,0,1,.46,2.48A1.54,1.54,0,0,0,39.15,23l1.05-.65,2.09.37L43,24.21a5.28,5.28,0,0,1-.35,1c-.28.52-.54,1.13-1.35,1-.1,0-.25.1-.36.18a1.73,1.73,0,0,1-1.38.39C39,26.74,38.44,26.65,37.77,26.56Z"/><path class="cls-1" d="M12.43,14.64l2.48,1.19a13.78,13.78,0,0,0-.25-2.52,3.33,3.33,0,0,1,.2-2.07l.39.56.46-.5L15.33,11c.05-.07.09-.18.13-.18a2,2,0,0,1,1.88.71,13.93,13.93,0,0,0,1.75,2c.45-.31.94-.9,1.41-.89.64,0,.92-.79,1.75-.38a3.43,3.43,0,0,1,1.37,4.28,2.84,2.84,0,0,1-2.2,2.06c-.74.14-1.48.28-2.21.44a4.74,4.74,0,0,0-.6.3c.21.77.35,1.54.62,2.27a3.86,3.86,0,0,1-1.38,4.24,2.54,2.54,0,0,1-1,.27,6.82,6.82,0,0,1-.79.08c-.84-.28-.82-1.19-1.27-1.73,0-.77,0-1.52.12-2.26a19.78,19.78,0,0,1,.45-2c-1.35-.52-2.8-1-4.16-1.66a1.62,1.62,0,0,1-1.14-1.52c0-.2-.21-.41-.32-.6.06-.9.27-1.68,1.36-1.89,0,.1.13.22.18.31Z"/><path class="cls-1" d="M12.12,33.6l.14-.37.72.18c-.27.64-.59.26-.89.15Z"/><path class="cls-2" d="M57.31,39.57c.72-.54,1.68-.31,2.58-.24a14.37,14.37,0,0,1,3,.27c.49.14,1.12-.22,1.85-.39-.44-.71-.82-1.34-1.21-2A3.06,3.06,0,0,1,63.3,37a9.77,9.77,0,0,0-.9-1.9c-.41-.53-.85-1-1.22-1.58a9.34,9.34,0,0,1-1.52-2.19c-.28-.35-.54-.72-.84-1.05-.46-.53-1-1-1.41-1.55a21.19,21.19,0,0,0-2.9-2.54c-.91-.75-1.88-1.44-2.9-2.21,0-.38.06-.85.08-1.29a3.28,3.28,0,0,1,2.19.25,10.74,10.74,0,0,1,1.38.64.31.31,0,0,1,.09.07,3.65,3.65,0,0,0,.63,1c.28.22.77.17,1.08.37a16.22,16.22,0,0,1,1.44,1.14c-.21.91.72,1.16,1.23,1.61A12.27,12.27,0,0,1,62.3,31,18.19,18.19,0,0,0,64,33.66a27.33,27.33,0,0,1,2,3.6,14.2,14.2,0,0,0,1.08,1.65,1.11,1.11,0,0,0,1.07.36c1.4-.22,2.81-.38,4.22-.51.78-.08,1.57,0,2.48-.07-.14-.25-.17-.41-.28-.48-.62-.41-1.29-.75-1.88-1.2s-1-1-1.5-1.39A12.26,12.26,0,0,1,68,32.29a8.65,8.65,0,0,1-.75-1.45c-.17-.44-.94-.61-.6-1.28-1-1.26-1.18-2.83-1.83-4.22a16.57,16.57,0,0,1-.7-2.24c.22-.56.46-1.05,1.19-1.2.87.8,2.45.47,3,1.66a3.67,3.67,0,0,1,1,.25c1,.65,2,1.34,3,2a1.48,1.48,0,0,1,.3.36c1,1.22,2,2.41,2.87,3.66a5.13,5.13,0,0,1,1.19,2.66,1.12,1.12,0,0,1,.47,1.31,11.46,11.46,0,0,1,.57,1.06c.17.43.27.89.41,1.34a7.29,7.29,0,0,0,.5,1.56,6.42,6.42,0,0,0,1.07,1.08c.08-.58.41-.81,1-.85a15.34,15.34,0,0,0,1.91-.37c.36-.07.73-.11,1.17-.17s1.11-.24,1.7-.39,1.25-.34,1.87-.54a3.65,3.65,0,0,1,2.82-.25c.15.39.31.83.52,1.39A7.56,7.56,0,0,1,86.91,39a2.56,2.56,0,0,1-1.26.48c-1.36.13-2.69.55-4.05.74A11.94,11.94,0,0,0,79,41c.08.74-.26,1.52.2,2.25-.39,1,.28,2.05,0,3.11a15.24,15.24,0,0,0-.12,2.45A6,6,0,0,1,78,52.2a4.66,4.66,0,0,0-.44,1l-.53.21c0,.07-.09.15-.08.21a2.28,2.28,0,0,1-.83,2c-.5.58-1.4.59-1.81,1.31,0,.08-.36,0-.62,0-.33.52-.88,1.1-1.51,1s-1,.65-1.53.38l-.88-1A17.63,17.63,0,0,1,70,55.53c.16-.67.19-1.4.38-2.09s.29-1.26.45-1.89.33-1.28.51-1.91a9,9,0,0,1,.63-2c.3-.51.61-1,.92-1.52s.18-1.35,1-1.57c-.14-.8.46-1.28.81-1.86s.69-1.13,1-1.72c-.81-.33-1.61.73-2.37,0-.65,0-1.21.84-1.9.28l-1.82.31a9.7,9.7,0,0,1-2.41,3c0,.08,0,.28,0,.48a1.07,1.07,0,0,1-.16.14c-.26.15-.54.14-.72.51-.27.55-.93.76-1.4,1.13s-1.41.59-1.65,1.4c-.09.3-.65,0-.6.5-1.09.48-1.79,1.54-3,1.87-.49.13-.86.66-1.33.94-.66.39-1.35.74-2,1.08-.9.44-1.8.89-2.72,1.27a10.32,10.32,0,0,1-2.56.87,8.21,8.21,0,0,0-1.57.61c-1,.37-2.09.72-3.12,1.09-.35.13-.65.25-1,0-.06-.05-.32.14-.51.22l-.72-.52a1.72,1.72,0,0,1,.81-1.61c1.37-.43,2.6-1.24,4.05-1.41a4.66,4.66,0,0,1,2.23-1,20.32,20.32,0,0,0,3.22-1.39,14.57,14.57,0,0,1,1.87-.58c.22-.77,1-.8,1.87-.78A2.34,2.34,0,0,1,60,47.56l2.21-1.78.55.11c-.12-.81.89-.63,1.1-1.35.15-.5,1-.74,1.38-1.24s1.28-.62,1.09-1.52l-3.56.13c-1.15,0-2.27-.18-3.42-.14s-2.33-.13-3.52-.21c-.07-.09-.17-.24-.29-.43-1.1.73-2.11-.13-3.2,0a5.4,5.4,0,0,1-2.6,1.76,7,7,0,0,0-1.77.9,2.37,2.37,0,0,1-1.18.36,4.73,4.73,0,0,0-1.62.61c-.18.07-.31.37-.45.37-1.11-.05-2,.73-3,.85a3.52,3.52,0,0,0-1.9.52,5.73,5.73,0,0,1-2.66.16l-.43.7-3.62.3a2.1,2.1,0,0,0-.36,0c-1.76.7-3.62.19-5.47.44l-1.17-.92c.11-.76.53-1,1.17-1.21.91-.33,1.92.11,2.74-.51.59.49,1-.15,1.57-.19a7.2,7.2,0,0,0,1.14,0c.31-.08.56-.4.89,0l.68-.49.66.4c.35-.8,1.14-.44,1.73-.62,1.25-.38,2.53-.64,3.8-.92.44-.1.89-.13,1.43-.21l1-.42a10,10,0,0,0,1.29-.58c.41-.23.79-.38,1.16-.12a11.85,11.85,0,0,0,1.54-.93c.42-.35,1.21.24,1.4-.64a1.36,1.36,0,0,0-1.21-.47,8.2,8.2,0,0,1-3.35-.58,2.24,2.24,0,0,0-1.4-.31,2.52,2.52,0,0,1-1.45-.09c-1.19-.21-2.36-.54-3.54-.76s-2-.48-3-.75c-.51-.14-1.07-.06-1.6-.15-.19,0-.34-.23-.45-.31a6.06,6.06,0,0,1-2-.45,2.32,2.32,0,0,0-2.92.38A15.59,15.59,0,0,1,23.86,39c-.84.39-1.85.46-2.67.88s-1.54.27-2.27.64a7.58,7.58,0,0,1-2.3.53A5.43,5.43,0,0,1,15.4,41c-.45.71-1.27.7-2.06.55a1.71,1.71,0,0,0-.72.05c-1.12.21-2.26.32-3.56.49l-.56-.84-.3.63c-.49-.44-1.41-.19-1.56-1.22L7,40.07l.26.2L8,39.6a5.63,5.63,0,0,0,2.74-.2,5.64,5.64,0,0,1,2.07-.21,1.87,1.87,0,0,1,1.41.75c0-.2,0-.4,0-.68a4.26,4.26,0,0,1,1.13-.51,6.14,6.14,0,0,0,1.11-.11c.37-.13.81-.46,1.29,0,.46-.9,1.43-.46,2.14-.84A11.53,11.53,0,0,1,22,37c.74-.22,1.5-.37,2.38-.58l.77-.85-.91-.52.15-.18c-.05,0-.1-.11-.15-.1s-.36.09-.47,0c-1.28-.69-2.78-.65-4.08-1.26a3.36,3.36,0,0,0-1.6-.6c-.14,0-.31-.32-.47-.49a3.18,3.18,0,0,1-2-.48A21.86,21.86,0,0,1,10,29.13c-1.4.16-2.57-1-4.06-1.28-.13-.32-.27-.67-.43-1.05L6.11,26A16.17,16.17,0,0,1,10,27l.55.73c.07-.24.12-.42.2-.68.32.3.59.58.88.86.51,0,1.08-.25,1.51.38.13.2.62.13.94.22a23.36,23.36,0,0,0,3.37,1.12c.65.07,1.08.78,1.83.67.06,0,.17.28.27.46l.42-.13s.09,0,.12,0c1.06.86,2.45.94,3.61,1.58a5.29,5.29,0,0,1,.7.55c.29-.14.46-.26.28-.64-.78-1.57-1.49-3.18-2.27-4.75a8.45,8.45,0,0,0-1.48-2.51c-.6-.56-1-1.51-2-1.62l-3.69-3.16c.39-.41.61-.9,1.2-.44.11.09.34.05.51,0a3.92,3.92,0,0,1,2.66.95,8.4,8.4,0,0,1,1.16.78,4.08,4.08,0,0,1,.59.82l.3-.07c2.26,2.06,3.06,4.91,4.46,7.41,0,.07,0,.22,0,.09a6.45,6.45,0,0,1,.77,1.82,3,3,0,0,0,.77,1.81,1.35,1.35,0,0,1,.16.38,6.83,6.83,0,0,1,2.28.82l1.68.19c-.11.13-.15.19-.25.32,1,.38,2.3-.31,3.1.8a29.76,29.76,0,0,1,3.53.57c1.46.33,2.94.65,4.43.88a1.46,1.46,0,0,1,.62.24.9.9,0,0,0,1.17.11.9.9,0,0,1,.65,0c.92.2,1.83.43,2.74.64A.89.89,0,0,0,48.84,38a8,8,0,0,0-1.66-2.13c-.52-.57-1.22-1-1.78-1.5a8.89,8.89,0,0,1-.91-1.24c-1.15,0-1.67-1.08-2.3-2L42,31.2a17.81,17.81,0,0,0-1.57-1.1,10.42,10.42,0,0,1-1.4-1c-.79-.61-1.82-.75-2.53-1.45,0,0-.06-.07-.09-.07-1.19,0-1.69-.8-2-1.92a4,4,0,0,0,.32-.29c.11-.11.21-.23.36-.4a3.54,3.54,0,0,1,3.25,1.28,1.55,1.55,0,0,1,1.55.4,4.06,4.06,0,0,0,1.8,1.28c.07,0,.12.09.18.15a19.46,19.46,0,0,0,2.12,1.83,3.15,3.15,0,0,1,.49.84l.76.09a9.21,9.21,0,0,0,.77.86,29.27,29.27,0,0,1,2.77,2.55c.4.49.83,1,1.25,1.45A1.54,1.54,0,0,1,50.59,37c.4,0,.74,0,.85.55A5.65,5.65,0,0,0,52,38.75c.35-.06.66-.2.8-.11,1,.68,2.11.19,3.13.46C56.34,39.22,56.76,39.39,57.31,39.57Z"/><path class="cls-3" d="M49.87,19.57A6.81,6.81,0,0,1,51,19.28c.36-.05.73,0,1.11,0,.64.23,1.4.36,1.69,1.11a8.08,8.08,0,0,1,.63,2,1.72,1.72,0,0,1-.78,1.51,2.59,2.59,0,0,1-2.12.6A3,3,0,0,1,49.08,22a2.6,2.6,0,0,1,.16-1.36A5.86,5.86,0,0,1,49.87,19.57Z"/><path class="cls-3" d="M46.58,52.76c.18.57.32,1,.46,1.5-.51,1.13-.51,2.64-2.23,3.1l-1.27-.14-.78-.74a10.93,10.93,0,0,0-.29-1.85,1.88,1.88,0,0,1,.75-2.47,2.16,2.16,0,0,0,.39-.41C45,51.16,45.73,52.18,46.58,52.76Z"/><path class="cls-3" d="M26.91,43.25l1.46.65.66,1,.44,1.28c-.11.21-.31.57-.63,1.14a4.73,4.73,0,0,1-3,1.13l-.71-.5c-.28-.34.06-.63-.28-.94s-.24-.8-.23-1.21A3,3,0,0,1,25.33,44c.21-.25.48-.53.93-.34C26.38,43.67,26.62,43.43,26.91,43.25Z"/><path class="cls-3" d="M32.57,25.78c.07-.2.14-.38.19-.54l-.54-.42a2.36,2.36,0,0,1,1-2.59l.51.2L34.2,22l1.71.27c.35.59.76,1.25,1.13,1.88-.07.42-.12.77-.18,1.1l-.74.9.1.1L34.67,27l-1.13-.21C33.21,26.46,32.9,26.12,32.57,25.78Z"/><path class="cls-3" d="M14.8,16l1-.2,1.14.14c1.23.48.59,2,1.51,2.73a3.91,3.91,0,0,1-1.7,1.92,1.22,1.22,0,0,1-1,0,6.34,6.34,0,0,1-1-.66L14,17.81c.15-.49.37-1.19.58-1.89Z"/><path class="cls-3" d="M7.26,41.58C7,41,6,41,6,40.05c0-.71-.23-1.42.17-2.12a2.44,2.44,0,0,1,1.61-1.16l1.46.84.1,1.23c.79.38.4,1.16.3,1.75S8.82,41.54,7.26,41.58Z"/><path class="cls-3" d="M81.2,23l.54.43.84-.87a2.24,2.24,0,0,1,1.7,1.12c.65,1,.68,1.08.34,2.17a13,13,0,0,1-1.06.78,8.59,8.59,0,0,1-1,.46,2.85,2.85,0,0,1-1.69-1.75C80.59,24.61,81.05,23.93,81.2,23Z"/><path class="cls-1" d="M201,41.7c-.33.16-.86.27-1.09.59a1.43,1.43,0,0,1-1.1.73c-.14,0-.24.42-.51.94a1.83,1.83,0,0,1,2.11.07,14.72,14.72,0,0,1,2.53,2,3.21,3.21,0,0,1,.75,2.4c-.67.29-.9,1.17-1.76,1.17-.14.59-.67.3-.87.23-.94-.31-1.85-.73-2.91-1.17l-.59.22a5.67,5.67,0,0,1-1.65,3.44,2.4,2.4,0,0,1-2.06.87c-1.52-.54-1.88-2.19-1.35-4.55-.26-.47-.74-.35-1.06-.24a7,7,0,0,1-2.09,0,2.58,2.58,0,0,1-2-1.05l-.51-.58c.3-.35-.12-.73-.08-1.2a3,3,0,0,1,1.43-2.23,5.75,5.75,0,0,1,4.2-1.19,4.57,4.57,0,0,0-.08-.83c-.18-.57-.41-1.12-.59-1.69a1.6,1.6,0,0,1,.25-1.85c.15-.13.14-.42.19-.59l1.18-.11a7.37,7.37,0,0,0,.88.34c.52.12.71.54.94.94s.61,1.09,1,1.81a6.9,6.9,0,0,1,3.29-2.82,2.42,2.42,0,0,1,2,.66l-.61.87.82-.18C202,39.51,202,39.53,201,41.7Z"/><path class="cls-1" d="M208.89,53.77l-2-2.37-.24.19-.17-2.06.63-1.05c.24,0,.55,0,.69-.11,1.12-1.09,2.36-.68,3.72-.29-.31-.72.38-1.24.21-2s.68-1.15.91-1.77c.27,0,.53,0,.78-.07s.54-.11.82-.17c0,.18,0,.29,0,.4a4.4,4.4,0,0,1,2.71,4,4.71,4.71,0,0,1-.21,1c-.08.4-.37.78-.14,1.24a6.3,6.3,0,0,1,3.88-.17,2.86,2.86,0,0,1,1.64,1.31,2.31,2.31,0,0,1,.42,2,3.75,3.75,0,0,0,.09,1.38L221,56.47a9.88,9.88,0,0,0-1.32-.56,9.05,9.05,0,0,0-1.46-.13l.43.43.21.18.19,2.24-.94,1.94-1.25.73-1.11-.21c-.05-.27-.11-.55-.17-.88-.93.16-1-.72-1.29-1.33s-.43-1.29-.69-2.07A15,15,0,0,1,211,58a12.41,12.41,0,0,1-2.73.07c-.47-.7-1-1.31-.69-2.2a2.2,2.2,0,0,1,.3-.64C208.23,54.62,208.66,54.07,208.89,53.77Z"/><path class="cls-1" d="M223.51,11.37c.61,0,.89.4,1.05,1.09l.47-.65a6,6,0,0,1,1.15,2.52,3.75,3.75,0,0,1-.17,2.73l.75,1.09,1.32-.31.34.39.34-.36a3.24,3.24,0,0,1,2.11,2.31l-.21.8a4.2,4.2,0,0,1-2.9,1.22L224.83,22l-.49-.72c0,.2-.12.34-.08.43a5.92,5.92,0,0,1,.25,1.77c.17,1.06-1.55,3.18-2.58,3.46a1.74,1.74,0,0,1-2.05-1c-.25-.65-.39-1.35-.6-2.12a25.83,25.83,0,0,0-2.65-.41c-1.22-.07-1.82-1-2.67-1.56a7.15,7.15,0,0,1,.34-1.74c.19-.4.67-.67,1.06-1a7,7,0,0,0,.87-.34,7.57,7.57,0,0,0,.83-.65c-.12-.84-1-1.16-1.3-1.89s-.42-1.47-.63-2.25l1.22-1.6,1.51.22.47.62c.16,0,.41-.12.51,0,.8.66,1.79,1.13,2.19,2.21.08.24.44.38.76.64.08-.43.07-.92.19-1,.63-.18.12-.48.13-.72a3.06,3.06,0,0,1,.06-.91A3.16,3.16,0,0,1,223.51,11.37Z"/><path class="cls-1" d="M181.24,31.18c0,.11.06.23.12.41l1.1.14.14-.35c.5.22.17.66.26,1s.46.59.72.9l-.56.32a4.44,4.44,0,0,1,.07,1c-.14.8-.79,1.22-1.39,1.66-.19.14-.44.2-.63.33a2.12,2.12,0,0,1-1.71.55c-.16,0-.36.1-.53.15.13.67.73.72,1.1,1a11.27,11.27,0,0,1,2,1.88,5.69,5.69,0,0,1,1,2.12,1.46,1.46,0,0,1-.66,1.55,3.58,3.58,0,0,0-.48.53c-1.93.42-2.8-1.16-3.92-2.05l-1.65,1.62c-.08.08-.22.1-.31.17-.31.23-.59.61-.93.67a16.18,16.18,0,0,1-2.12.14,4.44,4.44,0,0,0-.29-.58c-.83-1.08-.4-2.07.17-3.07a9.2,9.2,0,0,0,.39-.88l-3.18-1.29-.73-1.5.71-1.86.54-.3.38.42-.1-1.21,2.4-.37-.56-2.52.89-1.36,1.05-.27,2.39,1.41.83,1.6c1.12-.34,1.58-1.62,2.73-2l.86.1Z"/><path class="cls-1" d="M257.74,17.88c-.23.45-1,.56-.8,1.3l-1.17,1c0,.56.45.5.71.51a3.43,3.43,0,0,1,1.88.34,2.15,2.15,0,0,0,.32.13,4.13,4.13,0,0,1,1,.29,3.21,3.21,0,0,1,.78.82,5.49,5.49,0,0,1,.46.81c-.22.5-.42.94-.65,1.48a5.18,5.18,0,0,1-4.22.6c-.08.91-.16,1.79-.23,2.59l-1.1.89-1.93-.05c-.29-.43-.79-.66-.67-1.4.07-.43-.45-1-.72-1.45l-3.71.31c0-.21.06-.28.09-.46l-1.18-.19c-.2-.41-.43-.85-.67-1.34a2.83,2.83,0,0,1,2-2.85c.53-.24,1.17-.23,1.72-.51a1.79,1.79,0,0,0,.21-.17l-1.67-2.59c.09-.72.19-1.51.31-2.41l1.31-.23a6.51,6.51,0,0,1,2.63,2.86l2.92-2.34.69.25.44-.61.92,1,.33-.12c0,.14.1.27.07.37A1.66,1.66,0,0,0,257.74,17.88Z"/><path class="cls-1" d="M206.92,24.17c.27,1,.51,1.82.66,2.38-.25.85-.43,1.43-.65,2.19a2.59,2.59,0,0,1-2,.86,4.07,4.07,0,0,1-1.25-.46,6.42,6.42,0,0,1-.28-3.69l-3.61.58-1-.49c-.78-1.62-.62-2.1,1.18-3.45a2.48,2.48,0,0,0-.95-1.54,3.42,3.42,0,0,1-.77-2,1.7,1.7,0,0,1,.77-1.78c.18.13.35.27.59.46l.32-.49c.46-.12.89.19,1.27.91l.24-.37L203.54,19c.68-1.1.39-2.59,1.56-3.29l1.43-.41,1.34,1.16-.38.31A2.64,2.64,0,0,1,208,19.3a1.52,1.52,0,0,0,.35,1.34l1-.64,2.09.37.72,1.46a5.22,5.22,0,0,1-.35,1c-.28.52-.54,1.13-1.35,1-.1,0-.25.1-.36.19a1.77,1.77,0,0,1-1.38.39Z"/><path class="cls-1" d="M181.58,12.26l2.48,1.18a13.58,13.58,0,0,0-.25-2.51A3.29,3.29,0,0,1,184,8.85l.38.56.46-.49-.38-.29c.05-.07.09-.17.13-.18a2.06,2.06,0,0,1,1.88.71,12.91,12.91,0,0,0,1.75,2c.45-.3.94-.9,1.41-.89.64,0,.92-.78,1.75-.38a3.44,3.44,0,0,1,1.37,4.29,2.88,2.88,0,0,1-2.2,2.06c-.74.13-1.48.28-2.21.44a3,3,0,0,0-.6.3c.21.76.35,1.54.62,2.27A3.88,3.88,0,0,1,187,23.46a3.09,3.09,0,0,1-1,.27,6.85,6.85,0,0,1-.78.07c-.85-.27-.83-1.19-1.28-1.72,0-.78,0-1.53.12-2.27s.31-1.36.45-2c-1.35-.52-2.8-1-4.16-1.66a1.61,1.61,0,0,1-1.14-1.52c0-.19-.21-.4-.32-.6.06-.9.27-1.68,1.36-1.89.05.1.13.23.18.32Z"/><path class="cls-1" d="M181.27,31.22l.14-.38.72.19c-.27.63-.59.25-.89.15Z"/><path class="cls-2" d="M226.46,37.18c.72-.54,1.68-.31,2.58-.24a14.39,14.39,0,0,1,3,.28c.49.14,1.12-.22,1.85-.39l-1.21-2a3.06,3.06,0,0,1-.21-.29,10.35,10.35,0,0,0-.9-1.9c-.41-.52-.85-1-1.22-1.57a9.61,9.61,0,0,1-1.52-2.2c-.28-.35-.54-.71-.83-1-.47-.52-1-1-1.42-1.55a21.89,21.89,0,0,0-2.9-2.54c-.91-.75-1.88-1.43-2.9-2.21,0-.38.06-.84.08-1.28a3.28,3.28,0,0,1,2.19.24,12.36,12.36,0,0,1,1.38.65.2.2,0,0,1,.09.07,3.59,3.59,0,0,0,.63,1c.28.23.77.18,1.08.37a18.29,18.29,0,0,1,1.44,1.14c-.21.91.72,1.16,1.23,1.61a12.59,12.59,0,0,1,2.57,3.28,17.78,17.78,0,0,0,1.74,2.67,26.14,26.14,0,0,1,2,3.59,14.32,14.32,0,0,0,1.08,1.66,1.12,1.12,0,0,0,1.07.35c1.4-.22,2.81-.38,4.23-.51.77-.07,1.56,0,2.47-.06-.14-.25-.17-.42-.28-.49-.62-.41-1.29-.75-1.88-1.2s-.95-1-1.5-1.39a12.23,12.23,0,0,1-3.29-3.32,9.5,9.5,0,0,1-.75-1.45c-.17-.45-.94-.62-.6-1.29-1-1.26-1.18-2.83-1.83-4.22a16.43,16.43,0,0,1-.7-2.23c.22-.56.46-1.06,1.19-1.2.87.8,2.45.46,3,1.65a3.64,3.64,0,0,1,1,.26c1,.64,2,1.33,3,2a1.18,1.18,0,0,1,.3.36c1,1.21,2,2.41,2.87,3.66a5.1,5.1,0,0,1,1.19,2.65,1.13,1.13,0,0,1,.47,1.32,9.36,9.36,0,0,1,.57,1.06c.17.43.27.89.41,1.33a7.11,7.11,0,0,0,.5,1.56,5.75,5.75,0,0,0,1.07,1.08c.09-.58.41-.8,1-.84a17.44,17.44,0,0,0,1.91-.38c.36-.07.73-.1,1.17-.16s1.11-.25,1.7-.4,1.25-.34,1.87-.53a3.7,3.7,0,0,1,2.82-.26c.15.4.31.84.52,1.39a7.37,7.37,0,0,1-3.74,1.3,2.65,2.65,0,0,1-1.26.49c-1.36.12-2.69.54-4.05.73a11.45,11.45,0,0,0-2.57.82c.08.73-.26,1.51.2,2.25-.39,1,.28,2,0,3.11a15.17,15.17,0,0,0-.12,2.44,6,6,0,0,1-1.13,3.39,4.58,4.58,0,0,0-.44,1l-.53.22c0,.07-.09.15-.08.21a2.3,2.3,0,0,1-.83,2c-.5.57-1.4.59-1.81,1.31,0,.07-.36,0-.62,0-.33.53-.88,1.1-1.51,1s-1,.66-1.53.39l-.88-1a17.63,17.63,0,0,1,.25-1.83c.16-.66.19-1.39.38-2.08s.29-1.27.45-1.9.33-1.27.51-1.9a8.81,8.81,0,0,1,.63-2c.3-.51.61-1,.92-1.53s.18-1.34,1-1.57c-.14-.8.46-1.27.81-1.85l1-1.72c-.81-.33-1.61.72-2.37-.05-.65,0-1.21.83-1.9.28l-1.82.3a9.7,9.7,0,0,1-2.41,3l0,.48a.7.7,0,0,1-.16.14c-.26.15-.54.14-.72.51-.27.55-.93.77-1.4,1.14s-1.41.58-1.65,1.4c-.09.3-.65,0-.6.5-1.09.47-1.79,1.53-3,1.86-.49.13-.86.66-1.33.94-.66.4-1.35.74-2,1.08-.9.45-1.8.9-2.72,1.28a10.72,10.72,0,0,1-2.56.86,8.21,8.21,0,0,0-1.57.61c-1,.38-2.09.72-3.12,1.1-.35.12-.65.25-1,0-.06-.05-.32.14-.51.23l-.72-.53a1.72,1.72,0,0,1,.81-1.61c1.37-.42,2.6-1.23,4.05-1.41a4.65,4.65,0,0,1,2.23-1,21.28,21.28,0,0,0,3.22-1.39,13,13,0,0,1,1.87-.59c.22-.77,1-.8,1.87-.78a2.33,2.33,0,0,1,1.88-1.78l2.21-1.79.55.12c-.12-.81.89-.64,1.1-1.36.15-.5,1.05-.73,1.38-1.24s1.28-.62,1.09-1.52l-3.56.14c-1.15,0-2.27-.18-3.42-.15a35.1,35.1,0,0,1-3.52-.2l-.29-.43c-1.1.72-2.11-.13-3.2,0a5.38,5.38,0,0,1-2.6,1.75,7.39,7.39,0,0,0-1.77.9,2.28,2.28,0,0,1-1.18.36,4.94,4.94,0,0,0-1.62.61c-.18.08-.31.38-.45.37-1.11-.05-2,.73-3,.85a3.52,3.52,0,0,0-1.9.52,5.61,5.61,0,0,1-2.66.17l-.43.69-3.62.31a1.42,1.42,0,0,0-.36,0c-1.76.7-3.62.19-5.47.43l-1.17-.92c.11-.75.53-1,1.17-1.2.91-.33,1.92.11,2.74-.51.59.49,1-.16,1.57-.2a5.41,5.41,0,0,0,1.14,0c.31-.08.56-.4.89,0l.68-.48.67.4c.34-.81,1.13-.45,1.72-.63,1.25-.37,2.53-.63,3.8-.92.44-.1.89-.13,1.43-.2l1-.42a13.68,13.68,0,0,0,1.29-.58c.41-.24.79-.39,1.16-.13a11.83,11.83,0,0,0,1.54-.92c.42-.35,1.21.24,1.41-.64a1.37,1.37,0,0,0-1.22-.47,8.55,8.55,0,0,1-3.35-.58,2.17,2.17,0,0,0-1.4-.31,2.62,2.62,0,0,1-1.45-.09c-1.19-.21-2.36-.54-3.54-.77s-2-.48-3-.75a14,14,0,0,0-1.6-.14c-.19,0-.34-.23-.45-.31a6.32,6.32,0,0,1-2-.46,2.32,2.32,0,0,0-2.92.38A15.17,15.17,0,0,1,193,36.64c-.84.39-1.84.47-2.67.89s-1.54.26-2.27.63a7.58,7.58,0,0,1-2.3.54,5.5,5.5,0,0,1-1.22-.1c-.45.72-1.27.7-2.06.55a1.71,1.71,0,0,0-.72.06c-1.12.2-2.26.32-3.55.49l-.57-.84c-.15.32-.2.44-.3.63-.49-.44-1.41-.19-1.56-1.22l.35-.59.26.2.73-.67a5.51,5.51,0,0,0,2.74-.19,5.86,5.86,0,0,1,2.07-.22,1.87,1.87,0,0,1,1.41.75c0-.2,0-.4,0-.68a4.78,4.78,0,0,1,1.13-.51,5.35,5.35,0,0,0,1.11-.11c.37-.13.81-.45,1.29,0,.46-.9,1.44-.47,2.14-.85a11.5,11.5,0,0,1,2.14-.81c.74-.23,1.5-.37,2.38-.58l.77-.85-.91-.52c.05,0,.09-.11.15-.18s-.1-.11-.15-.11-.35.1-.47,0c-1.28-.69-2.78-.66-4.08-1.27a3.36,3.36,0,0,0-1.6-.6c-.14,0-.31-.31-.47-.49a3.17,3.17,0,0,1-2-.47,22.22,22.22,0,0,1-5.58-2.87,12.44,12.44,0,0,1-4-.28c-.13-.31-.28-.67-.43-1.05l.57-.78c1.24.24,2.49-.63,3.82,0l.55.73c.07-.24.13-.42.2-.68l.88.86c.51.05,1.08-.24,1.51.38.13.2.63.13.94.22a22.19,22.19,0,0,0,3.37,1.12c.65.08,1.08.79,1.83.67.06,0,.17.28.27.46l.42-.13s.09,0,.12,0c1.06.85,2.45.94,3.61,1.57a5.29,5.29,0,0,1,.7.55c.29-.14.46-.26.28-.63-.78-1.58-1.49-3.19-2.27-4.76a8.58,8.58,0,0,0-1.48-2.51c-.6-.56-1-1.5-2-1.62l-3.68-3.16c.38-.41.61-.89,1.19-.44.11.09.34.06.51,0a4,4,0,0,1,2.66.95A8.4,8.4,0,0,1,190,19a4.15,4.15,0,0,1,.59.83l.3-.08c2.26,2.06,3.06,4.91,4.46,7.41,0,.08,0,.23,0,.09a6.7,6.7,0,0,1,.77,1.82,3,3,0,0,0,.77,1.81,1.35,1.35,0,0,1,.16.38,6.86,6.86,0,0,1,2.28.83l1.68.18c-.11.13-.15.19-.25.32,1,.38,2.3-.31,3.1.8a34.51,34.51,0,0,1,3.53.57c1.46.34,2.94.65,4.43.88a1.48,1.48,0,0,1,.62.25.9.9,0,0,0,1.17.1,1,1,0,0,1,.65,0c.92.2,1.83.44,2.75.65a.88.88,0,0,0,1-.25,8.11,8.11,0,0,0-1.66-2.13c-.52-.56-1.22-1-1.78-1.5a8.73,8.73,0,0,1-.91-1.23c-1.15,0-1.67-1.09-2.3-2l-.15.15a15.92,15.92,0,0,0-1.57-1.1,10.48,10.48,0,0,1-1.4-1c-.79-.61-1.82-.75-2.53-1.44,0,0-.06-.08-.09-.08-1.19,0-1.69-.8-2-1.91L204,23c.11-.11.21-.23.36-.4a3.55,3.55,0,0,1,3.25,1.29,1.51,1.51,0,0,1,1.55.4,4,4,0,0,0,1.8,1.27c.07,0,.12.1.18.15a19.55,19.55,0,0,0,2.12,1.84,3.08,3.08,0,0,1,.49.83l.76.1c.27.29.49.6.77.85A28.09,28.09,0,0,1,218,31.86c.4.48.83,1,1.25,1.44a1.55,1.55,0,0,1,.48,1.28c.4,0,.74,0,.85.55a5.78,5.78,0,0,0,.53,1.23c.35,0,.66-.2.8-.1,1,.67,2.11.19,3.13.46C225.49,36.84,225.91,37,226.46,37.18Z"/><path class="cls-3" d="M219,17.19a8,8,0,0,1,1.12-.3c.36,0,.73,0,1.11,0,.64.23,1.4.36,1.69,1.11a8.22,8.22,0,0,1,.63,2,1.7,1.7,0,0,1-.78,1.51,2.59,2.59,0,0,1-2.12.61,3,3,0,0,1-2.44-2.52,2.65,2.65,0,0,1,.16-1.35A5.22,5.22,0,0,1,219,17.19Z"/><path class="cls-3" d="M215.74,50.37l.45,1.51c-.51,1.12-.51,2.63-2.23,3.1l-1.27-.15-.78-.73a11,11,0,0,0-.29-1.86,1.89,1.89,0,0,1,.75-2.47,2.45,2.45,0,0,0,.39-.4C214.1,48.77,214.88,49.79,215.74,50.37Z"/><path class="cls-3" d="M196.06,40.87l1.46.64.66,1c.12.34.26.74.44,1.27-.11.22-.31.57-.63,1.15a4.73,4.73,0,0,1-3,1.12l-.71-.49c-.28-.34.06-.64-.28-.94s-.24-.8-.23-1.22a3,3,0,0,1,.71-1.84c.21-.26.48-.54.93-.34C195.53,41.29,195.77,41,196.06,40.87Z"/><path class="cls-3" d="M201.72,23.39c.07-.2.14-.38.19-.54l-.54-.42a2.37,2.37,0,0,1,1-2.59l.51.2.43-.4,1.71.26,1.13,1.88c-.07.43-.12.77-.18,1.11l-.74.9.1.09-1.55.76-1.13-.21C202.36,24.07,202.05,23.73,201.72,23.39Z"/><path class="cls-3" d="M184,13.57l1.05-.2,1.14.14c1.23.48.59,2,1.51,2.72a3.91,3.91,0,0,1-1.7,1.92,1.22,1.22,0,0,1-1,0,5.68,5.68,0,0,1-1.05-.67l-.78-2.09.58-1.88Z"/><path class="cls-3" d="M176.41,39.19c-.31-.57-1.29-.6-1.23-1.53,0-.7-.23-1.41.17-2.11A2.49,2.49,0,0,1,177,34.38l1.46.84.1,1.23c.79.38.4,1.17.3,1.76S178,39.16,176.41,39.19Z"/><path class="cls-3" d="M250.35,20.65l.54.43.84-.88a2.24,2.24,0,0,1,1.7,1.12c.65,1,.68,1.08.34,2.17a10,10,0,0,1-1.06.79,8.39,8.39,0,0,1-1,.45A2.83,2.83,0,0,1,250,23C249.74,22.23,250.2,21.55,250.35,20.65Z"/><path class="cls-1" d="M118.72,29.37c-.38-.11-1-.12-1.28-.41a1.61,1.61,0,0,0-1.31-.53c-.15,0-.33-.38-.72-.86a2.08,2.08,0,0,0,2.25-.44,14.94,14.94,0,0,0,2.35-2.5,3.07,3.07,0,0,0,.38-2.55c-.77-.17-1.17-1-2.09-.87-.27-.56-.78-.18-1-.08-1,.49-1.86,1.08-2.91,1.71l-.68-.11a5.7,5.7,0,0,0-2.38-3.18,2.74,2.74,0,0,0-2.37-.5c-1.54.81-1.63,2.54-.63,4.82-.2.52-.74.49-1.1.44a7.28,7.28,0,0,0-2.24.34,2.85,2.85,0,0,0-2,1.42c-.12.2-.26.4-.44.67.38.31,0,.76.13,1.23a3.06,3.06,0,0,0,1.94,2,6.55,6.55,0,0,0,4.71.45,4.77,4.77,0,0,1,.07.86c-.09.6-.24,1.19-.33,1.79a1.56,1.56,0,0,0,.6,1.82c.18.11.22.41.31.57l1.28-.11a7.55,7.55,0,0,1,.88-.49c.54-.22.67-.68.85-1.12l.76-2a7.47,7.47,0,0,0,4,2.25,2.72,2.72,0,0,0,2-1l-.82-.77.92,0C120.26,31.38,120.25,31.36,118.72,29.37Z"/><path class="cls-1" d="M125.06,15.79l-1.71,2.74-.29-.15.18,2.11c.32.35.59.65.87.94.27,0,.59-.12.76,0,1.4.89,2.65.26,4-.38-.21.79.62,1.19.57,2s.94,1,1.3,1.62c.29,0,.57-.06.85-.07s.59,0,.91,0c-.05-.17-.09-.28-.12-.38a4.47,4.47,0,0,0,2.19-4.54,4.69,4.69,0,0,0-.41-1c-.16-.38-.53-.72-.37-1.22a7.32,7.32,0,0,0,4.2-.52,3,3,0,0,0,1.51-1.61,2.2,2.2,0,0,0,.09-2.1,4,4,0,0,1-.15-1.4l-1.93-.9a10.06,10.06,0,0,1-1.32.8,11.92,11.92,0,0,1-1.54.4l.39-.51.18-.22-.19-2.29-1.36-1.79-1.47-.51-1.15.41c0,.28,0,.58,0,.92-1,0-.95.91-1.14,1.57a19.15,19.15,0,0,0-.37,2.21,16.83,16.83,0,0,0-3-.69,14.28,14.28,0,0,0-2.93.42c-.38.79-.86,1.5-.35,2.35a3,3,0,0,0,.43.58C124.2,15.05,124.76,15.53,125.06,15.79Z"/><path class="cls-1" d="M148.35,55.86c.65-.12.89-.57.93-1.29l.62.57a5.88,5.88,0,0,0,.78-2.74,3.67,3.67,0,0,0-.66-2.72l.6-1.23,1.48.08.29-.46.43.3a3.35,3.35,0,0,0,1.85-2.7c-.11-.22-.25-.51-.37-.77a4.79,4.79,0,0,0-3.33-.71l-3.11.72-.4.81c-.08-.2-.18-.32-.16-.42a5.56,5.56,0,0,0-.05-1.82c0-1.1-2.23-2.93-3.39-3a1.9,1.9,0,0,0-2,1.34,20.52,20.52,0,0,0-.27,2.24,27.93,27.93,0,0,1-2.76.89c-1.31.29-1.78,1.33-2.59,2a6.91,6.91,0,0,0,.67,1.69,4.83,4.83,0,0,0,1.32.84,5.81,5.81,0,0,1,1,.19,7.25,7.25,0,0,1,1,.5c0,.86-.92,1.35-1.06,2.14s-.18,1.55-.27,2.37l1.59,1.4,1.58-.49c.14-.25.26-.46.39-.71.18,0,.47,0,.57-.06.74-.81,1.71-1.46,1.94-2.63,0-.25.41-.45.71-.77.15.41.23.91.37.93.71.07.22.46.27.7a3.38,3.38,0,0,0,2,2.78Z"/><path class="cls-1" d="M89,47.36c-.29.25-.49.4-.66.58a1.59,1.59,0,0,0-.1,2.31c.32.45.58,1,.94,1.57a3.68,3.68,0,0,0-2.64,1.63c-.85,1.14-.91,3.57,1,4.08a4.76,4.76,0,0,0,3.25-.12c.28-.12.53-.27.84-.42.48.29.48.6.45,1.16a4,4,0,0,0,1.14,3.39l1.23.17c1.72-.14,1.58-1.5,1.86-2.62l.39,0c0-.82.11-1.64.17-2.48a5.23,5.23,0,0,0,2,.53c.78-.11,1.5.12,2.34,0A5.86,5.86,0,0,0,102.38,56a6.32,6.32,0,0,0,.38-1.69A6.68,6.68,0,0,0,101.55,53a11.49,11.49,0,0,0-5-1.49,10.8,10.8,0,0,0-1.65.47l-.11-1.24c0-.07,0-.17,0-.22a9.2,9.2,0,0,0-1.27-1.81,2.37,2.37,0,0,0-2-.79.4.4,0,0,1-.31-.06A2.72,2.72,0,0,0,89,47.36Zm10.81,6.83c-.18.72-.56.7-1,.34Z"/><path class="cls-1" d="M128.25,45.94c.12-1,.22-1.92.29-2.5l-1.1-2.09a2.89,2.89,0,0,0-2.26-.52,4.87,4.87,0,0,0-1.25.68,6.19,6.19,0,0,0,.36,3.77l-4,.06-1,.69c-.54,1.76-.28,2.22,1.89,3.25a2.43,2.43,0,0,1-.74,1.72,3.4,3.4,0,0,0-.47,2.18,1.73,1.73,0,0,0,1.16,1.66l.54-.58.43.44c.51,0,.92-.35,1.2-1.15l.33.34,1.92-2.17c.92,1,.88,2.54,2.26,3l1.61.16,1.23-1.41-.47-.24a2.55,2.55,0,0,0,0-2.59,1.5,1.5,0,0,1,.14-1.42l1.24.46,2.18-.75.51-1.59a5.48,5.48,0,0,0-.56-1c-.4-.47-.79-1-1.62-.75-.11,0-.3,0-.42-.12a2.06,2.06,0,0,0-1.56-.15Z"/><path class="cls-1" d="M103.21,62.49l2.44-1.64a13,13,0,0,1,.18,2.57,3.32,3.32,0,0,0,.59,2.06l.32-.63.58.41-.36.36c.07.06.13.16.18.15a2.25,2.25,0,0,0,1.88-1,13.88,13.88,0,0,1,1.53-2.3c.54.23,1.16.74,1.67.65.69-.13,1.13.62,2,.07a3.39,3.39,0,0,0,.7-4.56,3.08,3.08,0,0,0-2.73-1.68c-.82,0-1.64,0-2.45,0a3.19,3.19,0,0,1-.7-.2,23.6,23.6,0,0,1,.26-2.39,3.85,3.85,0,0,0-2.24-4,3,3,0,0,0-1.09-.1,8.28,8.28,0,0,0-.86.06c-.85.43-.67,1.35-1.06,2,.18.77.3,1.53.54,2.26a18.68,18.68,0,0,0,.84,1.9c-1.35.77-2.83,1.52-4.18,2.42a1.65,1.65,0,0,0-.94,1.73c0,.2-.16.45-.24.66.23.9.59,1.65,1.8,1.66l.14-.35Z"/><path class="cls-1" d="M99.47,43.45l.22.35.73-.31c-.39-.59-.68-.15-1,0Z"/><path class="cls-2" d="M146.89,29.34c.87.41,1.85,0,2.81-.22a16.76,16.76,0,0,0,3.15-.81c.5-.23,1.24,0,2.05.06L154,30.56a3.48,3.48,0,0,0-.17.33,10,10,0,0,1-.63,2.08c-.34.6-.73,1.17-1,1.8a9.82,9.82,0,0,0-1.24,2.49c-.23.4-.45.82-.7,1.2-.4.62-.85,1.2-1.24,1.82a22.79,22.79,0,0,1-2.66,3.07c-.84.92-1.75,1.79-2.71,2.75.09.38.21.84.31,1.28a3.79,3.79,0,0,0,2.31-.64,11.84,11.84,0,0,0,1.36-.9.34.34,0,0,0,.09-.08,3.5,3.5,0,0,1,.49-1.11c.27-.27.8-.31,1.1-.57a15.1,15.1,0,0,0,1.33-1.4c-.38-.88.58-1.3,1-1.84a12.73,12.73,0,0,0,2.17-3.76,18.27,18.27,0,0,1,1.39-3,25.85,25.85,0,0,0,1.53-4,13.21,13.21,0,0,1,.87-1.87,1.22,1.22,0,0,1,1.08-.54c1.54,0,3.08-.12,4.62-.25.85-.06,1.69-.23,2.68-.38-.11.28-.12.46-.22.54-.59.53-1.25,1-1.8,1.55s-.85,1.16-1.36,1.67a12.63,12.63,0,0,0-2.93,3.94,7.68,7.68,0,0,0-.55,1.59c-.11.48-.9.79-.41,1.4-.8,1.44-.77,3.06-1.21,4.58a14.9,14.9,0,0,0-.35,2.37,1.69,1.69,0,0,0,1.49,1c.79-1,2.54-.91,3-2.21a4.28,4.28,0,0,0,1-.43c1-.84,1.91-1.7,2.84-2.57a2,2,0,0,0,.27-.42c.81-1.4,1.66-2.78,2.42-4.2a5.12,5.12,0,0,0,.8-2.89,1.1,1.1,0,0,0,.27-1.4,9.77,9.77,0,0,0,.41-1.17,13.85,13.85,0,0,0,.2-1.42,6.94,6.94,0,0,1,.27-1.66,6,6,0,0,1,1-1.28c.19.57.58.74,1.24.67a18.58,18.58,0,0,1,2.11,0c.4,0,.8,0,1.28-.05s1.24.05,1.9.1,1.41.11,2.11.2c1,.12,2.08,1.4,3.12.74.09-.42.19-.89.31-1.49-1.25-.62-2.66-1.68-4.3-1.63a3,3,0,0,0-1.44-.27c-1.49.12-3-.06-4.48,0a13.46,13.46,0,0,1-2.91-.36c0-.75-.54-1.48-.19-2.3-.6-1-.05-2.11-.52-3.13a14.31,14.31,0,0,1-.57-2.45,6,6,0,0,0-1.82-3.2,4.92,4.92,0,0,1-.64-.93l-.61-.13c-.05-.06-.13-.13-.13-.2,0-.89-.6-1.37-1.25-1.87s-1.61-.34-2.17-1c-.06-.07-.39.07-.67.13a2,2,0,0,0-1.8-.77c-.67.19-1.15-.48-1.71-.11l-.77,1.16a16.35,16.35,0,0,0,.6,1.79c.28.64.45,1.37.78,2s.54,1.22.82,1.83.58,1.22.89,1.83a8.42,8.42,0,0,0,1,1.86c.41.46.83.92,1.26,1.37s.43,1.32,1.31,1.41c0,.83.72,1.2,1.21,1.72l1.43,1.54c-.82.48-1.87-.44-2.54.48-.69.14-1.45-.63-2.09.06h-2a10.43,10.43,0,0,0-3.13-2.58c0-.09-.08-.28-.13-.48a1.06,1.06,0,0,0-.21-.11c-.3-.1-.6,0-.86-.39s-1.13-.6-1.71-.89-1.61-.33-2-1.11c-.15-.29-.7.08-.73-.4-1.25-.28-2.2-1.22-3.56-1.33-.55-.05-1-.52-1.59-.71-.78-.28-1.58-.51-2.38-.73-1-.28-2.08-.57-3.14-.79a11.67,11.67,0,0,0-2.9-.41,9.51,9.51,0,0,1-1.8-.34c-1.18-.19-2.36-.35-3.54-.54-.39-.06-.74-.14-1.06.2-.07.07-.38-.08-.6-.13l-.67.66a1.74,1.74,0,0,0,1.15,1.47c1.55.19,3,.78,4.6.69a5.34,5.34,0,0,0,2.58.61,23.15,23.15,0,0,1,3.69.82,15.48,15.48,0,0,0,2.12.25c.37.74,1.24.62,2.14.45a2.53,2.53,0,0,0,2.34,1.46l2.7,1.4.57-.21c0,.84,1.06.48,1.42,1.17.25.47,1.25.55,1.7,1s1.48.39,1.45,1.33l-3.86.5c-1.23.17-2.4.59-3.64.77s-2.47.54-3.74.83l-.23.49c-1.31-.53-2.24.51-3.44.53a6,6,0,0,0-3.1-1.3,8,8,0,0,1-2.07-.59,2.68,2.68,0,0,0-1.33-.15,5.59,5.59,0,0,1-1.85-.32c-.2-.05-.39-.32-.54-.29-1.18.24-2.24-.39-3.4-.32a4,4,0,0,1-2.13-.18,6.49,6.49,0,0,0-2.88.31l-.59-.62-3.94.34a1.71,1.71,0,0,1-.39,0c-2-.38-3.91.46-5.94.55L112,27.2c.25.74.75.89,1.48,1,1,.17,2-.46,3,0,.55-.6,1.14,0,1.71-.09A7.76,7.76,0,0,1,119.5,28c.34,0,.66.3,1-.14l.81.36.65-.52c.51.75,1.29.25,2,.32,1.41.15,2.83.19,4.24.25.49,0,1,0,1.58,0l1.15.24a12.76,12.76,0,0,1,1.48.36c.48.16.92.24,1.27-.09a13.31,13.31,0,0,1,1.82.66c.52.27,1.25-.46,1.62.39a1.51,1.51,0,0,1-1.22.69,9.4,9.4,0,0,0-3.49,1.19,2.56,2.56,0,0,1-1.45.56,2.84,2.84,0,0,0-1.53.35c-1.24.42-2.44,1-3.66,1.4s-2.1.85-3.14,1.31c-.52.22-1.14.25-1.69.43-.19.06-.32.29-.42.39a6.9,6.9,0,0,0-2.08.82,2.67,2.67,0,0,1-3.21.14,16.52,16.52,0,0,0-4-1.12c-1-.25-2.07-.14-3-.42s-1.7,0-2.55-.23a9.07,9.07,0,0,0-2.56-.13,6.82,6.82,0,0,0-1.29.31,2.09,2.09,0,0,0-2.31-.18,2,2,0,0,1-.79.08c-1.24,0-2.48.08-3.9.14l-.45.95-.44-.58c-.45.53-1.48.44-1.46,1.5l.49.53.23-.25.91.55a6.47,6.47,0,0,1,3-.3,6.42,6.42,0,0,0,2.25-.15,2.07,2.07,0,0,0,1.39-1c0,.2.05.4.09.69a5,5,0,0,0,1.31.31,6.75,6.75,0,0,1,1.21-.09c.42.07.95.31,1.38-.28.65.83,1.62.21,2.45.47a12.25,12.25,0,0,0,2.43.44c.84.09,1.69.1,2.66.15l1,.72-.88.69.19.15s-.09.13-.14.14-.4,0-.51,0c-1.25.92-2.87,1.15-4.15,2A3.64,3.64,0,0,1,106,43c-.16,0-.27.37-.42.58a3.59,3.59,0,0,0-2.06.84A24.3,24.3,0,0,0,98,48.33c-1.53.09-2.57,1.47-4.12,2l-.27,1.13c.23.22.46.42.75.68a18.39,18.39,0,0,0,4-1.66c.1-.17.27-.48.46-.83l.34.65.78-1c.54-.13,1.21.06,1.55-.65.11-.22.66-.24,1-.39a25.38,25.38,0,0,1,3.41-1.73c.68-.19,1-1,1.85-1,.06,0,.13-.32.2-.51l.48.05s.1,0,.12,0c1-1.06,2.47-1.39,3.6-2.24a6,6,0,0,0,.65-.68c.34.09.54.18.41.59-.55,1.73-1,3.47-1.58,5.2a8.59,8.59,0,0,1-1.14,2.79c-.54.67-.77,1.69-1.81,2l-3.39,3.85c.49.33.82.79,1.36.22.1-.11.36-.12.55-.12a4.45,4.45,0,0,0,2.68-1.43,8.87,8.87,0,0,0,1.11-1,4.8,4.8,0,0,0,.48-.93l.33,0c2.06-2.48,2.4-5.49,3.46-8.26,0-.09-.08-.22,0-.09a6.44,6.44,0,0,0,.5-2,2.87,2.87,0,0,1,.51-2,1.14,1.14,0,0,0,.09-.42,7.57,7.57,0,0,0,2.3-1.23l1.77-.49-.32-.28c1-.56,2.53-.1,3.18-1.36A33.78,33.78,0,0,0,126.94,36c1.5-.6,3-1.18,4.6-1.68a1.81,1.81,0,0,0,.62-.35,1,1,0,0,1,1.24-.32,1.05,1.05,0,0,0,.7-.1c1-.36,1.88-.76,2.82-1.14a1,1,0,0,1,1.17.06,8.18,8.18,0,0,1-1.4,2.44c-.46.67-1.13,1.2-1.64,1.83a8.24,8.24,0,0,0-.75,1.41c-1.24.2-1.6,1.39-2.11,2.47L132,40.5a16.15,16.15,0,0,1-1.49,1.39,12.16,12.16,0,0,0-1.31,1.27c-.74.76-1.82,1.09-2.46,1.91,0,0,0,.09-.09.1-1.26.22-1.66,1.1-1.75,2.28l.39.23c.14.09.27.2.46.34A3.92,3.92,0,0,0,129,46.14a1.74,1.74,0,0,0,1.59-.67,4.39,4.39,0,0,1,1.7-1.61c.07,0,.12-.12.17-.19a21.41,21.41,0,0,1,1.94-2.22,2.83,2.83,0,0,0,.38-.93l.8-.24c.23-.34.42-.69.67-1a31.2,31.2,0,0,0,2.51-3.07c.35-.56.72-1.13,1.09-1.68a1.56,1.56,0,0,0,.29-1.37c.43-.08.79-.16.81-.7a5.63,5.63,0,0,1,.35-1.34c.38,0,.74.08.87,0,.94-.86,2.23-.57,3.28-1C145.91,29.86,146.33,29.62,146.89,29.34Z"/><path class="cls-3" d="M92,54.19c.08,0,.2,0,.23.06.57,1,1.59,1.15,2.7,1.12l.35-.56,1-.47c0-.67,0-1.18,0-1.7l-.42-.7-1.46-1.11a3.63,3.63,0,0,0-2.14,1.29c-.27.42.39,1-.4,1.09Z"/><path class="cls-3" d="M142.49,50.81a10.36,10.36,0,0,0,1.25.1c.4,0,.79-.15,1.2-.17.64-.35,1.44-.62,1.62-1.43a7.84,7.84,0,0,0,.31-2.13,1.75,1.75,0,0,0-1.1-1.38,2.93,2.93,0,0,0-2.39-.23,3.12,3.12,0,0,0-2.17,3,2.51,2.51,0,0,0,.42,1.33A5.3,5.3,0,0,0,142.49,50.81Z"/><path class="cls-3" d="M133,18c.09-.61.16-1.1.23-1.59-.76-1-1-2.56-3-2.72L129,14l-.71.88a10.23,10.23,0,0,1,0,1.92,1.88,1.88,0,0,0,1.24,2.35,2.58,2.58,0,0,1,.5.34C131.54,19.89,132.2,18.72,133,18Z"/><path class="cls-3" d="M113.61,31.08l1.45-.91c.22-.48.36-.79.53-1.14s.14-.79.24-1.36c-.16-.2-.44-.52-.88-1a5.4,5.4,0,0,0-3.42-.6l-.67.63c-.25.39.17.63-.13,1s-.13.85,0,1.27a3,3,0,0,0,1.1,1.73.83.83,0,0,0,1.06.17C113,30.76,113.26,31,113.61,31.08Z"/><path class="cls-3" d="M122.82,47.66l.3.51-.51.52a2.38,2.38,0,0,0,1.58,2.42l.51-.29.53.33,1.79-.57.88-2.1-.39-1.08-1-.77.09-.12-1.8-.48-1.18.41Z"/><path class="cls-3" d="M105.51,60.74h1.16l1.2-.34c1.23-.7.28-2.12,1.13-3a4.19,4.19,0,0,0-2.16-1.63,1.49,1.49,0,0,0-1.1.16,6.18,6.18,0,0,0-1,.86c-.18.86-.3,1.43-.46,2.25l1,1.79Z"/><path class="cls-1" d="M99.44,43.5c0-.12,0-.25.06-.44l1.16-.34.2.33c.5-.32.07-.7.11-1s.38-.68.6-1l-.65-.22a3.7,3.7,0,0,0-.1-1c-.29-.78-1.07-1.09-1.79-1.43-.22-.1-.5-.11-.73-.21a2.43,2.43,0,0,0-1.94-.25c-.17.07-.4,0-.6-.06,0-.7.66-.85,1-1.22a12.05,12.05,0,0,0,1.76-2.24A5.75,5.75,0,0,0,99.2,32a1.49,1.49,0,0,0-1-1.44,4.76,4.76,0,0,1-.61-.45c-2.15-.08-2.8,1.67-3.84,2.77L91.7,31.58c-.11-.06-.25-.07-.37-.12-.37-.17-.73-.5-1.11-.51a18.72,18.72,0,0,0-2.31.25,4.29,4.29,0,0,1-.2.63c-.7,1.23-.06,2.15.73,3.06a6.55,6.55,0,0,1,.58.82l-3.18,1.87-.52,1.64L86.42,41l.63.21.33-.5.11,1.24,2.64-.06c0,.8-.09,1.66-.14,2.64l1.19,1.22,1.18.08,2.31-1.85c.18-.53.38-1.1.6-1.76,1.27.14,2,1.35,3.29,1.53l.91-.26Z"/><path class="cls-3" d="M91.77,35.35c-.24.63-1.28.84-1,1.76.18.7,0,1.47.56,2.1a2.73,2.73,0,0,0,1.94.89L94.63,39l-.1-1.26c.77-.52.21-1.24,0-1.82S93.45,35.11,91.77,35.35Z"/><path class="cls-1" d="M517.9,24.84c.37-.19,1-.31,1.25-.68a1.65,1.65,0,0,1,1.25-.83c.17,0,.28-.49.6-1.08a2.11,2.11,0,0,1-2.42-.08,16.46,16.46,0,0,1-2.9-2.33,3.62,3.62,0,0,1-.86-2.75c.76-.32,1-1.34,2-1.34.17-.67.77-.34,1-.26,1.08.35,2.12.84,3.33,1.35l.68-.26c.33-1.49.66-2.92,1.89-3.94a2.73,2.73,0,0,1,2.36-1c1.74.61,2.15,2.5,1.54,5.2.3.54.85.4,1.22.28a7.67,7.67,0,0,1,2.39,0,2.94,2.94,0,0,1,2.33,1.19l.59.67c-.35.41.13.83.08,1.38a3.38,3.38,0,0,1-1.64,2.55,6.57,6.57,0,0,1-4.8,1.36,5.05,5.05,0,0,0,.09,1c.2.65.47,1.28.67,1.92a1.84,1.84,0,0,1-.29,2.13c-.16.15-.15.48-.21.68l-1.35.11c-.4-.15-.69-.3-1-.38-.6-.14-.83-.62-1.09-1.08-.35-.62-.7-1.24-1.15-2.07a7.94,7.94,0,0,1-3.78,3.23,2.73,2.73,0,0,1-2.26-.76l.7-1-.94.21C516.67,27.35,516.68,27.32,517.9,24.84Z"/><path class="cls-1" d="M508.82,11l2.28,2.72.27-.22.2,2.36-.72,1.2c-.28,0-.64,0-.79.13-1.29,1.24-2.7.77-4.27.33.36.83-.43,1.42-.23,2.27s-.79,1.32-1.05,2c-.31,0-.6,0-.89.08s-.62.13-.95.19c0-.19,0-.32.06-.44a5,5,0,0,1-3.1-4.61,4.94,4.94,0,0,1,.23-1.17c.09-.46.42-.9.16-1.43a7.23,7.23,0,0,1-4.45.2,3.27,3.27,0,0,1-1.87-1.49,2.67,2.67,0,0,1-.48-2.31,4.42,4.42,0,0,0-.1-1.58L495,7.92a10.87,10.87,0,0,0,1.51.64,11.58,11.58,0,0,0,1.68.15l-.5-.49-.23-.2-.22-2.57c.25-.52.65-1.36,1.07-2.22l1.43-.84,1.27.24c.06.31.13.63.2,1,1.06-.18,1.16.83,1.47,1.53a23.45,23.45,0,0,1,.79,2.37,17.6,17.6,0,0,1,3-1.32,14.81,14.81,0,0,1,3.13-.08c.54.8,1.17,1.51.79,2.53a3,3,0,0,1-.34.72C509.58,10,509.08,10.66,508.82,11Z"/><path class="cls-1" d="M492.07,59.57c-.69,0-1-.46-1.2-1.24l-.54.74A7,7,0,0,1,489,56.18a4.31,4.31,0,0,1,.19-3.13l-.86-1.24-1.51.36-.38-.45c-.14.13-.27.27-.4.41a3.73,3.73,0,0,1-2.42-2.64c.07-.27.16-.62.25-.92a4.8,4.8,0,0,1,3.32-1.4l3.35.22.56.82c.05-.23.14-.39.09-.49a7,7,0,0,1-.28-2c-.2-1.21,1.77-3.64,3-4a2,2,0,0,1,2.34,1.11c.29.75.45,1.55.69,2.42a24.94,24.94,0,0,0,3,.48c1.4.08,2.08,1.14,3.06,1.78a8,8,0,0,1-.39,2c-.22.46-.77.76-1.21,1.17a6,6,0,0,0-1,.39,7.73,7.73,0,0,0-1,.74c.13,1,1.2,1.32,1.49,2.17s.48,1.68.72,2.57l-1.39,1.83-1.73-.24-.54-.72c-.19,0-.48.14-.59,0-.92-.76-2.05-1.29-2.5-2.54-.1-.27-.51-.43-.88-.72-.08.48-.07,1-.21,1.09-.73.21-.14.55-.15.82a4.07,4.07,0,0,1-.07,1.05A3.63,3.63,0,0,1,492.07,59.57Z"/><path class="cls-1" d="M540.49,36.89l-.14-.47-1.26-.16-.16.4c-.57-.26-.19-.76-.3-1.13s-.52-.68-.82-1l.64-.37a4.51,4.51,0,0,1-.08-1.11c.16-.91.91-1.4,1.59-1.9.21-.16.5-.22.72-.37a2.42,2.42,0,0,1,2-.63c.19,0,.41-.12.61-.18-.16-.77-.83-.82-1.27-1.17a12.94,12.94,0,0,1-2.23-2.14,6.46,6.46,0,0,1-1.12-2.44,1.66,1.66,0,0,1,.75-1.77,4.73,4.73,0,0,0,.55-.61c2.21-.48,3.21,1.33,4.49,2.35.61-.6,1.25-1.23,1.9-1.85.09-.1.24-.12.35-.2.36-.26.67-.69,1.06-.77a17.57,17.57,0,0,1,2.44-.15,4.33,4.33,0,0,0,.33.65c1,1.24.45,2.37-.2,3.52a9.4,9.4,0,0,0-.44,1l3.64,1.48c.32.66.58,1.19.83,1.72-.26.68-.51,1.35-.81,2.12l-.62.35-.43-.49.11,1.39-2.74.42c.19.88.39,1.82.63,2.89l-1,1.57-1.21.3-2.73-1.61c-.29-.56-.6-1.15-.95-1.84-1.29.39-1.81,1.86-3.13,2.3l-1-.12Z"/><path class="cls-1" d="M452.87,52.12c.27-.52,1.17-.65.92-1.49l1.34-1.15c0-.63-.52-.57-.82-.57a4.09,4.09,0,0,1-2.16-.4,1.94,1.94,0,0,0-.36-.15A4.09,4.09,0,0,1,450.7,48a3.47,3.47,0,0,1-.9-.93,6.78,6.78,0,0,1-.53-.93c.26-.57.48-1.08.75-1.69a5.94,5.94,0,0,1,4.84-.69c.09-1,.18-2.05.26-3l1.25-1,2.22.06c.33.49.9.74.76,1.6-.08.48.52,1.08.83,1.66l4.24-.36c0,.24-.06.32-.1.52l1.35.23c.24.46.49,1,.78,1.54a3.28,3.28,0,0,1-2.29,3.26c-.61.27-1.35.26-2,.58a1.25,1.25,0,0,0-.25.2l1.92,3c-.11.82-.23,1.73-.36,2.76l-1.51.26c-1.47-.68-2.17-2-3-3.28-1.19,1-2.27,1.84-3.34,2.69l-.79-.29-.51.7-1-1.18-.38.14c0-.16-.11-.31-.08-.42A1.86,1.86,0,0,0,452.87,52.12Z"/><path class="cls-1" d="M511.08,44.91c-.32-1.13-.58-2.08-.76-2.72l.75-2.51a3,3,0,0,1,2.24-1,5.08,5.08,0,0,1,1.43.53,7.34,7.34,0,0,1,.32,4.23l4.14-.67,1.18.57c.89,1.85.7,2.4-1.36,3.94a2.81,2.81,0,0,0,1.09,1.76,4,4,0,0,1,.88,2.33,2,2,0,0,1-.88,2l-.67-.54c-.15.22-.26.4-.37.57-.52.13-1-.22-1.46-1.05l-.28.43-2.39-2c-.77,1.26-.44,3-1.78,3.76l-1.64.48L510,53.7l.43-.36a3,3,0,0,1-.52-2.84,1.77,1.77,0,0,0-.41-1.54l-1.2.73-2.39-.42c-.31-.62-.53-1.08-.83-1.67a6.63,6.63,0,0,1,.4-1.19c.33-.59.62-1.29,1.55-1.12.12,0,.29-.12.41-.21a2,2,0,0,1,1.58-.45C509.66,44.7,510.31,44.81,511.08,44.91Z"/><path class="cls-1" d="M540.09,58.56l-2.83-1.36a14.93,14.93,0,0,0,.29,2.88,4,4,0,0,1-.24,2.38c-.18-.25-.28-.41-.45-.64l-.52.56.44.33c-.06.08-.11.2-.16.2a2.26,2.26,0,0,1-2.14-.81,16.18,16.18,0,0,0-2-2.26c-.52.35-1.07,1-1.61,1-.74,0-1.06.9-2,.43a3.93,3.93,0,0,1-1.57-4.9A3.3,3.3,0,0,1,529.8,54c.85-.15,1.69-.31,2.53-.5a3.4,3.4,0,0,0,.68-.35c-.23-.87-.39-1.76-.7-2.59a4.45,4.45,0,0,1,1.57-4.86,3.15,3.15,0,0,1,1.12-.31,6.69,6.69,0,0,1,.9-.08c1,.31.94,1.36,1.47,2,0,.89,0,1.75-.15,2.6s-.35,1.56-.51,2.25c1.54.6,3.2,1.15,4.77,1.91a1.83,1.83,0,0,1,1.29,1.74c0,.22.25.46.38.68-.08,1-.31,1.93-1.56,2.16-.07-.11-.15-.25-.21-.36Z"/><path class="cls-1" d="M540.45,36.84c0,.12-.09.25-.16.43l-.82-.21c.3-.73.68-.29,1-.17Z"/><path class="cls-2" d="M488.69,30c-.82.62-1.91.35-2.95.28a17.19,17.19,0,0,1-3.41-.32c-.56-.16-1.29.25-2.12.45l1.38,2.25a2.52,2.52,0,0,1,.24.33,11.51,11.51,0,0,0,1,2.18c.46.6,1,1.15,1.39,1.8A11.15,11.15,0,0,1,486,39.5c.31.4.61.81.95,1.2.53.6,1.1,1.16,1.62,1.77a24.8,24.8,0,0,0,3.32,2.91c1,.86,2.15,1.64,3.32,2.53,0,.44-.06,1-.09,1.47a3.8,3.8,0,0,1-2.5-.27,12,12,0,0,1-1.58-.75.3.3,0,0,1-.11-.07,4.19,4.19,0,0,0-.72-1.14c-.32-.25-.88-.19-1.24-.42a17.53,17.53,0,0,1-1.64-1.3c.23-1-.84-1.33-1.42-1.84A14.46,14.46,0,0,1,483,39.83a20.32,20.32,0,0,0-2-3,31.79,31.79,0,0,1-2.32-4.12,15.12,15.12,0,0,0-1.24-1.9,1.25,1.25,0,0,0-1.22-.4c-1.6.25-3.22.43-4.84.58-.89.08-1.79,0-2.84.07.16.29.2.48.32.56.72.47,1.48.86,2.16,1.38s1.09,1.13,1.72,1.58a14.2,14.2,0,0,1,3.76,3.81,9.77,9.77,0,0,1,.86,1.67c.2.51,1.08.7.69,1.47,1.09,1.44,1.36,3.24,2.1,4.83a18,18,0,0,1,.8,2.56c-.26.64-.53,1.21-1.37,1.37-1-.91-2.79-.53-3.48-1.89a4,4,0,0,1-1.09-.29c-1.16-.75-2.3-1.53-3.43-2.32a2,2,0,0,1-.35-.41c-1.1-1.39-2.24-2.76-3.28-4.19a6,6,0,0,1-1.37-3,1.3,1.3,0,0,1-.53-1.51,10.51,10.51,0,0,1-.65-1.21c-.2-.5-.32-1-.47-1.53a8.15,8.15,0,0,0-.58-1.79,7.09,7.09,0,0,0-1.22-1.23c-.1.66-.47.92-1.16,1a18.42,18.42,0,0,0-2.19.43c-.41.08-.83.12-1.34.19s-1.27.28-1.94.46-1.44.39-2.15.61c-1,.31-2,.82-3.23.29-.17-.46-.35-1-.59-1.59a8.39,8.39,0,0,1,4.28-1.49,2.93,2.93,0,0,1,1.45-.56c1.56-.14,3.08-.62,4.64-.84a13.89,13.89,0,0,0,2.94-.93c-.09-.85.29-1.74-.23-2.58.45-1.18-.33-2.34,0-3.56a16.3,16.3,0,0,0,.13-2.81,7,7,0,0,1,1.3-3.87,4.8,4.8,0,0,0,.49-1.15l.61-.25c0-.08.11-.17.1-.24a2.62,2.62,0,0,1,.95-2.3c.58-.66,1.6-.68,2.07-1.5.05-.08.42,0,.71,0,.38-.6,1-1.26,1.73-1.18s1.1-.75,1.75-.44l1,1.13a18,18,0,0,1-.29,2.09c-.17.77-.21,1.6-.43,2.39s-.34,1.45-.52,2.17-.37,1.46-.58,2.18a10.38,10.38,0,0,1-.72,2.25c-.34.58-.7,1.17-1.05,1.75s-.21,1.53-1.1,1.79c.16.92-.53,1.46-.94,2.13s-.78,1.29-1.2,2c.94.38,1.86-.82,2.72.07.75,0,1.39-1,2.18-.33l2.08-.35a11.12,11.12,0,0,1,2.77-3.43c0-.1,0-.33,0-.55a1.06,1.06,0,0,1,.2-.17c.29-.16.61-.15.82-.58.31-.63,1.06-.87,1.6-1.3s1.61-.66,1.89-1.6c.1-.34.74,0,.69-.57,1.24-.54,2.05-1.76,3.43-2.14.57-.15,1-.76,1.53-1.08.75-.45,1.54-.85,2.33-1.23,1-.51,2.05-1,3.11-1.46a11.51,11.51,0,0,1,2.93-1,10,10,0,0,0,1.8-.7c1.19-.43,2.39-.83,3.57-1.26.4-.14.75-.28,1.14,0,.08.06.37-.16.59-.25l.82.6a2,2,0,0,1-.92,1.84c-1.57.49-3,1.41-4.64,1.61a5.42,5.42,0,0,1-2.56,1.15A23.44,23.44,0,0,0,492,17.24a13.64,13.64,0,0,1-2.14.67c-.26.89-1.18.92-2.15.9a2.67,2.67,0,0,1-2.15,2l-2.54,2-.63-.13c.15.92-1,.72-1.26,1.55-.17.57-1.19.84-1.57,1.42s-1.46.71-1.25,1.74l4.08-.16c1.31,0,2.6.21,3.92.17s2.66.15,4,.24l.33.49c1.26-.83,2.42.15,3.67,0a6.16,6.16,0,0,1,3-2,8.26,8.26,0,0,0,2-1,2.68,2.68,0,0,1,1.35-.41,5.5,5.5,0,0,0,1.86-.7c.2-.08.35-.43.51-.42,1.27,0,2.25-.84,3.46-1a4,4,0,0,0,2.18-.59,6.42,6.42,0,0,1,3-.19l.5-.79,4.14-.36a1.37,1.37,0,0,0,.41,0c2-.8,4.15-.22,6.27-.5l1.34,1.05c-.12.87-.61,1.12-1.34,1.39-1,.37-2.2-.13-3.14.58-.68-.56-1.19.18-1.8.22a8.17,8.17,0,0,0-1.31,0c-.35.1-.63.46-1,0L515,24c-.25-.14-.47-.28-.76-.46-.4.93-1.3.51-2,.72-1.43.43-2.89.73-4.35,1.06-.5.11-1,.14-1.64.23l-1.15.48a13,13,0,0,0-1.47.67c-.47.26-.91.43-1.33.13a14.05,14.05,0,0,0-1.77,1.07c-.48.4-1.38-.28-1.6.73a1.54,1.54,0,0,0,1.39.54,9.5,9.5,0,0,1,3.83.66,2.58,2.58,0,0,0,1.61.36,2.86,2.86,0,0,1,1.65.1c1.37.24,2.71.62,4.06.88,1.19.22,2.33.54,3.49.86a18,18,0,0,0,1.83.16c.21,0,.39.27.51.36a6.94,6.94,0,0,1,2.31.52,2.65,2.65,0,0,0,3.34-.44,17.92,17.92,0,0,1,4-2c1-.45,2.12-.53,3.07-1s1.75-.31,2.59-.73a8.78,8.78,0,0,1,2.64-.61,6.39,6.39,0,0,1,1.39.1c.52-.81,1.46-.8,2.36-.63a1.9,1.9,0,0,0,.83-.06c1.29-.23,2.59-.37,4.07-.56l.65,1c.17-.37.23-.5.34-.72.56.51,1.62.22,1.79,1.4l-.4.67-.3-.23-.83.77a6.39,6.39,0,0,0-3.14.22,6.63,6.63,0,0,1-2.37.25,2.2,2.2,0,0,1-1.63-.86c0,.23,0,.45,0,.78a5.22,5.22,0,0,1-1.3.58,5.74,5.74,0,0,0-1.28.13c-.42.15-.92.52-1.47-.06-.53,1-1.64.54-2.45,1a13.61,13.61,0,0,1-2.45.93c-.85.25-1.73.42-2.73.66l-.88,1,1,.6-.16.2c.05,0,.11.13.16.13s.41-.11.54,0c1.47.79,3.19.75,4.67,1.44a3.76,3.76,0,0,0,1.83.69c.17,0,.36.36.54.56a3.64,3.64,0,0,1,2.29.55,25,25,0,0,1,6.4,3.28c1.6-.19,2.94,1.14,4.65,1.47l.49,1.2c-.21.28-.41.55-.65.89a19.15,19.15,0,0,1-4.45-1.1c-.13-.18-.37-.48-.63-.84l-.23.78-1-1c-.59,0-1.24.28-1.73-.44-.15-.22-.72-.15-1.09-.25a24.48,24.48,0,0,0-3.85-1.28c-.74-.09-1.24-.9-2.1-.77-.07,0-.19-.32-.3-.52l-.49.14s-.1,0-.13,0c-1.21-1-2.82-1.08-4.14-1.81a5.41,5.41,0,0,1-.8-.63c-.34.16-.53.3-.32.73.89,1.81,1.71,3.64,2.6,5.45a9.63,9.63,0,0,0,1.69,2.87c.69.64,1.11,1.73,2.24,1.86l4.23,3.62c-.45.46-.7,1-1.37.5-.12-.1-.39-.06-.59,0-1.21.18-2.1-.52-3-1.08a9.4,9.4,0,0,1-1.33-.9,4.61,4.61,0,0,1-.68-.94l-.34.08c-2.59-2.35-3.5-5.62-5.11-8.48,0-.09,0-.26,0-.11a7.68,7.68,0,0,1-.89-2.08,3.33,3.33,0,0,0-.88-2.07,1.46,1.46,0,0,1-.18-.44,7.73,7.73,0,0,1-2.61-.95l-1.92-.2.28-.37c-1.16-.44-2.64.36-3.55-.92a34.25,34.25,0,0,1-4-.65c-1.68-.39-3.38-.75-5.08-1a1.76,1.76,0,0,1-.71-.28,1,1,0,0,0-1.34-.12,1.06,1.06,0,0,1-.75,0c-1.05-.23-2.09-.49-3.14-.73a1,1,0,0,0-1.19.27,8.79,8.79,0,0,0,1.9,2.44c.59.65,1.39,1.11,2,1.72a11.45,11.45,0,0,1,1,1.42c1.31,0,1.91,1.24,2.63,2.33l.17-.17A16.36,16.36,0,0,0,508,40.85,12.47,12.47,0,0,1,509.58,42c.91.7,2.09.86,2.91,1.66,0,0,.06.09.1.09,1.36,0,1.93.91,2.24,2.19,0,0-.21.18-.36.33s-.24.27-.42.47a4.05,4.05,0,0,1-3.72-1.48,1.77,1.77,0,0,1-1.78-.45,4.49,4.49,0,0,0-2.05-1.46c-.08,0-.15-.12-.21-.18a24.23,24.23,0,0,0-2.43-2.1,3.47,3.47,0,0,1-.56-1l-.88-.11c-.3-.34-.56-.69-.87-1a32.66,32.66,0,0,1-3.18-2.92c-.46-.56-.95-1.12-1.43-1.66a1.79,1.79,0,0,1-.55-1.46c-.46,0-.85,0-1-.62a7.41,7.41,0,0,0-.61-1.42c-.4.06-.76.23-.92.12-1.12-.77-2.41-.22-3.58-.53C489.8,30.41,489.32,30.22,488.69,30Z"/><path class="cls-3" d="M497.21,52.91a7.93,7.93,0,0,1-1.27.34c-.42,0-.84,0-1.28,0-.73-.27-1.6-.42-1.94-1.28a9.9,9.9,0,0,1-.72-2.3,2,2,0,0,1,.9-1.73,2.9,2.9,0,0,1,2.42-.69,3.44,3.44,0,0,1,2.8,2.88,3,3,0,0,1-.18,1.55A5.79,5.79,0,0,1,497.21,52.91Z"/><path class="cls-3" d="M501,14.9c-.2-.65-.36-1.19-.52-1.72.58-1.29.59-3,2.55-3.55l1.46.17.89.84a12.26,12.26,0,0,0,.33,2.12,2.16,2.16,0,0,1-.85,2.83,2.55,2.55,0,0,0-.46.47C502.86,16.74,502,15.57,501,14.9Z"/><path class="cls-3" d="M523.51,25.79l-1.67-.74c-.32-.49-.52-.81-.76-1.16s-.29-.85-.5-1.46c.13-.25.36-.66.72-1.31a5.43,5.43,0,0,1,3.43-1.29l.82.57c.32.38-.07.72.32,1.07s.28.92.27,1.39a3.43,3.43,0,0,1-.82,2.12c-.24.29-.55.61-1.07.39C524.12,25.31,523.85,25.59,523.51,25.79Z"/><path class="cls-3" d="M517,45.81c-.08.22-.15.43-.22.61l.62.49a2.71,2.71,0,0,1-1.19,3l-.58-.23-.49.46-2-.3-1.3-2.15c.08-.49.14-.88.2-1.27.29-.34.57-.69.85-1l-.12-.11,1.78-.86,1.29.24Z"/><path class="cls-3" d="M537.38,57.06l-1.2.23-1.31-.16c-1.4-.55-.67-2.29-1.72-3.13a4.46,4.46,0,0,1,1.94-2.2,1.46,1.46,0,0,1,1.16,0,5.72,5.72,0,0,1,1.2.76l.89,2.4c-.17.56-.42,1.35-.66,2.15Z"/><path class="cls-3" d="M546,27.71c.36.65,1.48.69,1.41,1.75-.06.81.26,1.62-.2,2.42a2.85,2.85,0,0,1-1.84,1.34l-1.67-1-.12-1.4c-.9-.43-.45-1.34-.34-2C543.4,28,544.23,27.75,546,27.71Z"/><path class="cls-3" d="M461.34,49l-.62-.49c-.31.31-.61.63-1,1a2.57,2.57,0,0,1-2-1.29c-.74-1.19-.77-1.23-.39-2.48a12.65,12.65,0,0,1,1.22-.9,10.07,10.07,0,0,1,1.19-.52,3.23,3.23,0,0,1,1.94,2C462,47.14,461.5,47.92,461.34,49Z"/><path class="cls-1" d="M324.16,27.57c.38-.19,1-.31,1.26-.68a1.63,1.63,0,0,1,1.25-.83c.17,0,.28-.48.59-1.08a2.08,2.08,0,0,1-2.41-.08,16.87,16.87,0,0,1-2.9-2.32,3.67,3.67,0,0,1-.87-2.75c.77-.33,1-1.34,2-1.35.17-.66.77-.33,1-.26,1.08.36,2.12.84,3.33,1.35l.68-.26c.33-1.49.66-2.92,1.88-3.94a2.74,2.74,0,0,1,2.36-1c1.75.61,2.16,2.5,1.55,5.21.3.54.85.4,1.22.28a7.38,7.38,0,0,1,2.39,0,3,3,0,0,1,2.33,1.2c.16.2.34.39.58.66-.34.41.13.83.09,1.38a3.38,3.38,0,0,1-1.64,2.55A6.55,6.55,0,0,1,334.06,27a4.79,4.79,0,0,0,.1,1c.2.65.46,1.28.67,1.93a1.83,1.83,0,0,1-.29,2.12c-.16.15-.16.49-.21.68l-1.36.12a7.27,7.27,0,0,0-1-.38c-.59-.14-.82-.63-1.08-1.08-.36-.62-.7-1.25-1.16-2.07A7.89,7.89,0,0,1,326,32.48a2.71,2.71,0,0,1-2.26-.75l.7-1-.94.21C322.94,30.08,323,30.06,324.16,27.57Z"/><path class="cls-1" d="M315.09,13.75l2.27,2.71.28-.22.2,2.36-.72,1.2c-.29,0-.64,0-.8.13-1.28,1.25-2.7.77-4.26.33.36.83-.43,1.43-.24,2.27s-.78,1.32-1.05,2a8.65,8.65,0,0,0-.89.08c-.31,0-.61.12-.94.19,0-.2,0-.33.05-.45a5.08,5.08,0,0,1-3.1-4.6,5.5,5.5,0,0,1,.24-1.18c.09-.46.42-.9.15-1.42a7.19,7.19,0,0,1-4.44.19A3.24,3.24,0,0,1,300,15.88a2.63,2.63,0,0,1-.48-2.31,4.36,4.36,0,0,0-.1-1.57l1.83-1.35a11.55,11.55,0,0,0,1.52.64,9.18,9.18,0,0,0,1.67.15c-.27-.26-.38-.38-.5-.48a2,2,0,0,0-.23-.21l-.22-2.57L304.54,6,306,5.12l1.26.24c.07.31.13.63.21,1,1.06-.19,1.16.82,1.47,1.52a24.32,24.32,0,0,1,.79,2.37,17.27,17.27,0,0,1,3-1.32,14.72,14.72,0,0,1,3.12-.08c.54.8,1.17,1.51.8,2.53a2.89,2.89,0,0,1-.35.73C315.84,12.77,315.35,13.4,315.09,13.75Z"/><path class="cls-1" d="M298.34,62.31c-.7,0-1-.46-1.2-1.25l-.54.74a6.9,6.9,0,0,1-1.32-2.89,4.38,4.38,0,0,1,.19-3.12l-.85-1.25-1.52.36-.38-.45-.39.41a3.71,3.71,0,0,1-2.42-2.64l.24-.92a4.84,4.84,0,0,1,3.32-1.4l3.36.23c.22.33.37.53.56.81.05-.23.13-.39.09-.49a7.31,7.31,0,0,1-.29-2c-.19-1.22,1.78-3.65,3-4a2,2,0,0,1,2.34,1.12,24.32,24.32,0,0,1,.7,2.42,27.1,27.1,0,0,0,3,.47c1.4.08,2.08,1.14,3,1.79a8,8,0,0,1-.38,2c-.22.46-.77.77-1.21,1.17a6.4,6.4,0,0,0-1,.39,8.48,8.48,0,0,0-.95.74c.13,1,1.19,1.33,1.49,2.17s.47,1.68.72,2.57l-1.39,1.84-1.73-.25-.54-.71c-.19,0-.48.13-.6,0-.91-.75-2.05-1.29-2.49-2.54-.1-.27-.51-.43-.88-.72-.09.48-.08,1.05-.22,1.09-.72.21-.14.55-.14.83a4,4,0,0,1-.07,1A3.69,3.69,0,0,1,298.34,62.31Z"/><path class="cls-1" d="M346.76,39.62l-.14-.47L345.35,39l-.15.4c-.57-.26-.2-.76-.3-1.13s-.52-.68-.82-1l.64-.36a4.07,4.07,0,0,1-.08-1.11c.16-.92.9-1.4,1.59-1.91.21-.16.5-.22.71-.37a2.45,2.45,0,0,1,2-.63c.18,0,.41-.12.61-.18-.16-.76-.84-.81-1.27-1.17A13,13,0,0,1,346,29.35a6.65,6.65,0,0,1-1.12-2.43,1.69,1.69,0,0,1,.76-1.78,4.14,4.14,0,0,0,.55-.61c2.21-.47,3.21,1.34,4.49,2.36L352.58,25c.1-.09.25-.12.36-.2.35-.26.67-.69,1.06-.77a17.57,17.57,0,0,1,2.44-.15,4.54,4.54,0,0,0,.32.66c1,1.23.46,2.37-.2,3.51a8.72,8.72,0,0,0-.44,1l3.64,1.47.84,1.72c-.26.69-.52,1.35-.81,2.13l-.62.34-.44-.48.12,1.39-2.74.42c.19.87.39,1.81.63,2.88-.32.49-.69,1.06-1,1.57l-1.22.3-2.73-1.61c-.28-.56-.59-1.15-.94-1.84-1.29.39-1.81,1.86-3.13,2.3l-1-.12Z"/><path class="cls-1" d="M259.13,54.85c.27-.52,1.17-.64.92-1.48l1.34-1.16c0-.63-.51-.57-.81-.57a3.91,3.91,0,0,1-2.16-.4,1.78,1.78,0,0,0-.36-.14,4.71,4.71,0,0,1-1.1-.34,4,4,0,0,1-.9-.93,8.67,8.67,0,0,1-.52-.93c.25-.58.47-1.08.75-1.7a5.88,5.88,0,0,1,4.83-.68c.09-1,.18-2.06.26-3l1.26-1,2.21.06c.34.49.91.75.77,1.6-.08.49.52,1.08.83,1.66l4.24-.36c-.05.24-.06.33-.1.52l1.35.23c.23.46.49,1,.77,1.54A3.25,3.25,0,0,1,270.42,51c-.61.27-1.35.26-2,.59a.89.89,0,0,0-.24.19c.64,1,1.25,1.94,1.91,3-.1.83-.22,1.73-.36,2.76l-1.5.26c-1.47-.67-2.18-1.95-3-3.27l-3.34,2.68-.79-.29c-.15.22-.29.4-.51.71l-1.05-1.19-.38.14a1,1,0,0,1-.08-.42A1.8,1.8,0,0,0,259.13,54.85Z"/><path class="cls-1" d="M317.34,47.64c-.31-1.13-.58-2.08-.76-2.72l.75-2.51a2.93,2.93,0,0,1,2.25-1A4.63,4.63,0,0,1,321,42a7.34,7.34,0,0,1,.33,4.23l4.13-.67,1.18.57c.89,1.85.71,2.4-1.35,4a2.84,2.84,0,0,0,1.08,1.76,3.93,3.93,0,0,1,.89,2.32,1.94,1.94,0,0,1-.89,2l-.67-.53c-.14.21-.25.39-.37.56-.52.14-1-.22-1.45-1l-.28.43-2.39-2c-.77,1.27-.44,3-1.79,3.76l-1.63.48-1.53-1.33.43-.35a3,3,0,0,1-.52-2.85,1.78,1.78,0,0,0-.41-1.54l-1.2.73-2.4-.42-.82-1.67a6.31,6.31,0,0,1,.4-1.18c.32-.6.62-1.3,1.54-1.12.12,0,.3-.12.42-.22a2.06,2.06,0,0,1,1.58-.45Z"/><path class="cls-1" d="M346.36,61.29l-2.83-1.36a15.62,15.62,0,0,0,.28,2.88,3.88,3.88,0,0,1-.23,2.38l-.45-.64-.52.56.44.33c-.06.08-.11.2-.16.21a2.33,2.33,0,0,1-2.15-.81,14.08,14.08,0,0,0-2-2.26c-.51.35-1.07,1-1.61,1-.74,0-1.06.9-2,.43a3.93,3.93,0,0,1-1.57-4.9,3.27,3.27,0,0,1,2.53-2.36c.85-.16,1.69-.32,2.53-.51a3.89,3.89,0,0,0,.68-.34,26.79,26.79,0,0,0-.7-2.6,4.41,4.41,0,0,1,1.57-4.85,3.16,3.16,0,0,1,1.12-.32,6.55,6.55,0,0,1,.9-.08c1,.32.94,1.36,1.46,2,0,.89,0,1.75-.14,2.6s-.36,1.56-.52,2.25c1.54.6,3.21,1.16,4.77,1.91a1.83,1.83,0,0,1,1.3,1.74c0,.22.25.46.37.68-.07,1-.31,1.93-1.55,2.17l-.22-.36Z"/><path class="cls-1" d="M346.72,39.57c-.05.13-.09.25-.17.44l-.82-.22c.31-.72.68-.29,1-.17Z"/><path class="cls-2" d="M295,32.74c-.82.62-1.92.36-2.95.28a16.41,16.41,0,0,1-3.41-.32c-.57-.16-1.29.25-2.12.45l1.38,2.25c.07.12.18.21.24.33a11.81,11.81,0,0,0,1,2.18c.47.6,1,1.15,1.4,1.8a11.34,11.34,0,0,1,1.74,2.52c.32.4.62.82,1,1.2.52.6,1.1,1.16,1.62,1.77a23.54,23.54,0,0,0,3.32,2.91c1,.86,2.15,1.65,3.32,2.53,0,.44-.06,1-.09,1.47a3.71,3.71,0,0,1-2.51-.27,14.13,14.13,0,0,1-1.58-.74L297.2,51a3.88,3.88,0,0,0-.71-1.13c-.33-.26-.88-.2-1.24-.43a16.08,16.08,0,0,1-1.65-1.3c.24-1-.83-1.33-1.41-1.84a14.14,14.14,0,0,1-2.94-3.76,21.12,21.12,0,0,0-2-3.05,31.14,31.14,0,0,1-2.32-4.12,16.32,16.32,0,0,0-1.24-1.9,1.25,1.25,0,0,0-1.22-.4c-1.61.25-3.22.43-4.84.58-.9.09-1.8,0-2.84.08.16.28.2.47.32.55.71.47,1.48.86,2.16,1.38s1.09,1.13,1.71,1.59a14.09,14.09,0,0,1,3.77,3.81,9.68,9.68,0,0,1,.86,1.66c.2.51,1.08.7.68,1.47,1.1,1.44,1.36,3.24,2.11,4.83a21.63,21.63,0,0,1,.8,2.56c-.26.64-.53,1.21-1.37,1.38-1-.92-2.8-.54-3.48-1.9a3.94,3.94,0,0,1-1.09-.29c-1.17-.74-2.3-1.53-3.43-2.32a1.55,1.55,0,0,1-.35-.41c-1.1-1.39-2.24-2.76-3.29-4.19a5.94,5.94,0,0,1-1.36-3,1.28,1.28,0,0,1-.54-1.51,13.42,13.42,0,0,1-.65-1.21c-.19-.49-.31-1-.46-1.53a8.72,8.72,0,0,0-.58-1.79,6.82,6.82,0,0,0-1.23-1.23c-.09.66-.47.92-1.16,1A18.65,18.65,0,0,0,266,35c-.41.07-.83.11-1.34.18s-1.27.28-1.95.46-1.43.39-2.14.61a4.73,4.73,0,0,1-3.37-.29c-.16-.45-.22-.37-.46-1,1.18-.92-.36-.8,1.35-1a32.13,32.13,0,0,1,4.38-1c1.56-.14,3.09-.62,4.65-.84a13.89,13.89,0,0,0,2.94-.93c-.09-.84.29-1.74-.23-2.58.44-1.18-.33-2.34,0-3.56a18.51,18.51,0,0,0,.13-2.8,7,7,0,0,1,1.29-3.88,4.64,4.64,0,0,0,.5-1.15l.61-.24c0-.08.11-.17.1-.25a2.62,2.62,0,0,1,1-2.3c.57-.65,1.6-.67,2.07-1.5,0-.08.41,0,.71,0,.38-.6,1-1.26,1.73-1.18s1.1-.75,1.75-.44l1,1.13a18,18,0,0,1-.29,2.09c-.18.77-.22,1.6-.44,2.39s-.33,1.45-.51,2.18-.37,1.45-.58,2.17a9.88,9.88,0,0,1-.73,2.25c-.34.59-.69,1.17-1.05,1.75s-.2,1.53-1.1,1.8c.17.91-.52,1.45-.93,2.12l-1.2,2c.93.37,1.85-.83,2.72.06.74,0,1.38-1,2.17-.32l2.08-.36A11.26,11.26,0,0,1,283.59,27c0-.1,0-.32.05-.55a1.46,1.46,0,0,1,.19-.16c.29-.17.62-.16.83-.59.31-.63,1.06-.87,1.6-1.3s1.61-.66,1.89-1.6c.1-.34.74,0,.68-.57,1.25-.54,2.06-1.76,3.44-2.13.56-.16,1-.76,1.52-1.08.76-.46,1.54-.85,2.33-1.24,1-.51,2.06-1,3.12-1.46a11.77,11.77,0,0,1,2.93-1,9.29,9.29,0,0,0,1.8-.7c1.18-.43,2.38-.82,3.57-1.25.39-.15.74-.29,1.14,0,.07.06.37-.15.59-.25l.82.6a2,2,0,0,1-.93,1.84c-1.56.49-3,1.42-4.64,1.61A5.29,5.29,0,0,1,302,18.39,23.09,23.09,0,0,0,298.29,20a15.87,15.87,0,0,1-2.15.67c-.25.88-1.17.91-2.14.89a2.7,2.7,0,0,1-2.15,2.05l-2.54,2-.63-.13c.14.93-1,.73-1.26,1.55-.17.58-1.19.84-1.58,1.42s-1.46.71-1.25,1.74l4.09-.15c1.31,0,2.6.2,3.91.16s2.67.15,4,.24L297,31c1.26-.83,2.41.15,3.66,0a6.27,6.27,0,0,1,3-2,8.47,8.47,0,0,0,2-1,2.59,2.59,0,0,1,1.34-.42,5.75,5.75,0,0,0,1.87-.69c.19-.09.34-.44.51-.43,1.26.06,2.25-.83,3.46-1a4,4,0,0,0,2.17-.59,6.43,6.43,0,0,1,3-.19c.15-.22.29-.45.51-.79l4.14-.36a1.42,1.42,0,0,0,.41,0c2-.8,4.14-.22,6.26-.5l1.34,1.05c-.12.87-.6,1.12-1.34,1.39-1,.38-2.19-.13-3.13.58-.68-.56-1.2.18-1.8.22a7.13,7.13,0,0,0-1.31,0c-.35.09-.64.45-1,0l-.77.55-.77-.45c-.39.92-1.29.5-2,.71-1.43.43-2.9.73-4.35,1.06-.51.11-1,.15-1.65.23l-1.14.48a13.14,13.14,0,0,0-1.48.67c-.46.27-.9.44-1.32.14a12.94,12.94,0,0,0-1.77,1.06c-.48.4-1.38-.27-1.61.73a1.56,1.56,0,0,0,1.39.54,9.52,9.52,0,0,1,3.84.67,2.55,2.55,0,0,0,1.6.35,3,3,0,0,1,1.66.1c1.36.24,2.71.62,4.05.88s2.33.55,3.49.86a15.92,15.92,0,0,0,1.84.16c.21,0,.39.27.51.36a7.2,7.2,0,0,1,2.3.52,2.65,2.65,0,0,0,3.35-.44,17.71,17.71,0,0,1,4-2c1-.45,2.12-.53,3.06-1s1.76-.3,2.6-.73a8.78,8.78,0,0,1,2.64-.61,7.09,7.09,0,0,1,1.39.1c.52-.81,1.46-.79,2.36-.63a1.92,1.92,0,0,0,.83-.05c1.28-.24,2.59-.37,4.07-.57l.64,1c.18-.36.24-.5.34-.72.57.51,1.62.22,1.79,1.4l-.4.67-.29-.23-.84.77a6.41,6.41,0,0,0-3.14.22,6.6,6.6,0,0,1-2.37.25,2.2,2.2,0,0,1-1.62-.86c0,.23,0,.46,0,.78a5.06,5.06,0,0,1-1.3.58,6.3,6.3,0,0,0-1.27.13c-.42.15-.92.52-1.48-.05-.52,1-1.64.53-2.45,1a13.8,13.8,0,0,1-2.44.93c-.85.26-1.73.42-2.73.66-.18.19-.47.52-.88,1l1,.59-.17.21c.06,0,.12.12.17.12s.41-.11.54,0c1.46.79,3.18.75,4.67,1.44a3.83,3.83,0,0,0,1.83.7c.17,0,.35.35.54.56a3.59,3.59,0,0,1,2.29.54,25.54,25.54,0,0,1,6.4,3.28,14.39,14.39,0,0,1,4.58.32c.15.36.31.77.49,1.2-.2.29-.4.56-.65.9-1.43-.28-2.86.73-4.38,0-.14-.17-.37-.48-.63-.84l-.23.79-1-1c-.58,0-1.24.28-1.72-.44-.16-.22-.72-.14-1.09-.25a27.15,27.15,0,0,0-3.85-1.28c-.75-.09-1.25-.9-2.1-.76-.07,0-.19-.33-.31-.53l-.48.14c-.05,0-.11,0-.13,0-1.22-1-2.82-1.08-4.14-1.81a5.41,5.41,0,0,1-.8-.63c-.34.17-.53.3-.32.73.89,1.81,1.7,3.65,2.6,5.45a9.63,9.63,0,0,0,1.69,2.87c.69.65,1.11,1.73,2.24,1.86l4.23,3.62c-.45.47-.7,1-1.37.5-.13-.1-.39-.06-.59,0-1.21.18-2.11-.53-3-1.09a9.4,9.4,0,0,1-1.33-.9,5,5,0,0,1-.67-.94l-.34.08c-2.59-2.35-3.5-5.62-5.11-8.48,0-.09.05-.26,0-.11a7.49,7.49,0,0,1-.88-2.08A3.33,3.33,0,0,0,328.9,40a1.24,1.24,0,0,1-.18-.44,7.92,7.92,0,0,1-2.61-.94l-1.93-.21.29-.37c-1.16-.43-2.64.36-3.55-.92a34.75,34.75,0,0,1-4.05-.65c-1.67-.38-3.37-.74-5.08-1a1.64,1.64,0,0,1-.7-.28,1,1,0,0,0-1.35-.12,1.09,1.09,0,0,1-.74,0c-1.05-.23-2.09-.5-3.14-.74a1,1,0,0,0-1.2.28A9.33,9.33,0,0,0,306.57,37c.59.64,1.39,1.11,2,1.71a9.71,9.71,0,0,1,1,1.42c1.32,0,1.92,1.24,2.64,2.34l.17-.17a18.77,18.77,0,0,0,1.8,1.25,12,12,0,0,1,1.6,1.17c.91.7,2.08.86,2.9,1.65,0,0,.07.09.11.09,1.35,0,1.92.91,2.24,2.19,0,0-.21.18-.37.34a5.36,5.36,0,0,0-.41.46A4,4,0,0,1,316.6,48a1.77,1.77,0,0,1-1.78-.45,4.52,4.52,0,0,0-2.06-1.46c-.08,0-.14-.11-.2-.18a24.23,24.23,0,0,0-2.43-2.1,3.58,3.58,0,0,1-.57-1l-.87-.1c-.3-.34-.56-.69-.87-1a31.73,31.73,0,0,1-3.18-2.93c-.46-.55-.95-1.11-1.43-1.65a1.77,1.77,0,0,1-.55-1.46c-.46,0-.85,0-1-.63a7.07,7.07,0,0,0-.61-1.41c-.41.05-.76.22-.92.11-1.12-.77-2.42-.22-3.58-.52C296.07,33.14,295.59,33,295,32.74Z"/><path class="cls-3" d="M303.48,55.65a9.24,9.24,0,0,1-1.28.33c-.41.05-.84,0-1.27,0-.73-.27-1.6-.42-1.94-1.27a9.23,9.23,0,0,1-.72-2.31,1.93,1.93,0,0,1,.89-1.72,3,3,0,0,1,2.43-.7c1.73.31,2.39,1.46,2.8,2.88a3,3,0,0,1-.19,1.55A5.9,5.9,0,0,1,303.48,55.65Z"/><path class="cls-3" d="M307.25,17.63c-.2-.65-.37-1.19-.53-1.72.59-1.28.59-3,2.55-3.55l1.46.17.9.84A11.47,11.47,0,0,0,312,15.5a2.15,2.15,0,0,1-.86,2.82,2.85,2.85,0,0,0-.45.47C309.12,19.47,308.23,18.3,307.25,17.63Z"/><path class="cls-3" d="M329.78,28.52l-1.67-.74-.76-1.16c-.13-.39-.29-.85-.51-1.46l.72-1.31A5.48,5.48,0,0,1,331,22.56l.81.57c.33.39-.06.73.32,1.07s.29.92.28,1.4a3.44,3.44,0,0,1-.83,2.11c-.24.29-.54.61-1.06.39C330.39,28,330.11,28.32,329.78,28.52Z"/><path class="cls-3" d="M323.29,48.54c-.08.23-.15.43-.21.62l.62.48a2.71,2.71,0,0,1-1.2,3l-.57-.23-.5.47-2-.31-1.3-2.15c.08-.49.15-.88.21-1.27.28-.34.57-.68.85-1l-.12-.11,1.78-.86,1.29.24Z"/><path class="cls-3" d="M343.65,59.79l-1.2.23-1.31-.16c-1.41-.55-.68-2.29-1.72-3.12a4.44,4.44,0,0,1,1.93-2.2,1.44,1.44,0,0,1,1.17,0,6.91,6.91,0,0,1,1.19.76c.35.92.58,1.53.9,2.4-.17.56-.42,1.36-.67,2.15Z"/><path class="cls-3" d="M352.29,30.44c.35.65,1.48.69,1.4,1.75-.05.81.27,1.63-.19,2.43A2.81,2.81,0,0,1,351.66,36L350,35l-.12-1.41c-.9-.43-.46-1.33-.34-2C349.67,30.74,350.5,30.48,352.29,30.44Z"/><path class="cls-3" d="M267.6,51.68l-.62-.49-1,1a2.59,2.59,0,0,1-1.95-1.28c-.75-1.19-.78-1.24-.39-2.48a14.17,14.17,0,0,1,1.21-.91c.42-.23.88-.38,1.2-.52A3.31,3.31,0,0,1,268,49C268.3,49.87,267.77,50.65,267.6,51.68Z"/><path class="cls-1" d="M418.36,41.69c.44.13,1.12.14,1.47.47a1.83,1.83,0,0,0,1.49.61c.18,0,.39.43.83,1a2.41,2.41,0,0,0-2.58.51,17.67,17.67,0,0,0-2.69,2.86,3.59,3.59,0,0,0-.44,2.93c.89.19,1.35,1.16,2.4,1,.3.64.89.2,1.12.08,1.1-.55,2.13-1.23,3.34-1.95l.78.13a6.56,6.56,0,0,0,2.72,3.64,3.16,3.16,0,0,0,2.71.57c1.77-.93,1.87-2.9.73-5.52.22-.6.84-.56,1.26-.5a8.84,8.84,0,0,0,2.57-.39,3.25,3.25,0,0,0,2.28-1.63c.14-.23.3-.45.51-.77-.44-.35,0-.86-.15-1.4A3.53,3.53,0,0,0,434.49,41a7.56,7.56,0,0,0-5.4-.51,5.33,5.33,0,0,1-.08-1c.1-.69.28-1.37.38-2.06s.16-1.55-.69-2.08c-.2-.13-.25-.47-.35-.65l-1.47.12a9.34,9.34,0,0,1-1,.57c-.61.25-.77.77-1,1.28-.27.69-.52,1.38-.87,2.29a8.59,8.59,0,0,0-4.62-2.57,3.07,3.07,0,0,0-2.3,1.16l.94.88-1.05,0C416.6,39.39,416.61,39.41,418.36,41.69Z"/><path class="cls-1" d="M411.1,57.24l2-3.14.33.17-.21-2.41-1-1.08c-.31,0-.68.14-.87,0-1.61-1-3-.29-4.64.44.24-.9-.72-1.36-.66-2.25s-1.07-1.19-1.49-1.85c-.33,0-.65.07-1,.08s-.68,0-1,0l.14.44a5.09,5.09,0,0,0-2.51,5.19,4.82,4.82,0,0,0,.47,1.14c.18.45.61.83.42,1.41a8.25,8.25,0,0,0-4.8.6,3.42,3.42,0,0,0-1.74,1.83,2.54,2.54,0,0,0-.11,2.41,4.18,4.18,0,0,1,.18,1.61l2.21,1a12.33,12.33,0,0,1,1.51-.91,11.22,11.22,0,0,1,1.77-.45c-.24.31-.34.45-.45.58l-.21.25.22,2.62,1.56,2,1.68.59,1.32-.46c0-.33,0-.67,0-1,1.16,0,1.09-1,1.3-1.81a21.66,21.66,0,0,0,.42-2.52,20.2,20.2,0,0,0,3.49.78A16.49,16.49,0,0,0,412.8,62c.43-.9,1-1.72.4-2.69a3.65,3.65,0,0,0-.5-.67C412.08,58.09,411.44,57.55,411.1,57.24Z"/><path class="cls-1" d="M384.42,11.35c-.75.14-1,.65-1.06,1.47l-.71-.65a6.81,6.81,0,0,0-.9,3.15,4.2,4.2,0,0,0,.77,3.11l-.7,1.41-1.69-.09-.33.52-.49-.35a3.87,3.87,0,0,0-2.13,3.1l.43.88a5.48,5.48,0,0,0,3.81.81l3.56-.82.46-.93c.09.23.21.37.18.48a7,7,0,0,0,.06,2.09c0,1.26,2.56,3.36,3.89,3.46a2.17,2.17,0,0,0,2.31-1.54c.18-.8.2-1.64.31-2.56a28.76,28.76,0,0,1,3.17-1c1.49-.33,2-1.52,2.95-2.35a7.47,7.47,0,0,0-.77-1.94,5.46,5.46,0,0,0-1.5-1,7.49,7.49,0,0,1-1.14-.21,9.51,9.51,0,0,1-1.16-.57c0-1,1-1.55,1.21-2.46s.21-1.78.31-2.72l-1.82-1.59-1.81.56c-.16.28-.3.53-.45.81-.21,0-.54,0-.65.07-.85.93-2,1.67-2.22,3-.06.3-.47.53-.81.89-.18-.47-.27-1-.43-1.06-.82-.08-.25-.53-.3-.8a3.62,3.62,0,0,0-.27-1A3.81,3.81,0,0,0,384.42,11.35Z"/><path class="cls-1" d="M452.46,21.08c.32-.28.56-.46.75-.66a1.81,1.81,0,0,0,.12-2.64c-.37-.52-.66-1.1-1.08-1.81a4.21,4.21,0,0,0,3-1.86c1-1.31,1-4.09-1.19-4.68a5.51,5.51,0,0,0-3.72.15c-.32.13-.61.3-1,.48-.55-.34-.55-.69-.52-1.33a4.65,4.65,0,0,0-1.3-3.88l-1.42-.2c-2,.16-1.81,1.72-2.13,3l-.43,0c-.07.93-.14,1.87-.2,2.83a6.23,6.23,0,0,0-2.33-.6c-.89.12-1.71-.14-2.68,0a6.4,6.4,0,0,0-1.31,1.29,6.79,6.79,0,0,0-.44,1.94A7.45,7.45,0,0,0,438,14.68a13,13,0,0,0,5.67,1.71,12.32,12.32,0,0,0,1.89-.54c0,.39.08.91.12,1.42,0,.09,0,.2,0,.26a11.48,11.48,0,0,0,1.45,2.07,2.71,2.71,0,0,0,2.34.9.49.49,0,0,1,.36.07A3.1,3.1,0,0,0,452.46,21.08Zm-12.38-7.82c.2-.83.64-.8,1.19-.39Z"/><path class="cls-1" d="M407.44,22.71c-.13,1.19-.25,2.2-.32,2.87.48.93.81,1.57,1.25,2.4a3.35,3.35,0,0,0,2.59.59,5.64,5.64,0,0,0,1.43-.79,7.13,7.13,0,0,0-.41-4.32l4.56-.06,1.16-.79c.63-2,.33-2.54-2.16-3.73a2.83,2.83,0,0,1,.85-2,3.83,3.83,0,0,0,.53-2.5,2,2,0,0,0-1.32-1.9l-.62.66-.5-.5c-.58,0-1,.4-1.37,1.32l-.37-.39-2.2,2.49c-1.06-1.14-1-2.91-2.6-3.47l-1.83-.19-1.41,1.61.53.28a2.92,2.92,0,0,0-.05,3,1.73,1.73,0,0,1-.17,1.62l-1.41-.53-2.5.86c-.22.68-.37,1.18-.58,1.83a6.92,6.92,0,0,0,.64,1.12c.45.54.9,1.2,1.86.85.12,0,.33.07.48.14a2.34,2.34,0,0,0,1.78.17C406,23.17,406.64,23,407.44,22.71Z"/><path class="cls-1" d="M436.13,3.76l-2.8,1.88a14.73,14.73,0,0,1-.21-2.95,3.71,3.71,0,0,0-.68-2.35l-.36.72-.66-.47c.16-.17.29-.29.41-.41-.08-.07-.15-.19-.2-.18a2.57,2.57,0,0,0-2.16,1.2,15.42,15.42,0,0,1-1.75,2.64c-.62-.26-1.34-.85-1.91-.74-.8.15-1.3-.72-2.24-.08a3.87,3.87,0,0,0-.8,5.22,3.52,3.52,0,0,0,3.13,1.92c.93,0,1.87,0,2.8.06a4.28,4.28,0,0,1,.8.22,27.33,27.33,0,0,1-.29,2.74,4.41,4.41,0,0,0,2.56,4.61,3.65,3.65,0,0,0,1.25.12c.33,0,.65-.05,1-.08,1-.49.77-1.55,1.22-2.25A25.78,25.78,0,0,0,434.6,13a23.37,23.37,0,0,0-1-2.18c1.55-.88,3.23-1.73,4.78-2.77a1.87,1.87,0,0,0,1.08-2c-.06-.22.18-.51.28-.75-.27-1-.68-1.89-2.06-1.9l-.17.4Z"/><path class="cls-1" d="M440.41,25.57l-.26-.41-.84.36c.46.68.79.17,1.13,0Z"/><path class="cls-2" d="M386.1,41.72c-1-.47-2.13,0-3.22.25a19.39,19.39,0,0,0-3.61.94c-.57.26-1.42,0-2.35-.07.39-.91.73-1.72,1.08-2.52.05-.13.16-.24.2-.37a11,11,0,0,1,.72-2.38c.39-.69.83-1.34,1.17-2.07a11.11,11.11,0,0,0,1.42-2.84c.27-.47.52-.94.81-1.39.46-.69,1-1.36,1.42-2.07a26.11,26.11,0,0,1,3-3.53c1-1.05,2-2,3.11-3.14l-.36-1.46a4.34,4.34,0,0,0-2.64.72,14.49,14.49,0,0,0-1.56,1s-.09.06-.1.1a4.21,4.21,0,0,1-.57,1.27c-.3.31-.91.36-1.26.65a18.2,18.2,0,0,0-1.52,1.6c.43,1-.66,1.49-1.19,2.11a14.4,14.4,0,0,0-2.48,4.31,22,22,0,0,1-1.6,3.43,30.41,30.41,0,0,0-1.75,4.57,15.3,15.3,0,0,1-1,2.13,1.41,1.41,0,0,1-1.23.63c-1.77,0-3.54.14-5.3.28-1,.07-1.93.27-3.06.43.12-.31.13-.51.25-.61.68-.6,1.43-1.14,2.06-1.78s1-1.33,1.56-1.91a14.46,14.46,0,0,0,3.36-4.51,10.89,10.89,0,0,0,.63-1.82c.11-.55,1-.9.46-1.61.92-1.64.88-3.5,1.39-5.24a18.22,18.22,0,0,0,.4-2.72A1.94,1.94,0,0,0,372.67,23c-.91,1.1-2.91,1-3.39,2.53a4.92,4.92,0,0,0-1.13.49C367,27,366,28,364.89,29a1.78,1.78,0,0,0-.3.48c-.93,1.6-1.91,3.17-2.77,4.8a5.82,5.82,0,0,0-.92,3.31,1.27,1.27,0,0,0-.31,1.61,13.94,13.94,0,0,0-.48,1.34c-.12.53-.15,1.08-.22,1.63a8,8,0,0,1-.31,1.9,6.72,6.72,0,0,1-1.08,1.46c-.23-.64-.68-.84-1.42-.76a22,22,0,0,1-2.43,0c-.45,0-.91,0-1.46.06s-1.42-.06-2.18-.11-1.61-.14-2.41-.23c-1.16-.14-2.39-1.61-3.58-.86l-.35,1.71c1.42.72,3.05,1.93,4.93,1.87a3.36,3.36,0,0,0,1.65.31c1.7-.14,3.42.07,5.13,0a16,16,0,0,1,3.32.41c.06.87.63,1.69.22,2.64.69,1.11.07,2.41.6,3.59a16.07,16.07,0,0,1,.65,2.8,6.82,6.82,0,0,0,2.08,3.66,5.21,5.21,0,0,1,.74,1.07l.7.14c.05.08.15.16.15.23,0,1,.68,1.58,1.43,2.14s1.84.4,2.49,1.14c.07.08.45-.08.76-.15a2.3,2.3,0,0,0,2.07.88c.77-.21,1.31.56,2,.13l.89-1.32a19.92,19.92,0,0,0-.69-2.06c-.33-.74-.52-1.57-.9-2.32s-.61-1.41-.94-2.1-.66-1.4-1-2.09a10,10,0,0,0-1.18-2.13c-.47-.53-1-1.05-1.44-1.57s-.5-1.51-1.51-1.62c0-.95-.82-1.37-1.38-2l-1.64-1.76c.93-.55,2.14.5,2.91-.55.79-.16,1.65.72,2.39-.07l2.29,0a11.62,11.62,0,0,0,3.59,3l.15.55a1.83,1.83,0,0,0,.24.13c.34.12.69,0,1,.44.44.58,1.29.69,1.95,1s1.84.38,2.31,1.27c.17.33.8-.09.84.46,1.43.32,2.52,1.4,4.07,1.53.63.05,1.2.59,1.83.81.89.32,1.8.58,2.72.83,1.19.33,2.39.66,3.6.91a13.17,13.17,0,0,0,3.32.47,10.68,10.68,0,0,1,2.06.39c1.35.22,2.71.4,4.06.62.45.07.85.15,1.22-.23.07-.08.42.09.67.15l.78-.76a2,2,0,0,0-1.32-1.68c-1.77-.21-3.45-.89-5.27-.8a6.13,6.13,0,0,0-2.95-.69A26.15,26.15,0,0,1,392,54a17.82,17.82,0,0,0-2.43-.29c-.43-.85-1.42-.71-2.45-.52a2.91,2.91,0,0,0-2.68-1.67l-3.09-1.6-.65.24c0-1-1.22-.55-1.63-1.33-.29-.55-1.44-.64-1.95-1.15s-1.7-.45-1.65-1.53l4.41-.57c1.41-.19,2.75-.68,4.17-.88s2.83-.62,4.28-1l.27-.56c1.5.61,2.57-.58,3.94-.61a6.83,6.83,0,0,0,3.55,1.49,9.53,9.53,0,0,1,2.37.67,3.08,3.08,0,0,0,1.52.18,6.38,6.38,0,0,1,2.12.36c.23.06.45.38.62.34,1.35-.28,2.57.44,3.89.36a4.64,4.64,0,0,1,2.44.21,7.61,7.61,0,0,0,3.3-.35l.68.7,4.51-.38a1.68,1.68,0,0,1,.44,0c2.32.44,4.49-.53,6.82-.63L426,44.18c-.29-.85-.85-1-1.69-1.16-1.18-.19-2.34.53-3.47,0-.63.69-1.31,0-2,.1a8.77,8.77,0,0,1-1.41.22c-.39,0-.76-.34-1.09.16l-.94-.42-.73.6c-.59-.86-1.48-.28-2.25-.37-1.61-.17-3.24-.21-4.86-.28-.56,0-1.12,0-1.8.06l-1.32-.28a14,14,0,0,1-1.7-.41c-.55-.18-1-.28-1.45.1a14.38,14.38,0,0,1-2.08-.75c-.6-.32-1.44.52-1.86-.45a1.7,1.7,0,0,1,1.39-.79,10.85,10.85,0,0,0,4-1.36,2.86,2.86,0,0,1,1.66-.64,3.28,3.28,0,0,0,1.76-.41c1.42-.48,2.79-1.1,4.19-1.6,1.24-.44,2.4-1,3.59-1.5.6-.26,1.31-.29,1.94-.49.22-.07.37-.34.48-.45a8.11,8.11,0,0,0,2.39-.94,3,3,0,0,1,3.66-.16,19.54,19.54,0,0,0,4.64,1.29c1.12.28,2.37.16,3.47.47s1.94,0,2.92.27a10.19,10.19,0,0,0,2.93.14,7.44,7.44,0,0,0,1.48-.35c.71.73,1.71.54,2.65.21a2.32,2.32,0,0,1,.9-.09c1.42,0,2.84-.09,4.47-.16.13-.29.3-.63.51-1.09l.5.67c.52-.61,1.7-.51,1.67-1.73L448,32l-.27.29-1-.63a7.24,7.24,0,0,1-3.41.34,7.93,7.93,0,0,0-2.59.18,2.38,2.38,0,0,0-1.58,1.16c0-.23-.06-.47-.11-.8a5.85,5.85,0,0,0-1.5-.35,6.85,6.85,0,0,1-1.38.1c-.49-.07-1.08-.35-1.58.32-.75-.94-1.86-.24-2.8-.54a16.13,16.13,0,0,0-2.79-.5c-1-.1-1.93-.11-3.05-.17l-1.12-.83,1-.78-.22-.18c.06-.05.1-.15.16-.16s.46,0,.58-.05c1.44-1.06,3.29-1.33,4.76-2.29A4.29,4.29,0,0,1,433,26c.18,0,.32-.42.48-.66a4.08,4.08,0,0,0,2.36-1A27.68,27.68,0,0,0,442.06,20c1.76-.1,3-1.67,4.72-2.31.1-.39.21-.83.32-1.29l-.86-.78a21.3,21.3,0,0,0-4.58,1.9l-.52,1-.39-.74-.9,1.17c-.62.15-1.38-.06-1.77.75-.13.25-.75.28-1.12.45-1.34.6-2.46,1.57-3.91,2-.78.22-1.17,1.13-2.11,1.15-.08,0-.15.36-.24.58l-.54-.06c-.05,0-.12,0-.14,0-1.13,1.21-2.83,1.59-4.12,2.56a6.91,6.91,0,0,0-.75.78c-.39-.1-.61-.21-.46-.68.62-2,1.17-4,1.8-6a9.72,9.72,0,0,1,1.31-3.19c.62-.78.87-1.94,2.07-2.28l3.88-4.4c-.56-.39-.93-.91-1.55-.26-.12.13-.42.14-.63.14-1.33,0-2.17.91-3.08,1.64a10.54,10.54,0,0,0-1.26,1.14,4.91,4.91,0,0,0-.55,1.07l-.38,0c-2.37,2.84-2.75,6.29-4,9.46,0,.1.1.25,0,.1a7.43,7.43,0,0,0-.58,2.26,3.26,3.26,0,0,1-.57,2.24,1.54,1.54,0,0,0-.12.48,8.58,8.58,0,0,0-2.63,1.42l-2,.55.38.32c-1.17.65-2.9.11-3.65,1.56A40.69,40.69,0,0,0,409,34.08c-1.73.69-3.49,1.36-5.27,1.93a1.87,1.87,0,0,0-.71.41,1.16,1.16,0,0,1-1.42.36,1.22,1.22,0,0,0-.8.11c-1.09.42-2.16.87-3.24,1.3a1.13,1.13,0,0,1-1.33-.06,9.23,9.23,0,0,1,1.6-2.8c.52-.76,1.3-1.37,1.88-2.09a10.35,10.35,0,0,0,.86-1.62c1.41-.22,1.83-1.59,2.41-2.82l.21.14a21.06,21.06,0,0,1,1.71-1.59,12.32,12.32,0,0,0,1.51-1.46c.85-.87,2.08-1.24,2.82-2.18,0,0,.05-.1.09-.11,1.45-.26,1.91-1.27,2-2.61,0,0-.25-.14-.45-.27l-.52-.39a4.52,4.52,0,0,0-3.74,2.15,2,2,0,0,0-1.82.78,4.92,4.92,0,0,1-1.95,1.83.56.56,0,0,0-.18.22,27,27,0,0,1-2.23,2.55,3.41,3.41,0,0,0-.44,1.07l-.91.26a12.58,12.58,0,0,1-.77,1.14,34.06,34.06,0,0,0-2.88,3.52c-.39.64-.82,1.29-1.24,1.92a1.74,1.74,0,0,0-.33,1.57c-.49.09-.91.18-.93.81a6.9,6.9,0,0,1-.4,1.53c-.44,0-.85-.09-1,0-1.06,1-2.55.65-3.75,1.17C387.22,41.13,386.73,41.4,386.1,41.72Z"/><path class="cls-3" d="M448.94,13.27c-.09,0-.23,0-.26-.07-.66-1.21-1.82-1.32-3.09-1.29l-.41.65c-.37.16-.8.36-1.15.53,0,.77,0,1.35,0,1.95.18.3.37.61.48.81l1.68,1.26a4.15,4.15,0,0,0,2.45-1.47c.31-.49-.45-1.1.45-1.25Z"/><path class="cls-3" d="M391.13,17.14A9.73,9.73,0,0,0,389.7,17c-.45,0-.9.17-1.37.19-.74.4-1.65.71-1.86,1.63a8.94,8.94,0,0,0-.35,2.44,2,2,0,0,0,1.26,1.58,3.37,3.37,0,0,0,2.73.27,3.58,3.58,0,0,0,2.49-3.41,3,3,0,0,0-.48-1.52A5.43,5.43,0,0,0,391.13,17.14Z"/><path class="cls-3" d="M402,54.73l-.26,1.83c.87,1.19,1.18,2.93,3.38,3.12l1.54-.43.8-1a12.39,12.39,0,0,1,0-2.2A2.15,2.15,0,0,0,406,53.35a3.37,3.37,0,0,1-.57-.39C403.67,52.55,402.92,53.89,402,54.73Z"/><path class="cls-3" d="M424.21,39.73l-1.66,1-.6,1.31c-.08.42-.16.91-.28,1.56.19.22.5.6,1,1.19a6.15,6.15,0,0,0,3.91.68l.77-.71c.28-.45-.2-.72.16-1.14s.14-1,0-1.45a3.47,3.47,0,0,0-1.26-2,1,1,0,0,0-1.22-.2C425,40.1,424.61,39.87,424.21,39.73Z"/><path class="cls-3" d="M413.66,20.74c-.12-.22-.23-.41-.34-.58l.58-.6a2.73,2.73,0,0,0-1.81-2.77l-.58.34-.61-.38-2,.65c-.32.75-.67,1.6-1,2.4.18.48.31.87.45,1.24l1.1.89a.69.69,0,0,0-.11.13l2.06.55,1.35-.47Z"/><path class="cls-3" d="M433.49,5.76h-1.33l-1.38.39c-1.41.81-.31,2.42-1.28,3.45A4.72,4.72,0,0,0,432,11.46a1.64,1.64,0,0,0,1.25-.18,6.84,6.84,0,0,0,1.15-1l.53-2.58-1.1-2Z"/><path class="cls-1" d="M440.44,25.51c0,.14,0,.28-.06.5l-1.33.39-.24-.38c-.56.36-.07.8-.12,1.19s-.44.78-.69,1.19l.75.26a4.38,4.38,0,0,0,.11,1.13c.34.9,1.23,1.25,2.05,1.64.26.12.57.13.84.24A2.73,2.73,0,0,0,444,32c.19-.07.46.05.68.07,0,.8-.75,1-1.15,1.4a13.32,13.32,0,0,0-2,2.57,6.38,6.38,0,0,0-.77,2.65,1.71,1.71,0,0,0,1.13,1.65,4,4,0,0,1,.7.51c2.46.09,3.2-1.92,4.39-3.17l2.37,1.53c.12.07.29.07.42.13.43.2.84.58,1.27.59a22.52,22.52,0,0,0,2.65-.28,4,4,0,0,1,.23-.73c.8-1.41.06-2.46-.84-3.5a9.6,9.6,0,0,1-.66-.94L456,32.29l.59-1.88c-.4-.64-.8-1.27-1.25-2l-.73-.24c-.08.13-.17.27-.38.57l-.12-1.42-3,.07c.05-.91.1-1.89.16-3L449.9,23l-1.35-.09L445.91,25c-.21.62-.44,1.27-.69,2-1.45-.16-2.28-1.54-3.77-1.75l-1,.29Z"/><path class="cls-3" d="M449.23,34.84c.27-.72,1.46-1,1.2-2-.21-.8,0-1.68-.65-2.4a3.15,3.15,0,0,0-2.21-1L446,30.68l.12,1.43c-.89.6-.25,1.43,0,2.09S447.3,35.12,449.23,34.84Z"/></g></g></svg>