<svg xmlns="http://www.w3.org/2000/svg" viewBox="0 0 424.38 396.8"><defs><style>.cls-1{fill:#98bc62;}.cls-2{fill:none;stroke:#f0f;stroke-miterlimit:10;}.cls-3{fill:#72b03d;opacity:0.33;}.cls-4{fill:#f7ecf8;}.cls-5{fill:#f7c5f8;}.cls-6{fill:#f7d4f8;}.cls-7{fill:#a7d400;opacity:0.42;}.cls-8{fill:#f7bd5b;}.cls-9{fill:#f76a5b;}</style></defs><title>Asset 14</title><g id="Layer_2" data-name="Layer 2"><g id="Layer_1-2" data-name="Layer 1"><path class="cls-1" d="M305.89,365.48a198.56,198.56,0,0,0,87.09-207,3.18,3.18,0,0,0-2.33-2.43c-4.39-1.11-8.47-2-11-1.86a3.24,3.24,0,0,0-.62.12l-70.6-11.6a3.16,3.16,0,0,1-2.79-5.55l38-54c2.22-1.7,4.23-5.8,6.08-10.56a3.17,3.17,0,0,0-.53-3.22C286.44-4.1,177.75-22.56,93.35,30.18,1.28,87.7-27.35,208.35,28.51,301,86,396.35,212.2,425.7,305.89,365.48Z"/><line class="cls-2" x1="295.09" y1="23.96" x2="295.09" y2="23.96"/><path class="cls-3" d="M146.13,41.46h0c5.74,9.85,5.12,7.54,7.55,16.61L163,92.85c2.43,9.07,4.07,11.33,2.28,20.09h0c-5.75-9.85-5.9-10.44-8.33-19.51L146.59,54.79C144.16,45.72,146.07,52.86,146.13,41.46Z"/><path class="cls-3" d="M231.07,261.06h0c10.37,4.74,8.54,3.21,15.75,9.22l27.65,23.05c7.22,6,9.86,6.91,13.45,15.11h0c-10.37-4.74-10.84-5.13-18.06-11.14l-30.72-25.61C231.93,265.68,237.6,270.41,231.07,261.06Z"/><path class="cls-3" d="M79.67,88.92h0C91.09,97.37,89.1,95.11,96.92,104l30,34.14c7.82,8.91,10.74,10.72,14.4,20.95h0c-11.42-8.45-11.92-9-19.74-17.94L88.24,103.23C80.42,94.32,86.58,101.33,79.67,88.92Z"/><path class="cls-3" d="M149.44,289h0c-3.22,10.94-2,8.9-6.89,16.9l-18.89,30.64c-4.93,8-5.45,10.74-13,15.45h0c3.22-10.93,3.54-11.45,8.46-19.45l21-34.05C145,290.47,141.11,296.76,149.44,289Z"/><path class="cls-3" d="M39.17,276.09h0c10.4-4.67,8-4.3,17.32-5.76l35.56-5.6c9.27-1.46,11.7-2.85,20.22-.14h0c-10.4,4.67-11,4.77-20.28,6.23L52.48,277C43.2,278.49,50.5,277.34,39.17,276.09Z"/><path class="cls-3" d="M193.52,286.87h0c8.71,7.36,7.35,5.39,12.67,13.13l20.41,29.66c5.32,7.73,7.62,9.32,8.86,18.17h0c-8.7-7.36-9.05-7.86-14.37-15.6l-22.67-33C193.1,291.54,197.28,297.63,193.52,286.87Z"/><path class="cls-3" d="M54.27,135.92h0c11.08,2.7,9,1.54,17.2,6.09L103,159.45c8.21,4.55,11,4.94,16,12.32h0c-11.07-2.71-11.61-3-19.82-7.55l-35-19.38C56,140.29,62.44,143.87,54.27,135.92Z"/><path class="cls-3" d="M247.44,218.8h0c14.59-2.26,11.46-2.42,23.78-1.79l47.24,2.4c12.33.63,15.8-.2,26.1,4.33h0C330,226,329.17,226,316.85,225.34l-52.5-2.67C252,222,261.73,222.53,247.44,218.8Z"/><path class="cls-3" d="M19.11,215.78h0c14.58-2.26,11.45-2.42,23.77-1.79l47.25,2.4c12.32.63,15.8-.2,26.09,4.33h0c-14.59,2.26-15.39,2.22-27.71,1.6L36,219.65C23.69,219,33.39,219.51,19.11,215.78Z"/><path class="cls-4" d="M384.48,42.86,378.25,60A6.56,6.56,0,0,0,378,63.7l4,17.82a6.54,6.54,0,0,1-8.61,7.58l-17.17-6.23a6.56,6.56,0,0,0-3.67-.24l-17.82,4A6.54,6.54,0,0,1,327.18,78l6.23-17.17a6.56,6.56,0,0,0,.24-3.67l-4-17.81a6.54,6.54,0,0,1,8.61-7.59L355.41,38a6.65,6.65,0,0,0,3.67.23l17.82-4A6.54,6.54,0,0,1,384.48,42.86Z"/><path class="cls-5" d="M383.6,56.91,373.2,68.44a5.52,5.52,0,0,0-1.35,2.81l-2.53,15.32a5.56,5.56,0,0,1-9.21,3.22l-11.53-10.4A5.52,5.52,0,0,0,345.77,78l-15.32-2.53a5.56,5.56,0,0,1-3.22-9.21l10.39-11.53A5.45,5.45,0,0,0,339,52l2.53-15.32a5.56,5.56,0,0,1,9.21-3.22l11.53,10.4a5.52,5.52,0,0,0,2.81,1.35l15.32,2.53A5.56,5.56,0,0,1,383.6,56.91Z"/><path class="cls-6" d="M377.42,77.87l-15.51.69a5.55,5.55,0,0,0-3,1l-12.68,9a5.56,5.56,0,0,1-8.76-4.29l-.69-15.51a5.52,5.52,0,0,0-1-3L326.85,53.1a5.56,5.56,0,0,1,4.29-8.76l15.51-.7a5.59,5.59,0,0,0,3-1l12.68-9A5.56,5.56,0,0,1,371,38l.7,15.51a5.62,5.62,0,0,0,1,3l9,12.68A5.56,5.56,0,0,1,377.42,77.87Z"/><circle class="cls-7" cx="352.38" cy="59.81" r="12.31"/><circle class="cls-8" cx="352.38" cy="59.81" r="6.34"/><circle class="cls-9" cx="352.4" cy="60.37" r="3.36"/><path class="cls-4" d="M92.36,37.86l-6.53,18a6.88,6.88,0,0,0-.24,3.84l4.2,18.67a6.85,6.85,0,0,1-9,7.94l-18-6.53a6.92,6.92,0,0,0-3.85-.24l-18.67,4.2a6.85,6.85,0,0,1-7.94-9l6.53-18a6.83,6.83,0,0,0,.24-3.85L34.9,34.21a6.85,6.85,0,0,1,9-7.94l18,6.53a6.79,6.79,0,0,0,3.84.24l18.67-4.2A6.85,6.85,0,0,1,92.36,37.86Z"/><path class="cls-5" d="M91.44,52.57,80.55,64.65a5.86,5.86,0,0,0-1.42,2.95L76.48,83.65A5.83,5.83,0,0,1,66.83,87L54.75,76.13a5.91,5.91,0,0,0-3-1.42l-16-2.65a5.82,5.82,0,0,1-3.38-9.64L43.27,50.34a5.78,5.78,0,0,0,1.42-3l2.65-16A5.83,5.83,0,0,1,57,28l12.08,10.9a6,6,0,0,0,3,1.42l16,2.65A5.82,5.82,0,0,1,91.44,52.57Z"/><path class="cls-6" d="M85,74.53l-16.24.74a5.75,5.75,0,0,0-3.1,1.06L52.33,85.71a5.82,5.82,0,0,1-9.17-4.5L42.42,65a5.83,5.83,0,0,0-1.06-3.1L32,48.58a5.82,5.82,0,0,1,4.49-9.17l16.25-.74a5.75,5.75,0,0,0,3.1-1.06l13.29-9.38a5.82,5.82,0,0,1,9.17,4.49L79,49a5.75,5.75,0,0,0,1.06,3.1l9.38,13.29A5.82,5.82,0,0,1,85,74.53Z"/><circle class="cls-7" cx="58.73" cy="55.61" r="12.9"/><circle class="cls-8" cx="58.73" cy="55.61" r="6.64"/><circle class="cls-9" cx="58.76" cy="56.2" r="3.52"/><path class="cls-4" d="M423.87,142.29l-5.75,15.83a6,6,0,0,0-.22,3.38l3.7,16.43a6,6,0,0,1-7.94,7l-15.83-5.75a6,6,0,0,0-3.38-.22L378,182.66a6,6,0,0,1-7-7.94l5.75-15.83a6.08,6.08,0,0,0,.21-3.38l-3.7-16.43a6,6,0,0,1,7.94-7l15.83,5.74a6,6,0,0,0,3.38.22l16.43-3.7A6,6,0,0,1,423.87,142.29Z"/><path class="cls-5" d="M423.05,155.24l-9.58,10.63a5.11,5.11,0,0,0-1.25,2.6l-2.34,14.12a5.12,5.12,0,0,1-8.48,3L390.76,176a5.11,5.11,0,0,0-2.59-1.25L374,172.39a5.13,5.13,0,0,1-3-8.49l9.59-10.63a5.19,5.19,0,0,0,1.25-2.6l2.33-14.12a5.13,5.13,0,0,1,8.49-3l10.63,9.58a5.11,5.11,0,0,0,2.6,1.25l14.12,2.34A5.12,5.12,0,0,1,423.05,155.24Z"/><path class="cls-6" d="M417.35,174.57l-14.3.64a5.11,5.11,0,0,0-2.72.93l-11.7,8.26a5.12,5.12,0,0,1-8.07-4l-.65-14.31a5.14,5.14,0,0,0-.93-2.72l-8.26-11.69a5.13,5.13,0,0,1,4-8.08L389,143a5,5,0,0,0,2.72-.93l11.7-8.26a5.12,5.12,0,0,1,8.07,4l.65,14.3a5.09,5.09,0,0,0,.93,2.73l8.26,11.69A5.13,5.13,0,0,1,417.35,174.57Z"/><circle class="cls-7" cx="394.26" cy="157.91" r="11.35"/><circle class="cls-8" cx="394.26" cy="157.91" r="5.85"/><circle class="cls-9" cx="394.29" cy="158.43" r="3.1"/><path class="cls-4" d="M68.17,299l-6.24,17.17a6.55,6.55,0,0,0-.23,3.67l4,17.81a6.54,6.54,0,0,1-8.61,7.59L39.94,339a6.65,6.65,0,0,0-3.67-.23l-17.82,4a6.53,6.53,0,0,1-7.58-8.61L17.1,317a6.47,6.47,0,0,0,.23-3.67l-4-17.82A6.54,6.54,0,0,1,21.93,288l17.17,6.23a6.47,6.47,0,0,0,3.67.23l17.81-4A6.55,6.55,0,0,1,68.17,299Z"/><path class="cls-5" d="M67.28,313.05,56.89,324.58a5.65,5.65,0,0,0-1.36,2.82L53,342.71a5.55,5.55,0,0,1-9.2,3.23l-11.53-10.4a5.55,5.55,0,0,0-2.82-1.35l-15.31-2.54a5.55,5.55,0,0,1-3.22-9.2l10.39-11.53a5.65,5.65,0,0,0,1.36-2.81l2.53-15.32a5.55,5.55,0,0,1,9.2-3.22L45.93,300a5.65,5.65,0,0,0,2.82,1.36l15.31,2.53A5.55,5.55,0,0,1,67.28,313.05Z"/><path class="cls-6" d="M61.1,334l-15.51.7a5.59,5.59,0,0,0-3,1l-12.68,9a5.56,5.56,0,0,1-8.76-4.29l-.7-15.51a5.56,5.56,0,0,0-1-2.95l-9-12.68a5.56,5.56,0,0,1,4.29-8.76l15.51-.7a5.62,5.62,0,0,0,3-1l12.68-9a5.56,5.56,0,0,1,8.76,4.29l.69,15.51a5.49,5.49,0,0,0,1,2.95l9,12.68A5.56,5.56,0,0,1,61.1,334Z"/><circle class="cls-7" cx="36.06" cy="315.96" r="12.31"/><circle class="cls-8" cx="36.06" cy="315.96" r="6.34"/><circle class="cls-9" cx="36.09" cy="316.51" r="3.36"/></g></g></svg>