<svg xmlns="http://www.w3.org/2000/svg" viewBox="0 0 536.11 760.14"><defs><style>.cls-1{fill:#98bc62;}.cls-2{fill:none;stroke:#f0f;stroke-miterlimit:10;}.cls-3{fill:#72b03d;opacity:0.33;}.cls-4{fill:#f7ecf8;}.cls-5{fill:#f7c5f8;}.cls-6{fill:#f7d4f8;}.cls-7{fill:#a7d400;opacity:0.42;}.cls-8{fill:#f7bd5b;}.cls-9{fill:#f76a5b;}</style></defs><title>Asset 12</title><g id="Layer_2" data-name="Layer 2"><g id="Layer_1-2" data-name="Layer 1"><path class="cls-1" d="M286.16,740.59A198.56,198.56,0,0,0,486.53,639.07a3.13,3.13,0,0,0-.21-3.35c-2.63-3.69-5.15-7-7.16-8.52a3,3,0,0,0-.55-.32l-34.33-54.52a3.16,3.16,0,0,1,1.47-6l51.95-16.61c2.79.14,7-1.68,11.47-4.11a3.18,3.18,0,0,0,1.67-2.8c-.37-96.59-71.3-181-169.78-195.4C233.64,331.7,133.75,405.16,116.41,511.93,98.55,621.86,175.77,725.87,286.16,740.59Z"/><path class="cls-1" d="M317.61,34.27A198.58,198.58,0,0,0,93,38.15a3.18,3.18,0,0,0-1.27,3.12c.76,4.46,1.57,8.56,2.73,10.79a3.1,3.1,0,0,0,.36.53l17.88,69.27a3.16,3.16,0,0,1-4,4.79L44,113.68c-2.46-1.35-7-1.54-12.12-1.31a3.19,3.19,0,0,0-2.73,1.79c-41.82,87.07-14.83,194,67.48,249.9,89.79,61,211.73,38.51,273.93-50C434.59,223,410.52,95.68,317.61,34.27Z"/><line class="cls-2" x1="9.5" y1="182" x2="9.5" y2="182"/><path class="cls-3" d="M85.64,311.22h0c6.69-9.23,4.83-7.73,12.15-13.61l28.06-22.55c7.32-5.88,8.73-8.3,17.47-10.19h0c-6.7,9.23-7.17,9.61-14.49,15.49L97.65,305.42C90.33,311.3,96.09,306.67,85.64,311.22Z"/><path class="cls-3" d="M252.27,144.86h0c.15-11.4-.51-9.1,2.08-18.12l9.92-34.61c2.59-9,2.35-11.81,8.4-18.4h0c-.15,11.4-.32,12-2.9,21l-11,38.45C256.15,142.22,258.18,135.12,252.27,144.86Z"/><path class="cls-3" d="M155.89,352.87h0C159,339,157.74,341.75,162.73,331l19.14-41.21c5-10.75,5.47-14.16,13.35-21.64h0c-3.13,13.86-3.45,14.56-8.44,25.31l-21.26,45.79C160.53,350,164.45,341.54,155.89,352.87Z"/><path class="cls-3" d="M310.75,208.29h0c11.31-1.47,8.94-1.8,18.25-.52l35.66,4.92c9.3,1.28,12,.64,19.4,5.7h0c-11.3,1.47-11.91,1.39-21.21.1L323.22,213C313.92,211.75,321.24,212.76,310.75,208.29Z"/><path class="cls-3" d="M343.48,314.37h0c-8.48-7.63-7.18-5.62-12.26-13.51l-19.48-30.28c-5.08-7.9-7.33-9.55-8.29-18.45h0c8.47,7.63,8.8,8.15,13.88,16L339,301.82C344.05,309.71,340.05,303.5,343.48,314.37Z"/><path class="cls-3" d="M291,168.8h0c3.22-10.93,2-8.9,6.9-16.89l18.89-30.64c4.93-8,5.45-10.74,13.06-15.45h0c-3.22,10.94-3.54,11.46-8.47,19.45l-21,34C295.49,167.31,299.37,161,291,168.8Z"/><path class="cls-3" d="M209.13,357.14h0c-2-11.23-2.21-8.85-1.36-18.2L211,303.09c.84-9.35.08-12,4.79-19.65h0c2,11.23,1.94,11.83,1.09,21.18l-3.61,39.84C212.45,353.81,213.11,346.45,209.13,357.14Z"/><path class="cls-3" d="M207,146.94h0c-8-12.43-6.84-9.5-11.24-21l-16.87-44.2c-4.4-11.53-6.56-14.38-6.57-25.62h0c8,12.43,8.24,13.18,12.64,24.71l18.75,49.1C208.11,141.44,204.65,132.37,207,146.94Z"/><path class="cls-3" d="M296.4,357.07h0c-8-12.43-6.84-9.5-11.24-21l-16.87-44.2c-4.4-11.53-6.56-14.38-6.57-25.63h0c8,12.44,8.24,13.19,12.64,24.72L293.11,340C297.51,351.57,294.05,342.5,296.4,357.07Z"/><path class="cls-4" d="M6.11,107.65l18.22-1.23a6.5,6.5,0,0,0,3.45-1.26L42.46,94.29a6.55,6.55,0,0,1,10.42,4.82l1.22,18.22a6.6,6.6,0,0,0,1.27,3.45l10.86,14.68a6.54,6.54,0,0,1-4.81,10.42L43.19,147.1a6.66,6.66,0,0,0-3.45,1.27L25.06,159.23a6.54,6.54,0,0,1-10.41-4.81l-1.23-18.23a6.57,6.57,0,0,0-1.26-3.45L1.29,118.06A6.54,6.54,0,0,1,6.11,107.65Z"/><path class="cls-5" d="M19.31,102.79l14.75,4.85a5.52,5.52,0,0,0,3.12.11l15-3.87A5.56,5.56,0,0,1,58.88,111L54,125.75a5.52,5.52,0,0,0-.1,3.12l3.86,15a5.56,5.56,0,0,1-7.12,6.67l-14.74-4.86a5.56,5.56,0,0,0-3.13-.1l-15,3.86a5.55,5.55,0,0,1-6.66-7.12L16,127.61a5.65,5.65,0,0,0,.11-3.13l-3.87-15A5.56,5.56,0,0,1,19.31,102.79Z"/><path class="cls-6" d="M41,100l6.9,13.91a5.6,5.6,0,0,0,2.12,2.3l13.31,8a5.56,5.56,0,0,1-.39,9.75L49,140.82a5.47,5.47,0,0,0-2.3,2.12l-8,13.31a5.56,5.56,0,0,1-9.74-.39L22.09,142A5.51,5.51,0,0,0,20,139.66l-13.31-8a5.56,5.56,0,0,1,.39-9.75L21,115a5.64,5.64,0,0,0,2.29-2.12l8-13.32A5.56,5.56,0,0,1,41,100Z"/><circle class="cls-7" cx="34.57" cy="130.18" r="12.31"/><circle class="cls-8" cx="34.57" cy="130.18" r="6.34"/><circle class="cls-9" cx="35.07" cy="129.93" r="3.36"/><path class="cls-4" d="M155.9,372.87,175,371.58a6.8,6.8,0,0,0,3.62-1.32L194,358.87a6.85,6.85,0,0,1,10.91,5.05L206.19,383a6.8,6.8,0,0,0,1.32,3.62L218.9,402a6.85,6.85,0,0,1-5.05,10.91l-19.09,1.29a6.85,6.85,0,0,0-3.62,1.32l-15.38,11.39a6.85,6.85,0,0,1-10.91-5.05l-1.29-19.09a6.89,6.89,0,0,0-1.33-3.62l-11.38-15.38A6.85,6.85,0,0,1,155.9,372.87Z"/><path class="cls-5" d="M169.73,367.77l15.45,5.09a5.78,5.78,0,0,0,3.27.11l15.76-4.05a5.82,5.82,0,0,1,7,7.46l-5.09,15.45a5.78,5.78,0,0,0-.11,3.27l4,15.76a5.82,5.82,0,0,1-7.46,7l-15.45-5.09a5.78,5.78,0,0,0-3.27-.11l-15.75,4.05a5.83,5.83,0,0,1-7-7.46l5.09-15.45a5.78,5.78,0,0,0,.11-3.27l-4-15.75A5.83,5.83,0,0,1,169.73,367.77Z"/><path class="cls-6" d="M192.44,364.84l7.23,14.57a5.71,5.71,0,0,0,2.22,2.4l14,8.37a5.83,5.83,0,0,1-.41,10.21l-14.57,7.23a5.87,5.87,0,0,0-2.41,2.22l-8.37,14a5.82,5.82,0,0,1-10.21-.41l-7.23-14.57a5.8,5.8,0,0,0-2.22-2.41L156.48,398a5.82,5.82,0,0,1,.4-10.21l14.58-7.23a5.9,5.9,0,0,0,2.4-2.22l8.37-13.95A5.82,5.82,0,0,1,192.44,364.84Z"/><circle class="cls-7" cx="185.72" cy="396.48" r="12.9"/><circle class="cls-8" cx="185.72" cy="396.48" r="6.64"/><circle class="cls-9" cx="186.24" cy="396.22" r="3.52"/><path class="cls-4" d="M265.61,13.51l16.81-1.13a6,6,0,0,0,3.18-1.17l13.54-10a6,6,0,0,1,9.6,4.44l1.13,16.81A6,6,0,0,0,311,25.62l10,13.54a6,6,0,0,1-4.44,9.6l-16.81,1.13a6.11,6.11,0,0,0-3.18,1.17l-13.54,10a6,6,0,0,1-9.6-4.44l-1.13-16.81a6.11,6.11,0,0,0-1.17-3.18l-10-13.54A6,6,0,0,1,265.61,13.51Z"/><path class="cls-5" d="M277.79,9l13.59,4.47a5.14,5.14,0,0,0,2.88.1L308.13,10a5.13,5.13,0,0,1,6.14,6.57L309.8,30.2a5.13,5.13,0,0,0-.1,2.88l3.56,13.86a5.12,5.12,0,0,1-6.56,6.15l-13.6-4.48a5.13,5.13,0,0,0-2.88-.1l-13.86,3.57a5.13,5.13,0,0,1-6.15-6.57l4.48-13.6a5.13,5.13,0,0,0,.1-2.88l-3.57-13.86A5.12,5.12,0,0,1,277.79,9Z"/><path class="cls-6" d="M297.77,6.44l6.36,12.82a5.14,5.14,0,0,0,2,2.12l12.27,7.37a5.12,5.12,0,0,1-.35,9L305.18,44.1a5.11,5.11,0,0,0-2.12,1.95L295.7,58.33a5.13,5.13,0,0,1-9-.36l-6.36-12.83a5.18,5.18,0,0,0-2-2.12l-12.28-7.36a5.13,5.13,0,0,1,.36-9l12.82-6.36a5.05,5.05,0,0,0,2.12-1.95l7.37-12.28A5.12,5.12,0,0,1,297.77,6.44Z"/><circle class="cls-7" cx="291.86" cy="34.29" r="11.35"/><circle class="cls-8" cx="291.86" cy="34.29" r="5.85"/><circle class="cls-9" cx="292.32" cy="34.06" r="3.1"/><path class="cls-4" d="M317.48,711.38l16.81-1.13a6,6,0,0,0,3.18-1.17l13.54-10a6,6,0,0,1,9.6,4.45l1.13,16.8a6.08,6.08,0,0,0,1.17,3.18l10,13.54a6,6,0,0,1-4.44,9.6l-16.81,1.13a6.11,6.11,0,0,0-3.18,1.17L335,759a6,6,0,0,1-9.6-4.44l-1.13-16.8a6,6,0,0,0-1.17-3.19L313,721A6,6,0,0,1,317.48,711.38Z"/><path class="cls-5" d="M329.66,706.9l13.6,4.48a5.13,5.13,0,0,0,2.88.09L360,707.91a5.13,5.13,0,0,1,6.15,6.56l-4.48,13.6a5.13,5.13,0,0,0-.1,2.88l3.57,13.87a5.12,5.12,0,0,1-6.57,6.14L345,746.48a5.13,5.13,0,0,0-2.88-.09L328.23,750a5.13,5.13,0,0,1-6.15-6.57l4.48-13.59a5.13,5.13,0,0,0,.1-2.88L323.09,713A5.12,5.12,0,0,1,329.66,706.9Z"/><path class="cls-6" d="M349.65,704.31,356,717.14a5,5,0,0,0,1.95,2.11l12.28,7.37a5.13,5.13,0,0,1-.36,9L357.05,742a5.09,5.09,0,0,0-2.11,1.95l-7.37,12.28a5.13,5.13,0,0,1-9-.36L332.22,743a5.09,5.09,0,0,0-2-2.11L318,733.53a5.12,5.12,0,0,1,.36-9l12.83-6.37a5.09,5.09,0,0,0,2.11-1.95L340.66,704A5.13,5.13,0,0,1,349.65,704.31Z"/><circle class="cls-7" cx="343.73" cy="732.16" r="11.35"/><circle class="cls-8" cx="343.73" cy="732.16" r="5.85"/><circle class="cls-9" cx="344.19" cy="731.93" r="3.1"/><path class="cls-4" d="M334.36,310.07l16.4,3.82a5.94,5.94,0,0,0,3.39-.19L370,308.07a6,6,0,0,1,7.89,7.05l-3.82,16.4a6,6,0,0,0,.19,3.39l5.63,15.87a6,6,0,0,1-7.05,7.89l-16.4-3.82a6,6,0,0,0-3.38.19l-15.88,5.63a6,6,0,0,1-7.89-7.05l3.82-16.4a6,6,0,0,0-.19-3.38L327.31,318A6,6,0,0,1,334.36,310.07Z"/><path class="cls-5" d="M347.31,309.34l11.7,8.25a5.23,5.23,0,0,0,2.73.93l14.3.63a5.12,5.12,0,0,1,4,8.07l-8.25,11.7a5.17,5.17,0,0,0-.93,2.73l-.63,14.3a5.13,5.13,0,0,1-8.08,4l-11.7-8.24a5.12,5.12,0,0,0-2.72-.94l-14.3-.63a5.13,5.13,0,0,1-4-8.07l8.25-11.7a5.06,5.06,0,0,0,.93-2.73l.64-14.3A5.12,5.12,0,0,1,347.31,309.34Z"/><path class="cls-6" d="M367.18,312.69l2.35,14.12a5.11,5.11,0,0,0,1.25,2.6L380.37,340a5.12,5.12,0,0,1-3,8.49l-14.12,2.34a5.19,5.19,0,0,0-2.6,1.25l-10.62,9.6a5.14,5.14,0,0,1-8.5-3l-2.34-14.12A5.12,5.12,0,0,0,338,342l-9.6-10.63a5.13,5.13,0,0,1,3-8.49l14.12-2.35a5.11,5.11,0,0,0,2.6-1.25l10.62-9.59A5.12,5.12,0,0,1,367.18,312.69Z"/><circle class="cls-7" cx="353.4" cy="337.6" r="11.35"/><circle class="cls-8" cx="353.4" cy="337.6" r="5.85"/><circle class="cls-9" cx="353.91" cy="337.52" r="3.1"/><path class="cls-4" d="M94.47,614.45l16.8-1.14a6,6,0,0,0,3.19-1.16l13.53-10a6,6,0,0,1,9.61,4.44l1.13,16.8a6.06,6.06,0,0,0,1.17,3.19l10,13.53a6,6,0,0,1-4.44,9.61l-16.8,1.13a6,6,0,0,0-3.18,1.17L112,662a6,6,0,0,1-9.6-4.44l-1.14-16.8a6,6,0,0,0-1.16-3.18L90,624.05A6,6,0,0,1,94.47,614.45Z"/><path class="cls-5" d="M106.64,610l13.6,4.48a5.13,5.13,0,0,0,2.88.1L137,611a5.12,5.12,0,0,1,6.14,6.57l-4.48,13.59a5.14,5.14,0,0,0-.09,2.88l3.56,13.87a5.12,5.12,0,0,1-6.57,6.14L122,649.55a5.13,5.13,0,0,0-2.88-.1L105.21,653a5.12,5.12,0,0,1-6.14-6.56l4.48-13.6a5.13,5.13,0,0,0,.09-2.88l-3.56-13.86A5.12,5.12,0,0,1,106.64,610Z"/><path class="cls-6" d="M126.63,607.38,133,620.2a5.2,5.2,0,0,0,2,2.12l12.27,7.36a5.13,5.13,0,0,1-.36,9L134,645a5.14,5.14,0,0,0-2.12,2l-7.36,12.27a5.13,5.13,0,0,1-9-.36l-6.36-12.82a5.14,5.14,0,0,0-2-2.12L95,636.59a5.12,5.12,0,0,1,.36-9l12.82-6.36a5.2,5.2,0,0,0,2.12-2L117.64,607A5.13,5.13,0,0,1,126.63,607.38Z"/><circle class="cls-7" cx="120.72" cy="635.22" r="11.35"/><circle class="cls-8" cx="120.72" cy="635.22" r="5.85"/><circle class="cls-9" cx="121.17" cy="634.99" r="3.1"/><path class="cls-4" d="M479.47,526.45l16.8-1.14a6,6,0,0,0,3.19-1.16l13.53-10a6,6,0,0,1,9.61,4.44l1.13,16.8a6.06,6.06,0,0,0,1.17,3.19l10,13.53a6,6,0,0,1-4.44,9.61l-16.8,1.13a6,6,0,0,0-3.18,1.17L497,574a6,6,0,0,1-9.6-4.44l-1.14-16.8a6,6,0,0,0-1.16-3.18l-10-13.54A6,6,0,0,1,479.47,526.45Z"/><path class="cls-5" d="M491.64,522l13.6,4.48a5.13,5.13,0,0,0,2.88.1L522,523a5.12,5.12,0,0,1,6.14,6.57l-4.48,13.59a5.14,5.14,0,0,0-.09,2.88l3.56,13.87a5.12,5.12,0,0,1-6.57,6.14L507,561.55a5.13,5.13,0,0,0-2.88-.1L490.21,565a5.12,5.12,0,0,1-6.14-6.56l4.48-13.6a5.13,5.13,0,0,0,.09-2.88l-3.56-13.86A5.12,5.12,0,0,1,491.64,522Z"/><path class="cls-6" d="M511.63,519.38,518,532.2a5.2,5.2,0,0,0,2,2.12l12.27,7.36a5.13,5.13,0,0,1-.36,9L519,557a5.14,5.14,0,0,0-2.12,2l-7.36,12.27a5.13,5.13,0,0,1-9-.36l-6.36-12.82a5.14,5.14,0,0,0-2-2.12L480,548.59a5.12,5.12,0,0,1,.36-9l12.82-6.36a5.2,5.2,0,0,0,2.12-2L502.64,519A5.13,5.13,0,0,1,511.63,519.38Z"/><circle class="cls-7" cx="505.72" cy="547.22" r="11.35"/><circle class="cls-8" cx="505.72" cy="547.22" r="5.85"/><circle class="cls-9" cx="506.17" cy="546.99" r="3.1"/><path class="cls-3" d="M316,486.47h0c-4.49-13.48-4.16-10.48-5.45-22.26L305.67,419c-1.29-11.78-2.64-15,.25-25.42h0c4.48,13.47,4.57,14.24,5.85,26l5.47,50.19C318.52,481.61,317.51,472.34,316,486.47Z"/><path class="cls-3" d="M360.77,496.87h0c1.86-14.08.84-11.24,4.84-22.39l15.33-42.78c4-11.15,4.16-14.59,11.34-22.75h0c-1.86,14.08-2.12,14.81-6.12,26l-17,47.53C365.13,493.6,368.28,484.82,360.77,496.87Z"/><path class="cls-3" d="M265.26,503.38h0c-11-8.93-9.15-6.59-16.59-15.81l-28.5-35.38c-7.44-9.23-10.29-11.17-13.51-21.54h0c11.05,8.93,11.53,9.53,19,18.76l31.68,39.31C264.74,497.94,258.89,490.68,265.26,503.38Z"/><path class="cls-3" d="M200.61,643.78h0c7.82-11.86,5.66-9.75,14.13-18l32.44-31.81c8.46-8.29,10.11-11.31,20.12-15.53h0c-7.81,11.87-8.36,12.41-16.82,20.7l-36,35.35C206,642.73,212.63,636.2,200.61,643.78Z"/><path class="cls-3" d="M290.31,599.78h0c2.7,14,2.76,10.94,2.51,22.78l-1,45.43c-.26,11.85.67,15.16-3.55,25.17h0c-2.7-13.94-2.68-14.72-2.42-26.56L287,616.12C287.21,604.28,287,613.6,290.31,599.78Z"/><path class="cls-3" d="M395.24,531.39h0c7.95-11.77,5.77-9.68,14.33-17.88l32.81-31.43c8.56-8.2,10.24-11.2,20.3-15.3h0c-7.95,11.77-8.51,12.31-17.06,20.5l-36.46,34.93C400.6,530.4,407.34,524,395.24,531.39Z"/><path class="cls-3" d="M352.64,595.17h0c4.22,13.56,4,10.55,5,22.36l4.05,45.25c1.05,11.81,2.34,15-.74,25.41h0c-4.23-13.56-4.3-14.33-5.35-26.13l-4.5-50.28C350.06,600,350.89,609.26,352.64,595.17Z"/><path class="cls-3" d="M390.8,570.92h0c11.32,8.58,9.35,6.29,17.07,15.29l29.58,34.48c7.72,9,10.63,10.84,14.16,21.11h0c-11.31-8.58-11.82-9.17-19.53-18.16l-32.87-38.32C391.49,576.33,397.56,583.41,390.8,570.92Z"/><path class="cls-3" d="M152.26,552.44h0c13.49-4.45,10.49-4.13,22.27-5.38l45.18-4.78c11.79-1.25,15-2.59,25.42.32h0c-13.49,4.45-14.25,4.53-26,5.78l-50.2,5.31C157.1,554.94,166.38,554,152.26,552.44Z"/></g></g></svg>