<svg xmlns="http://www.w3.org/2000/svg" viewBox="0 0 422.38 400.78"><defs><style>.cls-1{fill:#97bb62;}.cls-2{fill:none;stroke:#f0f;stroke-miterlimit:10;}.cls-3{fill:#72af3d;opacity:0.33;}.cls-4{fill:#f6ebf7;}.cls-5{fill:#f6c4f7;}.cls-6{fill:#f6d3f7;}.cls-7{fill:#a6d300;opacity:0.42;}.cls-8{fill:#f6bc5b;}.cls-9{fill:#f66a5b;}</style></defs><title>Asset 23</title><g id="Layer_2" data-name="Layer 2"><g id="Layer_1-2" data-name="Layer 1"><path class="cls-1" d="M219.86,3.82A198.57,198.57,0,0,0,37.23,134.59a3.17,3.17,0,0,0,.71,3.29c3.17,3.24,6.16,6.16,8.38,7.33a3.1,3.1,0,0,0,.6.23L101,192.29a3.16,3.16,0,0,1-.54,6.19L39.77,224.6c-2.78.29-6.64,2.72-10.72,5.81a3.18,3.18,0,0,0-1.23,3c15,95.42,98,168.07,197.5,167.34C333.88,400,421.45,312.2,422.37,204,423.32,92.67,331.2,1.59,219.86,3.82Z"/><line class="cls-2" x1="352.03" y1="357.31" x2="352.03" y2="357.31"/><path class="cls-3" d="M373.91,240.55h0c-11.19-2.2-9.05-1.14-17.46-5.31l-32.25-16c-8.41-4.18-11.2-4.44-16.58-11.58h0c11.18,2.2,11.73,2.47,20.14,6.65l35.84,17.77C372,236.26,365.39,233,373.91,240.55Z"/><path class="cls-3" d="M155.05,210.63h0c-8.22,7.9-6.12,6.76-14.36,11.26l-31.6,17.24c-8.25,4.5-10.06,6.63-19,7h0c8.22-7.9,8.76-8.2,17-12.69l35.11-19.16C150.44,209.73,144,213.27,155.05,210.63Z"/><path class="cls-3" d="M370.79,133.1h0c-12.06,7.51-9.22,6.49-20.38,10.49l-42.77,15.33c-11.15,4-13.92,6.06-24.77,5.7h0c12.06-7.51,12.78-7.77,23.94-11.77l47.52-17C365.48,131.81,356.71,135,370.79,133.1Z"/><path class="cls-3" d="M159.1,124.45h0c-9-7-7.56-5.1-13.18-12.62L124.36,83c-5.62-7.52-8-9-9.57-17.82h0c9,7,9.35,7.51,15,15l24,32C159.34,119.76,154.91,113.84,159.1,124.45Z"/><path class="cls-3" d="M203.39,25.76h0c3.05,13.08,3,10.24,3.07,21.42l.15,42.87c0,11.18,1,14.28-2.92,23.82h0c-3-13.08-3.05-13.81-3.08-25l-.17-47.63C200.4,30.07,200.44,38.86,203.39,25.76Z"/><path class="cls-3" d="M297.36,323.34h0c-8.6-7.49-7.27-5.5-12.48-13.32l-19.95-30c-5.2-7.81-7.48-9.43-8.59-18.31h0c8.6,7.5,8.94,8,14.14,15.82l22.17,33.3C297.85,318.67,293.76,312.52,297.36,323.34Z"/><path class="cls-3" d="M188.33,241.39h0c-3.26,14.39-2,11.54-7.07,22.77l-19.6,43C156.55,318.44,156,322,148,329.89h0c3.26-14.4,3.59-15.13,8.7-26.36l21.78-47.84C183.63,244.46,179.61,253.3,188.33,241.39Z"/><path class="cls-3" d="M298,60h0c-6.93,13-4.92,10.62-12.8,20.11L255,116.48c-7.88,9.49-9.31,12.77-19.1,18.3h0c6.93-13,7.44-13.65,15.33-23.14l33.59-40.43C292.66,61.72,286.46,69.19,298,60Z"/><path class="cls-4" d="M40.58,267.5,26.91,255.39a6.51,6.51,0,0,0-3.33-1.56L5.54,251a6.53,6.53,0,0,1-3.89-10.79l12.11-13.68a6.48,6.48,0,0,0,1.56-3.32l2.82-18.05a6.54,6.54,0,0,1,10.79-3.89l13.68,12.11A6.57,6.57,0,0,0,45.93,215l18,2.81a6.55,6.55,0,0,1,3.89,10.8L55.76,242.24a6.61,6.61,0,0,0-1.57,3.33l-2.81,18A6.54,6.54,0,0,1,40.58,267.5Z"/><path class="cls-5" d="M27.85,261.52,21,247.61a5.64,5.64,0,0,0-2.12-2.29l-13.32-8a5.55,5.55,0,0,1,.39-9.74l13.9-6.9a5.54,5.54,0,0,0,2.3-2.12l8-13.32a5.57,5.57,0,0,1,9.75.39l6.9,13.91a5.51,5.51,0,0,0,2.12,2.29l13.31,8a5.55,5.55,0,0,1-.38,9.74l-13.91,6.9a5.58,5.58,0,0,0-2.29,2.12l-8,13.32A5.56,5.56,0,0,1,27.85,261.52Z"/><path class="cls-6" d="M10.63,248.06l5-14.67a5.65,5.65,0,0,0,.14-3.13l-3.66-15.08a5.55,5.55,0,0,1,7.2-6.57l14.68,5a5.53,5.53,0,0,0,3.12.15l15.09-3.67a5.56,5.56,0,0,1,6.57,7.21l-5,14.68a5.53,5.53,0,0,0-.15,3.12l3.67,15.08a5.56,5.56,0,0,1-7.21,6.57L35.4,251.75a5.61,5.61,0,0,0-3.12-.14L17.2,255.27A5.56,5.56,0,0,1,10.63,248.06Z"/><circle class="cls-7" cx="36.62" cy="231.41" r="12.31"/><circle class="cls-8" cx="36.62" cy="231.41" r="6.34"/><circle class="cls-9" cx="36.1" cy="231.24" r="3.36"/><path class="cls-4" d="M358.61,391.67,344.28,379a6.82,6.82,0,0,0-3.48-1.64l-18.91-3a6.85,6.85,0,0,1-4.07-11.31l12.68-14.33a6.81,6.81,0,0,0,1.64-3.49l2.95-18.9a6.85,6.85,0,0,1,11.31-4.08L360.73,335a6.82,6.82,0,0,0,3.48,1.64l18.91,2.95a6.85,6.85,0,0,1,4.07,11.31l-12.68,14.33a6.82,6.82,0,0,0-1.64,3.48l-2.95,18.91A6.85,6.85,0,0,1,358.61,391.67Z"/><path class="cls-5" d="M345.26,385.41,338,370.84a5.74,5.74,0,0,0-2.22-2.41l-13.95-8.36a5.82,5.82,0,0,1,.41-10.21l14.57-7.24a5.77,5.77,0,0,0,2.4-2.22l8.37-13.95a5.83,5.83,0,0,1,10.21.41l7.23,14.57a5.78,5.78,0,0,0,2.22,2.4l14,8.37a5.82,5.82,0,0,1-.41,10.21l-14.57,7.23a5.9,5.9,0,0,0-2.4,2.22l-8.37,13.95A5.82,5.82,0,0,1,345.26,385.41Z"/><path class="cls-6" d="M327.22,371.31l5.29-15.38a5.78,5.78,0,0,0,.16-3.27l-3.85-15.81a5.83,5.83,0,0,1,7.56-6.88l15.38,5.29a5.78,5.78,0,0,0,3.27.16l15.8-3.85a5.83,5.83,0,0,1,6.88,7.56l-5.29,15.38a5.87,5.87,0,0,0-.15,3.27l3.84,15.8a5.82,5.82,0,0,1-7.55,6.88l-15.38-5.29a5.87,5.87,0,0,0-3.27-.15l-15.81,3.84A5.82,5.82,0,0,1,327.22,371.31Z"/><circle class="cls-7" cx="354.46" cy="353.86" r="12.9"/><circle class="cls-8" cx="354.46" cy="353.86" r="6.64"/><circle class="cls-9" cx="353.91" cy="353.68" r="3.52"/><path class="cls-4" d="M332.64,62.58,320,51.42A6,6,0,0,0,317,50l-16.64-2.6a6,6,0,0,1-3.58-10L307.9,24.81a6,6,0,0,0,1.45-3.06l2.59-16.64a6,6,0,0,1,10-3.59l12.61,11.17a6.07,6.07,0,0,0,3.07,1.44l16.64,2.6a6,6,0,0,1,3.58,10L346.64,39.29a6,6,0,0,0-1.45,3.07L342.6,59A6,6,0,0,1,332.64,62.58Z"/><path class="cls-5" d="M320.9,57.07l-6.37-12.82a5.05,5.05,0,0,0-1.95-2.12L300.3,34.77a5.13,5.13,0,0,1,.36-9l12.82-6.36a5.2,5.2,0,0,0,2.12-2L323,5.18a5.13,5.13,0,0,1,9,.36l6.36,12.82a5.14,5.14,0,0,0,2,2.12l12.27,7.36a5.13,5.13,0,0,1-.35,9l-12.83,6.36a5.18,5.18,0,0,0-2.11,2l-7.37,12.28A5.12,5.12,0,0,1,320.9,57.07Z"/><path class="cls-6" d="M305,44.66l4.66-13.53a5.23,5.23,0,0,0,.13-2.88l-3.38-13.91a5.12,5.12,0,0,1,6.65-6.06l13.53,4.66a5.14,5.14,0,0,0,2.88.13L343.4,9.69a5.13,5.13,0,0,1,6.06,6.65L344.8,29.87a5.14,5.14,0,0,0-.13,2.88l3.38,13.91a5.13,5.13,0,0,1-6.65,6.06l-13.54-4.66a5.1,5.1,0,0,0-2.87-.13l-13.91,3.38A5.13,5.13,0,0,1,305,44.66Z"/><circle class="cls-7" cx="328.99" cy="29.31" r="11.35"/><circle class="cls-8" cx="328.99" cy="29.31" r="5.85"/><circle class="cls-9" cx="328.51" cy="29.14" r="3.1"/><path class="cls-4" d="M45.63,162.18,32,150.07a6.51,6.51,0,0,0-3.33-1.56l-18-2.82a6.54,6.54,0,0,1-3.89-10.8l12.11-13.67a6.51,6.51,0,0,0,1.56-3.33l2.82-18A6.54,6.54,0,0,1,34,96l13.68,12.11A6.48,6.48,0,0,0,51,109.63L69,112.45a6.53,6.53,0,0,1,3.88,10.79l-12.1,13.68a6.57,6.57,0,0,0-1.57,3.32l-2.81,18A6.54,6.54,0,0,1,45.63,162.18Z"/><path class="cls-5" d="M32.9,156.2,26,142.29A5.45,5.45,0,0,0,23.87,140l-13.31-8a5.55,5.55,0,0,1,.39-9.74l13.9-6.9a5.6,5.6,0,0,0,2.3-2.12l8-13.32a5.56,5.56,0,0,1,9.75.39l6.9,13.9a5.54,5.54,0,0,0,2.12,2.3l13.31,8a5.56,5.56,0,0,1-.38,9.75l-13.91,6.9a5.51,5.51,0,0,0-2.29,2.12l-8,13.31A5.55,5.55,0,0,1,32.9,156.2Z"/><path class="cls-6" d="M15.68,142.74l5.05-14.68a5.61,5.61,0,0,0,.14-3.12l-3.66-15.08a5.55,5.55,0,0,1,7.2-6.57l14.68,5a5.53,5.53,0,0,0,3.12.15l15.09-3.67A5.56,5.56,0,0,1,63.87,112l-5,14.68a5.52,5.52,0,0,0-.15,3.12l3.67,15.08a5.56,5.56,0,0,1-7.21,6.57l-14.68-5a5.53,5.53,0,0,0-3.12-.15L22.25,150A5.56,5.56,0,0,1,15.68,142.74Z"/><circle class="cls-7" cx="41.67" cy="126.09" r="12.31"/><circle class="cls-8" cx="41.67" cy="126.09" r="6.34"/><circle class="cls-9" cx="41.15" cy="125.91" r="3.36"/></g></g></svg>