<svg xmlns="http://www.w3.org/2000/svg" viewBox="0 0 439.04 436.56"><defs><style>.cls-1{fill:#8d5233;}.cls-2{fill:#da9157;}.cls-3{fill:#ffd888;}.cls-4{fill:#f8c479;opacity:0.41;}</style></defs><title>Asset 2</title><g id="Layer_2" data-name="Layer 2"><g id="Capa_1" data-name="Capa 1"><path class="cls-1" d="M432.08,276.09c1.21,6.08,2.12,12.87,1.66,18.2a27.29,27.29,0,0,1-3.63,11c-1,6.69-2.6,12.54-5,17.12-3,5.7-7.8,11.94-13.73,18.4-3.61,13.07-12.23,16.72-18,17.66-2.06,1.88-4.15,3.76-6.25,5.63-1.11,5.44-3.87,13.62-10.75,18.18-5.56,3.67-13.78,6.82-20.54,9-3.83,3.43-7.23,6.61-10,9.44a42.41,42.41,0,0,1-5,4.29c-3.8,8-11.9,18.61-28.93,23.86-9.44,2.91-23.59,3.53-38.46,3-14.16,3.39-26.52,5.16-33,4.5-10-1-26.3-4.53-46.73-8.36-21.72,3.53-30.25-5.2-30.25-5.2a37.38,37.38,0,0,1-22.42,4.07c-5.43-.68-11.52-4.74-16.79-9.26C80,410.09,53.24,378.36,47.47,359.11c-.58-1.94-1.3-4.13-2.12-6.53-9.8-7.36-14.61-15.21-15.57-23.9-.52-4.73.34-10.09.25-15.31-2.11-5.1-4.29-10.29-6.49-15.48-7.68-6.41-11.45-15.63-11.23-26.2-1.81-4.19-3.55-8.22-5.2-12C-5.14,231.38-.66,172,13.65,142.1h0a33.29,33.29,0,0,1,14.61-21.93C33.88,112.12,40,103,46.44,93.5a0,0,0,0,0,0,0c2.41-6.22,4.88-12.86,6.81-18.64,3.23-9.71,13.81-18,22.2-23.33,4.8-6.62,9.56-12.94,14.19-18.71.47-.59,1-1.16,1.46-1.72C99.45,14.88,115.76,11,128.54,10.76A182.83,182.83,0,0,1,159,6.35c6.85-2.88,15.88-5.78,25.27-6.3S205.89,3,216.21,6.68c10,1.58,21.34,3.62,33.37,5.15,7.54-1.78,17-3.59,24.76-3.59,7.07,0,15.4,2.56,22.33,5.32,10,.36,20.29,3.08,30.36,7.26,9.91.76,21.79,2.55,27.55,6.65,5.19,3.69,11.49,12.46,16.66,20.67,10.21,8.37,18.38,16.65,23.2,22.72,1.55,2,3.1,4.08,4.64,6.3,5,3.88,9.87,8.39,12.89,13,3.76,5.73,6,15.77,7.34,25,14,33.13,22.77,71.35,17,91.08,6.22,20.78.3,38.55-4.16,47.85C432.17,261.4,432.19,268.85,432.08,276.09Z"/><path class="cls-2" d="M65.45,91.31c-14.8,15.75-44.22,63.05-36,97.44S31.06,260.8,36,277.18s9,64.69,39.3,81.06,74.52,33.58,99.08,45.86,88.44,8.19,114.64-8.19,65.5-40.94,82.7-49.13,43.4-38.48,40.94-81.06,1.14-79.43.16-95.81-27.18-72-46.83-85.16-57.32-49.12-81.07-56.49-77,10.64-104.81,7.37S90.83,64.28,65.45,91.31Z"/><path class="cls-3" d="M383,220c1,5.46,1.71,7.64,1.71,7.64,1.81,6.44,3.44,8.49,3.21,14.47-.35,8.85-3.94,12.35-9,23.75-8.08,18.14-3.34,20.34-9.83,35.21-2.93,6.73-10.93,25.06-28.66,34.39-13.62,7.17-20.93,2.66-31.11,12.28-6.15,5.81-6.82,10.6-14.74,15.56-5.14,3.22-10.13,4.5-18,5.73-19.76,3.08-24.49.67-37.66,2.46-21.92,3-22,11.44-38,10.74-9.76-.43-16.81-3.9-30.74-10.74-14.3-7-15.69-10.26-28.66-17.2-23.09-12.35-26-6-38.28-15-10.77-7.9-6.14-11-29.69-44.74-7.84-11.24-10.84-14.45-13.1-22.11-3-10.3-.66-14.8-3.27-30.3C55,229.52,52.79,229.05,51.35,220c-2.71-16.85,2.35-30.8,5.73-40.12,8.13-22.42,15.11-18.72,24.56-43.4,4.12-10.74,5.4-18.23,13.2-26.32,5.68-5.88,7.75-4.76,16.28-12.16,12.13-10.52,11-15.41,20.47-22.11,5.83-4.11,6.42-2.39,23.75-9,19.21-7.34,19.52-9.86,29.48-12.28,3-.73,6.37-1.33,32.34-.41,21.54.76,32.51,1.36,42.17,3.68,3.44.83,12.12,4.1,29.48,10.65,19,7.18,24.69,9.82,31.11,14.74a75.58,75.58,0,0,1,14.74,15.56c6,8,5.4,9.93,11.47,18.83,6.72,9.87,9,9.76,17.19,20.47,4.35,5.69,9.47,12.38,13.92,22.11,4.82,10.53,9.13,20,8.19,31.93C384.73,201.09,381.2,210.68,383,220Z"/><path class="cls-4" d="M219.24,294.5c-14.46.92-26.06-6.12-29.51-8.4-8.73-5.79-7.54-9.22-19.11-16.93-7.17-4.78-9.89-5-14.74-9.82a42.74,42.74,0,0,1-9.82-15.83c-2.63-7.58-2.24-13.56-1.46-23.67a117.42,117.42,0,0,1,5.82-28.74c4.37-12.76,6.67-19.48,13.11-25.66,3.68-3.54,4.31-2.65,24.56-13.1,14.34-7.39,15.13-8.4,19.65-9.28,11.08-2.14,20.76,1.16,24.92,2.62,8.77,3.1,8.72,5.64,20.39,9.94,8.53,3.14,9.82,2.24,13.57,5,5.23,3.86,5.36,7.54,11.54,16.82,6,9,7,7.27,10.37,13.11,5.92,10.37,5.6,21.11,5.35,29.28-.19,6.63-.41,13.88-4.25,22-2.08,4.4-3,4.36-11.47,15.28-11.12,14.34-11.56,17-17.47,21.29-3,2.2-6.92,3.83-14.74,7.1C232.33,291.25,225.51,294.1,219.24,294.5Zm-1.13-135a47.19,47.19,0,0,0-23,3.17c-3.94,1.63-11.83,4.88-17.42,12.66-4.13,5.74-2.47,7.65-8.06,16.47-4.55,7.2-6.54,7.33-7.77,11.92-1.35,5,.65,6.21,1.13,16.18s-1.44,10.55,0,15.48c1.05,3.72,4.54,7.44,11.46,14.74,4.41,4.64,8.09,8.07,15.29,14.74,8.91,8.26,10.15,9.05,12,9.82,3.65,1.52,8.27,1.49,17.5,1.44a52,52,0,0,0,14.7-2.53h0c5.17-2.18,5.82-4.09,15.44-11.88,10.87-8.81,12.93-8.72,16.22-13.78,1.38-2.13,2.74-5.79,5.46-13.1,2.88-7.75,4.32-11.7,4.39-14.93s-.56-3.95-4.39-15.64c-4.36-13.28-4.07-13.86-6-17.47a43.09,43.09,0,0,0-10.37-13.1c-5.33-4.45-10.72-6.3-21.29-9.82C225.88,161.31,222.17,159.92,218.11,159.45Z"/><path class="cls-4" d="M219.52,352.3c-16,.09-27.92-2.52-38.25-4.86-25.48-5.76-39-8.82-46.4-20.19-2.43-3.75-2.62-6-7.09-12.56-5-7.3-8.23-9.76-15.39-17.9C104,287.27,99.81,282.5,98.3,278.66c-4.35-11.09,1.59-14.51-3-28.86-1.91-6-3.37-6.72-6.32-15.9a92.25,92.25,0,0,1-3.91-16c-1.31-9.7.1-17,2.27-27.65,2.81-13.8,4.34-21.34,9.51-30.17,4.45-7.59,6.13-6.83,17.24-21.69,9.3-12.44,7.29-11.88,12-16.92,2.82-3,6.38-6.27,27.84-20.2,8.09-5.26,12.14-7.88,13.11-8.4,21.78-11.53,44.4-10.22,52.43-9.39,11.63,1.21,10.19,3.27,26.17,5.23,15,1.85,18.89.36,25.66,4.37s6.5,7.66,16.37,14.19c6.22,4.11,7.54,3.47,13.1,7.1,8.34,5.43,13.11,11.91,16.79,17,6.87,9.52,6.13,12.3,14.33,28.29,9,17.51,10.89,16.15,15.28,27.29a101.17,101.17,0,0,1,6.72,30.93c.59,8.19,1.36,19-2.35,31.85-2.48,8.6-7,15.86-15.83,30-8.65,13.81-13,20.72-16.92,25.11-5.21,5.79-7.82,7.18-47.49,31.67-11.3,7-15.56,9.61-22.93,12C237.38,352.12,228.25,352.24,219.52,352.3Zm0-250.41c-18.06-1-20.64,8.71-41.52,9.18-9.75.23-13.7-1.8-19.11,1.64s-4.52,7.53-12,15.83c-6.49,7.2-8.32,5.4-13.64,12-6.14,7.62-4.28,10.72-10.38,16.92-5.48,5.59-8,4.12-11.47,9.07-2.94,4.22-1.65,6.05-4.36,17.14-2.65,10.84-4.35,11-5,17.73-.52,5.61.57,6.55,1.48,16.47,1.37,14.87-.89,14.88.77,22.57,1.82,8.38,4.21,7,10.38,21.83,4.61,11.1,3.87,13.3,8.18,20.2,3.47,5.54,4.39,4.84,10.43,12.95,8.45,11.34,7.08,13.28,11.87,17.24,5.12,4.22,7.32,2.54,21.92,7.48,4.95,1.68,3.64,1.51,21.29,8.73,19.33,7.91,21.3,8.27,24,8.19,8.91-.26,9.42-4.78,22.38-7.64,11.47-2.53,13.22.53,21.84-1.64,8.86-2.23,9.55-6.11,26.2-19.1,17.94-14,22.56-13.72,28.67-23.23,4.15-6.46,2.08-6.69,8.45-18.81,7.5-14.28,10.61-14.41,13.65-23.47,3.52-10.52,2.52-19.86,1.94-25.3-1.12-10.36-4.27-17.83-6.86-23.83-3.72-8.64-5.27-9.19-12-21.17-12.78-22.78-11.52-28.54-21.29-37.24-3.27-2.9-3.45-2.3-13.65-10.37-12.11-9.59-11.7-10.31-15.83-12.56-6.24-3.38-9.33-2.91-25.11-6C222.45,103.11,225.41,102.23,219.52,101.89Z"/><path class="cls-1" d="M211,20.06s0,24.64,3.84,29.47,0,18.21,0,18.21,11.51-12.32,12.28-17.14-6.14-26.25,0-30.54S211,20.06,211,20.06Z"/><path class="cls-1" d="M422.88,224l-3.27-1.23v7.68s-13.48-9.71-20.83-9.71-9.49-3.48-9.49-3.48c6.54.68,1.4-5,10.3-5.92a17.6,17.6,0,0,1,1.93-.07c8-7.62,3.11-13.21-2.75-16.67-13.43.14-22.48-4.34-33.48-3.34.93-.79-5.36-6.45,6.52-5.66,12.26.82,33.51-5.75,46.17-16.16L419,186v0Z"/><path class="cls-1" d="M373.29,328.22s4,7,5,11a100.91,100.91,0,0,0,5,15.66l13.34-17.8s1.68-7.13-10.33-9.86S372.29,326.22,373.29,328.22Z"/><path class="cls-1" d="M176.63,414.93s13.64-7.1,15.28-12.56,2.56-.24,6.38-5.15c0,0,.85-3.46,5,5s-3,15.43-3,15.43Z"/><path class="cls-1" d="M71,369.07s4.29-4.85,4.29-9.85c0-11.3,4.45-6.54,11-18,0,0,1.08-2.45-9.56,0s-21.29,13.65-21.29,13.65Z"/><path class="cls-1" d="M23.51,148.8s-3.86,3.15,6.78,3.42,9-5,9-5,6.24-7,1-10,1-4,6.69-7.25,7.31-3.75,7.31-3.75a18.69,18.69,0,0,0-2-15c-4.64-7.64-1.71-16.46-1.71-16.46Z"/></g></g></svg>