<svg id="Layer_1" data-name="Layer 1" xmlns="http://www.w3.org/2000/svg" xmlns:xlink="http://www.w3.org/1999/xlink" viewBox="0 0 831.64 1462.34"><defs><style>.cls-1{fill:none;}.cls-2{clip-path:url(#clip-path);}.cls-3{fill:#62c4c2;}.cls-4{fill:#73d4d2;}.cls-5{fill:#79e1dd;}.cls-6{clip-path:url(#clip-path-2);}</style><clipPath id="clip-path" transform="translate(-0.3 8.76)"><polygon class="cls-1" points="0 0.07 831.87 0 829.45 1440.73 0 1440.73 0 0.07"/></clipPath><clipPath id="clip-path-2" transform="translate(-0.3 8.76)"><polygon class="cls-1" points="831.87 0 829.45 1440.73 0 1440.73 0 0.07 831.87 0"/></clipPath></defs><title>hacia fuera</title><g id="Layer_2" data-name="Layer 2"><g id="Layer_1-2" data-name="Layer 1-2"><g id="OBJECTS"><g class="cls-2"><path class="cls-3" d="M370.42,1452.41c-.06-1.08-.11-2.16-.16-3.24q-.87-15.9-1.95-31.79c-1.47-21.64-3.16-43.26-4.74-64.9-1.66-22.91-3.17-45.81-4.19-68.78-.39-9.29-.8-18.58-.88-27.86s0-18.72.61-28c.33-5.07.76-10.14,1.39-15.21.59-4.63,1.27-9.23,2.18-13.81,1-4.9,2.1-9.76,3.51-14.61,1.2-4.06,2.53-8.05,4.12-12,1-2.46,2-4.89,3.17-7.28.49-1,1-2,1.51-3s1-2,1.61-3,1.17-2,1.83-3c.46-.65.91-1.33,1.39-1.95.7-.87,1.39-1.78,2.16-2.58s1.48-1.67,2.28-2.47c1-1,2.1-2.09,3.23-3.11.8-.76,1.61-1.51,2.47-2.26,1.67-1.5,3.35-3,5-4.5s3.22-3,4.74-4.68c.75-.86,1.5-1.66,2.19-2.52.47-.58.93-1.17,1.37-1.78l.66-.93a39.48,39.48,0,0,0,2.68-4.29c.71-1.27,1.41-2.58,2-3.85s1.24-2.68,1.78-4.06,1-2.76,1.53-4.16a91.65,91.65,0,0,0,2.66-9.64c.67-3.13,1.23-6.24,1.61-9.37s.81-6.5,1-9.76.36-6.71.44-10.08v.13q.18-10.85-.4-21.7c-.4-7.23-.91-14.52-1.48-21.79-.55-7-1.14-13.94-1.61-20.93-.43-6.41-.8-12.82-.8-19.27,0-3,0-5.93.16-8.89.21-3.95.5-7.89,1-11.82A111.42,111.42,0,0,1,416.65,958c.74-3,1.56-6,2.55-8.88a104.19,104.19,0,0,1,4-10.14q2.07-4.61,4.47-9.08c1.21-2.26,2.48-4.51,3.77-6.76a.44.44,0,0,1-.16-.49c.08-.13.13-.27.21-.4a.51.51,0,0,1-.45,0,.44.44,0,0,1-.24-.55l.7-1.5a.43.43,0,0,1-.17-.49c.13-.37.27-.75.41-1.08a.42.42,0,0,1,0-.31,41.61,41.61,0,0,1,2-3.94V-8.7H.37V1452.41Z" transform="translate(-0.3 8.76)"/><path class="cls-4" d="M116.26,1280.31c1.62,25.6,3.7,52.51,6.4,82.27,2.76,30.22,5.86,60.45,8.9,89.83h239c0-1.13-.11-2.26-.17-3.39-.59-10.63-1.24-21-2-31.79q-1.44-20.87-3-41.75v-.35q-.81-11.34-1.68-22.68c-1.47-20.13-3.12-44-4.18-68.79-.39-8.83-.81-18.26-.89-27.86v-5.92c0-8.5.21-15.77.64-22.12.37-5.69.82-10.64,1.4-15.15.67-5.41,1.36-9.77,2.16-13.76,1.07-5.4,2.2-10.14,3.48-14.54,1.49-4.92,2.8-8.73,4.11-12,1.26-3,2.23-5.3,3.18-7.28.52-1.08,1-2,1.5-3s1.07-2,1.61-3a27,27,0,0,1,1.83-3l.23-.31.12-.17,1-1.5.2-.25c.73-.85,1.31-1.62,1.94-2.32l.22-.23c.68-.75,1.35-1.5,2.07-2.25,1-1,2.1-2.1,3.24-3.12l.62-.56.38-.37,1.47-1.32,1.26-1.12c1.25-1.11,2.49-2.22,3.72-3.35,1.82-1.72,3.34-3.16,4.74-4.7.75-.86,1.5-1.65,2.19-2.57.48-.58.93-1.18,1.38-1.79l.34-.45.32-.47a39.48,39.48,0,0,0,2.68-4.29c.91-1.61,1.55-2.84,2-3.86.62-1.34,1.24-2.68,1.78-4.06s1.05-2.76,1.53-4.15a85.34,85.34,0,0,0,2.7-9.69c.73-3.53,1.27-6.59,1.61-9.38.44-3.43.77-6.62,1-9.76.21-3.44.36-6.88.44-10.06,0-1.5,0-3.19,0-4.84,0-5.39-.14-10.87-.45-16.75-.37-7.32-.92-14.47-1.47-21.79l-.42-5.25q-.63-7.83-1.19-15.69c-.53-7.29-.8-13.58-.8-19.22v-1c0-3.44.05-5.8.18-7.93.21-4.55.54-8.31,1-11.83a108.34,108.34,0,0,1,2.1-11.57c.81-3.38,1.66-6.29,2.53-8.88,1.29-3.75,2.6-7,4-10.14q2.28-4.95,4.47-9.13c1.22-2.24,2.49-4.48,3.78-6.7a1.36,1.36,0,0,1-.14-.43l.09-.28.1-.19-.25-.13-.3-.09a.41.41,0,0,1-.13-.29l.41-1,.28-.64a1.06,1.06,0,0,1-.15-.42,7.91,7.91,0,0,1,.39-1.16v-.26c.41-1,1-2.09,1.91-3.88V683.12l-.14-.12a49.53,49.53,0,0,0-2.6,6.09c-.8,2.39-1.42,4.36-1.86,6.18-.61,2.34-1.07,4.36-1.44,6.34q-.46,2.6-.87,5.17c-.42,2.93-.8,5.91-1.13,8.89l-.29,2.63-.28,2.57-.26,2.5c-.32,3-.63,6-1,8.89-.29,2.12-.58,4.24-1,6.35l-.06.29c-.28,1.57-.56,3.05-.92,4.52-.26,1.18-.51,2.37-.85,3.53l-.11.34c-.3,1-.6,2.08-1,3.1s-.8,2.26-1.23,3.36-.95,2.25-1.51,3.38l-.11.2-.14.29-.2.35c-.42.8-.81,1.55-1.25,2.25l-.14.24-.12.19-.12.18a21.84,21.84,0,0,1-1.61,2.4c-.61.75-1,1.3-1.47,1.94l-.16.17-.62.75a.52.52,0,0,1-.36.19.52.52,0,0,1-.38-.19,25,25,0,0,1-1.7-2.92c-.45-.94-.91-2-1.4-3.21-1.08-2.89-2.07-5.86-3.08-9.34-1.16-4-2.23-8-3.39-12.61-.86-3.33-1.68-6.64-2.51-10l-.87-3.55q-1.87-7.62-3.85-15.21c-1.08-4.15-2.41-9.13-3.91-14.2-1.62-5.45-3.07-10.06-4.53-14.07-.72-2-1.47-4-2.28-6s-1.55-3.66-2.36-5.31a55.53,55.53,0,0,0-3.14-5.84c-.54-.87-1.07-1.68-1.67-2.48s-1.07-1.43-1.66-2.12a19.94,19.94,0,0,0-1.73-1.71,6.91,6.91,0,0,0-1.08-.86l-.4-.28-.32-.23c-.51-.29-.81-.45-1-.57a11.91,11.91,0,0,0-1.1-.49c-.35-.12-.71-.23-1.07-.32l-.34-.06-.32-.06a7,7,0,0,0-1.21-.07h-1l-.32.06a2.45,2.45,0,0,0-.64.14c-.21.06-.7.2-1,.31a11.79,11.79,0,0,0-1.14.53c-.28.16-.55.35-.81.51a14,14,0,0,0-1.43,1.11,13.77,13.77,0,0,0-1,1,15.49,15.49,0,0,0-1.68,2.33c-.44.75-.8,1.5-1.21,2.25a40.51,40.51,0,0,0-2.6,7.31,84.18,84.18,0,0,0-1.73,8.47c-.67,4.51-1.12,9.13-1.4,14.27s-.39,10.14-.39,15.77v5.16c.11,7.33.35,14.85.75,23,.59,11.52,1.38,23,2.28,35.68l0,.93.13,1.78v.61l.1,1.41.6,7.1c.4,5.55,1,13.87,1.43,22,.32,5.57.67,12.22.77,19.26,0,1.42.05,2.83.05,4.3s0,2.83-.07,4.25c-.05,2.14-.11,4.42-.34,6.76a47.74,47.74,0,0,1-.72,5.7,27.72,27.72,0,0,1-1.08,4.19.45.45,0,0,1-.25.24.62.62,0,0,1-.27,0l-.58-.17c-1.11-.38-2.25-.69-3.41-1-.75-.18-1.49-.33-2.25-.47l-.47-.07-.44,0c-.59-.08-1.19-.13-1.79-.16a12.44,12.44,0,0,0-1.37.07,6.6,6.6,0,0,0-1.32.28l-.34.12a4.33,4.33,0,0,0-1,.52,4,4,0,0,0-.66.58,7.19,7.19,0,0,0-.58.86c-.06.13-.12.24-.19.36a13,13,0,0,0-.55,1.55c-.09.38-.17.75-.23,1.12-.13.81-.22,1.67-.28,2.58l-.06.94v.65a8.62,8.62,0,0,1-.09,1.24c-.06,1-.12,2-.27,3.05l-.05.38v.29a3.92,3.92,0,0,1-.15,1c-.1.52-.21,1-.32,1.51a12.82,12.82,0,0,1-.42,1.5,13.69,13.69,0,0,1-.58,1.45l-.41.85a13.33,13.33,0,0,1-.81,1.37,12.93,12.93,0,0,1-1,1.31l-.7.75-.14.15-.31.35a12.44,12.44,0,0,0-.81,1.19l-.16.28-.16.3c-.22.45-.42.9-.6,1.36s-.34,1-.48,1.5a21.55,21.55,0,0,0-.58,2.37c-.15.8-.31,1.59-.43,2.39l-.08.5-.08.39c-.07.48-.15,1-.25,1.43s-.19,1-.31,1.5a10.23,10.23,0,0,1-.33,1.35,11.31,11.31,0,0,1-.46,1.27l-.27.57a8.19,8.19,0,0,1-.64,1c-.28.33-.41.46-.54.59l-.43.4a5.63,5.63,0,0,1-1.22.75,4.84,4.84,0,0,1-1.2.33,7.87,7.87,0,0,1-1.61.08h-.85l-1.06-.16-1-.23a22.51,22.51,0,0,1-2.28-.75,3.32,3.32,0,0,1-.54-.25,3.72,3.72,0,0,1-.89-.59,6.62,6.62,0,0,1-.85-.75,9.43,9.43,0,0,1-1-1.35,18,18,0,0,1-1-1.83,21.29,21.29,0,0,1-.86-2,49.12,49.12,0,0,1-1.49-4.74,105.48,105.48,0,0,1-2.12-11.27c-.51-3.55-1-7.45-1.41-11.91l-.13-1.31c-.21-2.13-.42-4.3-.71-6.38-.08-.56-.2-1.14-.32-1.71-.17-.86-.34-1.71-.47-2.58-.28-1.71-.56-3.49-.81-5.26-.56-4-1-8.11-1.44-11.81l-.06-.49-.09-.86-.48-4.51q-.66-6.07-1.36-12.08c-.81-6.33-1.47-11.64-2.15-16.23s-1.33-8-1.85-10.77c-.81-4.13-1.56-7.52-2.28-10.31-.93-3.65-1.84-6.76-2.79-9.45-.5-1.44-1-2.87-1.61-4.3s-1.14-2.64-1.77-3.94a42.1,42.1,0,0,0-2.69-4.76l-.25-.36-.12-.18c-.31-.45-.6-.86-.94-1.29s-.81-1-1.27-1.57a24.31,24.31,0,0,0-2.42-2.34l-1.79-1.4-1.61-1.17a32.74,32.74,0,0,0-3.24-1.87c-.49-.24-1-.48-1.52-.68l-.7-.26a12.74,12.74,0,0,0-2-.59,11.09,11.09,0,0,0-2.5-.29,7,7,0,0,0-1.21.09,5.86,5.86,0,0,0-1,.2,11,11,0,0,0-1.17.35,9.9,9.9,0,0,0-.93.44c-.34.17-.61.34-.92.53a12.14,12.14,0,0,0-1.4,1.08c-.3.27-.59.56-.87.85l-.15.2-.21.29a17.62,17.62,0,0,0-1.92,2.62c-.24.41-.48.82-.7,1.23s-.4.75-.58,1.13a48.16,48.16,0,0,0-2.33,6c-.66,2.1-1.21,4.06-1.62,5.86-.47,2.1-.91,4.19-1.28,6.24s-.74,4.25-1.07,6.37q-.58,3.95-1.12,7.92v.76l-.48,3.44c-.2,1.59-.43,3.2-.67,4.8-.15.86-.29,1.82-.45,2.74l-.35,2.17c-.73,5-1.26,10.31-1.58,15.73-.27,4.85-.45,10.3-.58,17.24,0,3.25-.07,6.49-.11,9.75v2.54c0,1.8,0,3.61-.06,5.42-.06,5.07-.16,11.76-.48,18.45-.3,6.88-.75,12.77-1.38,17.94-.28,2.34-.59,4.92-1,7.52-.34,2.12-.88,5.25-1.62,8.34-.49,2.16-1.18,5-2.12,8-.72,2.22-1.62,4.84-2.78,7.52a64.78,64.78,0,0,1-3,6.08l-.2.36c-.68,1.19-1.32,2.32-2.06,3.44-.59.86-1.22,1.79-1.86,2.69a.52.52,0,0,1-.57.12h-.09c-.58-.45-1.14-.93-1.67-1.41s-1-1-1.54-1.5l-.3-.33c-.44-.46-.86-.92-1.25-1.4s-.91-1.16-1.33-1.71-.86-1.24-1.27-1.86l-.13-.22c-.56-.85-1.13-1.8-1.62-2.71-.75-1.36-1.49-2.73-2.17-4.06-.37-.75-.74-1.5-1.1-2.25l-1.53-3.2-1.54-3.22L211,901l-.54-.75c-.57-1.16-1.06-2.13-1.58-3.11-.81-1.6-1.62-2.93-2.28-4a40,40,0,0,0-2.55-3.76c-.45-.59-.91-1.17-1.4-1.77l-.32-.37-.34-.37a24.81,24.81,0,0,0-2.37-2.33c-.55-.49-1.13-.95-1.73-1.39l-.42-.29-.4-.28-.31-.17c-1-.61-2-1.19-3-1.73-.73-.39-1.49-.75-2.25-1.14s-1.46-.67-2.18-1l-2.11-.86a17.69,17.69,0,0,0-1.91-.61c-.67-.2-1.3-.36-2-.52s-1.3-.27-1.93-.37l-.92-.12h-.26c-.77-.08-1.54-.12-2.32-.13a16.67,16.67,0,0,0-1.73.06h-1a19,19,0,0,0-2.13.4c-.53.12-1.05.27-1.56.43l-.63.23c-.74.27-1.47.58-2.18.92-.47.25-.92.51-1.37.76l-.37.23-.28.17a19.45,19.45,0,0,0-1.9,1.37c-.42.34-.8.7-1.24,1a11.76,11.76,0,0,0-1.18,1.16c-.37.41-.74.75-1.09,1.18L161,884c-.7.86-1.36,1.62-2,2.46a29.88,29.88,0,0,0-2,3c-.64,1.08-1.28,2.12-1.84,3.21-.43.86-.86,1.64-1.24,2.48-1,2-1.71,3.75-2.37,5.33-.8,2.09-1.52,3.94-2.1,5.66-1.3,3.75-2.51,7.68-3.59,11.61q-1.22,4.39-2.42,8.8l-.65,2.41-.76,2.8-.2.75-.37,1.37-.12.48-.54,2c-.69,2.63-1.38,5.25-2,7.92-3.06,12-5.86,24.41-8.33,36.7-1.35,6.88-2.53,13.19-3.62,19.27-1,5.59-1.91,11.38-2.9,17.74-2.3,15.37-4.23,30.59-5.71,45.26s-2.63,29.57-3.45,44.08c-1.25,22.31-1.89,45.63-1.89,69.19,0,6.46.07,13.6.16,21.2C113.45,1224.3,114.56,1252.05,116.26,1280.31Z" transform="translate(-0.3 8.76)"/><path class="cls-4" d="M.37-8.7V430.91c3,2,6.06,4,9,6A503.1,503.1,0,0,1,54,470.77c7.5,6.4,14.29,12.59,20.8,18.91,7.09,6.87,13.72,13.74,19.72,20.35,6.29,7,12.35,14.06,18,21.12,3.41,4.29,6.45,8.26,9.28,12l1.23,1.73.22.3c1,1.36,2,2.74,3.07,4.06.81,1,1.58,2,2.42,3s1.53,1.82,2.29,2.71l.33.35c1.21,1.34,2.35,2.58,3.52,3.76,1,1,2,1.92,3,2.84s1.92,1.67,2.93,2.45c.47.37.95.75,1.43,1.07s.87.63,1.33.94a39.69,39.69,0,0,0,3.49,2,19,19,0,0,0,2,1c.43.19.87.36,1.33.53a16.94,16.94,0,0,0,2.42.75c.41.11.83.19,1.26.27s.81.14,1.22.18a14.3,14.3,0,0,0,2.36.11,6.68,6.68,0,0,0,1.18-.07h.27a16,16,0,0,0,1.93-.36,10.12,10.12,0,0,0,1.11-.32l.53-.18a13.05,13.05,0,0,0,2-.85c.35-.18.69-.39,1-.59s.68-.42,1-.66a26.59,26.59,0,0,0,2.34-2c.32-.29.63-.59.94-.91s.57-.59.81-.86a36,36,0,0,0,3-4.06,30,30,0,0,0,1.56-2.61c.37-.69.73-1.37,1.07-2,.88-1.81,1.66-3.66,2.36-5.55.8-2.25,1.48-4.29,2-6.28.73-2.57,1.3-4.89,1.72-7s.82-4.3,1.19-6.46c.27-1.77.54-3.69.77-5.6.08-.8.17-1.59.25-2.38l.07-.62.09-1c.07-1,.1-2,.1-3v-1a100.06,100.06,0,0,0-.71-10.23c-.5-4.79-1.11-9.64-1.71-14.34l-.15-1.29c-.46-3.62-.89-7-1.26-10.45-.43-3.91-.8-7.74-1.11-11.37-.22-2.81-.49-6.5-.56-10.21,0-1.27-.06-2.58-.06-3.83q0-3.37.22-6.45c.11-1.46.23-2.91.43-4.3.16-1.17.33-2.35.57-3.5a34.81,34.81,0,0,1,1.08-4.25l.1-.26c.16-.46.33-.93.52-1.39s.44-1,.69-1.5.36-.73.57-1.09.51-.9.8-1.33a15,15,0,0,1,1.69-2,22,22,0,0,1,3-2.44,15.55,15.55,0,0,1,1.53-1,13.84,13.84,0,0,1,1.49-.75,11.31,11.31,0,0,1,2.42-.75,7.94,7.94,0,0,1,2.28-.13,6.49,6.49,0,0,1,1.31.2,6.72,6.72,0,0,1,.9.28,9.57,9.57,0,0,1,1.89,1,11.29,11.29,0,0,1,2,1.72,18.84,18.84,0,0,1,1.61,2,32.24,32.24,0,0,1,3.12,6,67.38,67.38,0,0,1,2.43,7.27,154.17,154.17,0,0,1,3.36,16.75q.59,3.75,1.1,7.5l.31,2.25.21,1.41.39,2.33.11.68.21,1.31c.1.51.16.87.22,1.2.13.75.25,1.51.35,2.31.29,2.15.54,4.29.81,6.47l.12,1.09c.75,6.57,1.62,14.2,2.8,21.71.6,3.84,1.15,7,1.72,10,.77,3.91,1.49,7.1,2.24,10a90.53,90.53,0,0,0,5.86,16.94,36.89,36.89,0,0,0,2.51,4.46c.4.6.81,1.18,1.22,1.72l.13.18c.45.55.75,1,1.06,1.3a20.68,20.68,0,0,0,1.69,1.81,11,11,0,0,0,1.43,1.12,13.11,13.11,0,0,0,1.44.87l.8.37.72.29c.46.13.81.24,1.19.32s.84.17,1.27.23a14.79,14.79,0,0,0,2.49,0,12.73,12.73,0,0,0,1.61-.32,11.35,11.35,0,0,0,1.12-.38,9.39,9.39,0,0,0,1.33-.61l.81-.48L251,555a15.62,15.62,0,0,0,1.62-1.3c.56-.53,1.09-1.07,1.62-1.62a33.94,33.94,0,0,0,2.87-4c.47-.75.93-1.57,1.36-2.37s.7-1.37,1-2a77.77,77.77,0,0,0,3.44-8.72c1-3,1.87-6.09,2.74-9.45,1.62-6.48,3-13.52,4.22-21.57,1.28-8.36,2.33-17.17,3.23-27,.33-3.59.62-7.2.89-10.79l.18-2.53.13-1.64.13-1.72.13-1.73c.1-1.5.24-3,.37-4.5l.25-2.64q.54-6.24,1-12.5c.69-9.07,1.28-18,1.74-26.44.9-16.32,1.61-33.64,2.21-53,.44-14.6.81-29.21,1.12-45.29v-5.64l.43-18.73.06-2.41c.07-2.57.13-5.15.13-7.73v-3c-.08-3-.22-6.38-.45-10.06-.34-5.25-.8-10.5-1.34-16.87l-.09-1.08-.07-.86-.08-.86-.33-3.86-.06-.67v-.19c-.64-7.5-1.37-16.08-1.76-24.39-.27-5.25-.39-9.22-.39-13.18v-1.5c0-3.87.08-7.1.24-10.32.29-5,.64-8.71,1.15-12.17a90.88,90.88,0,0,1,1.88-9.68c.32-1.27.88-3.44,1.61-5.64.53-1.51,1.1-3,1.76-4.51.53-1.17,1.12-2.43,1.79-3.67.48-.85.8-1.44,1.15-2s.8-1.3,1.24-1.94a.5.5,0,0,1,.38-.15.34.34,0,0,1,.31.15,13.94,13.94,0,0,1,1,2.14,34.93,34.93,0,0,1,1.15,3.5c.75,2.57,1.43,5.26,2.1,7.88l.42,1.6.15.58.08.31c.81,3,1.61,6.45,2.65,9.69a66.39,66.39,0,0,0,3.41,9.13c.31.62.64,1.23,1,1.83l.56.86a6.1,6.1,0,0,0,.56.75c.16.2.34.38.51.56a4.13,4.13,0,0,0,.6.49,4.54,4.54,0,0,0,.53.3,3.37,3.37,0,0,0,.87.27h.3c.36,0,.72.06,1.08.07a10,10,0,0,0,1.45-.07,8.35,8.35,0,0,0,1.21-.24,5.6,5.6,0,0,0,.7-.2,7,7,0,0,0,1.16-.49,4.74,4.74,0,0,0,.54-.31,6.76,6.76,0,0,0,1.11-.79,7.49,7.49,0,0,0,.74-.75,10.65,10.65,0,0,0,1.42-1.86c.31-.5.6-1,.87-1.54a24.31,24.31,0,0,0,1.62-4.36c.27-.92.48-1.87.67-2.8.15-.75.29-1.56.42-2.35a95.52,95.52,0,0,0,.93-10.94c.16-4.05.17-7.88.19-11.61v-2c0-3,0-6,.13-9,.06-1.5.13-3,.26-4.51.11-1.21.23-2.41.43-3.61a21.32,21.32,0,0,1,.82-3.62c.16-.41.33-.85.52-1.25a7.1,7.1,0,0,1,.52-.93,6,6,0,0,1,.81-.86,9.64,9.64,0,0,1,2.67-1.59,4.38,4.38,0,0,1,.73-.21h.37a3.75,3.75,0,0,1,1-.07,6.27,6.27,0,0,1,1.87.27,9.8,9.8,0,0,1,1.86.86,15.12,15.12,0,0,1,1.82,1.36,23.13,23.13,0,0,1,3.07,3.34,51.47,51.47,0,0,1,3,4.43,100.21,100.21,0,0,1,5.84,12c1.85,4.37,3.76,9.45,5.83,15.46,1.75,5.07,3.52,10.52,5.58,17.18q2.67,8.73,5.24,17.48l1.28,4.37c1.18,4.05,2.37,8,3.6,12,1.26,4.19,2.77,9.12,4.43,13.9a92.62,92.62,0,0,0,3.95,10,21.81,21.81,0,0,0,1.45,2.58,23.14,23.14,0,0,0,2.71-4c.77-1.38,1.49-2.75,2.15-4.14a71.88,71.88,0,0,0,3.27-7.73c.94-2.64,1.75-5.07,2.37-7.39.75-2.64,1.37-5.16,1.9-7.74.49-2.4,1-5,1.41-7.88.71-4.83,1.23-9.7,1.56-14.45.31-4.43.5-9.07.58-13.8v-5.52c0-4.71-.09-9.91-.3-15.87l.93-.45a4.92,4.92,0,0,1,1.06-.3,4.2,4.2,0,0,1,1.12,0,6.22,6.22,0,0,1,1.13.2,7.35,7.35,0,0,1,1.37.63,10,10,0,0,1,1.16.86,16.11,16.11,0,0,1,2.61,2.74,23.79,23.79,0,0,1,1.76,2.79,26.92,26.92,0,0,1,1.19,2.62,39.49,39.49,0,0,1,1.9,6.93,100,100,0,0,1,1.49,16.47c.08,3.05.09,6.09.09,9.13v7.86c0,2.63.06,5,.23,7.35.08,1,.18,2.08.27,3.13l.16,1.79.27,3,.23,2.84.68,8.46v.27c1.08,13.29,2.18,27,3.74,40.56,1.41,12,3.07,22.76,5.07,33s4.37,20.58,7,30.25c2.54,9.21,5.44,18.42,8.59,27.33l.15-370.17Z" transform="translate(-0.3 8.76)"/><path class="cls-5" d="M99,1194.51c1.62,25.26-11.22,51.53-8.51,81.64s-93.16,147-90.14,176.26H370.65c-.06-1.06-.11-2.13-.17-3.19-.52-9.34-1.16-19.76-2-31.79q-1.44-20.88-3-41.74v-.56q-.86-11.33-1.68-22.68c-1.47-20.16-3.13-44.09-4.18-68.79-.4-8.83-.82-18.26-.89-27.86v-5.92c0-8.51.21-15.77.64-22.11.37-5.81.81-10.76,1.39-15.21.69-5.47,1.37-9.85,2.18-13.8a147,147,0,0,1,3.46-14.53c1.46-4.8,2.78-8.59,4.1-12,1.26-3,2.24-5.26,3.18-7.29l.29-.61c.41-.85.81-1.64,1.21-2.42.57-1.13,1.07-2,1.61-3a34.12,34.12,0,0,1,1.83-2.95l.22-.31c.37-.55.76-1.11,1.17-1.64l.14-.18c.8-1,1.38-1.72,2-2.38l.21-.24c.68-.75,1.36-1.5,2.07-2.25,1-1,2.11-2.09,3.24-3.11l.62-.57.39-.36c.48-.46,1-.86,1.46-1.32l1.26-1.12c1.25-1.11,2.49-2.26,3.72-3.36,1.47-1.38,3.13-2.94,4.74-4.7.81-.85,1.52-1.7,2.2-2.57.47-.57.92-1.18,1.37-1.78l.33-.44.32-.47a42.39,42.39,0,0,0,2.69-4.3,40.21,40.21,0,0,0,2-3.85c.59-1.34,1.24-2.67,1.78-4.06s1.05-2.75,1.53-4.16a86.23,86.23,0,0,0,2.73-9.7c.7-3.43,1.24-6.46,1.61-9.37.42-3.17.74-6.36,1-9.77.18-2.58.32-5.85.45-10.07V1069c0-5.4-.15-10.88-.44-16.76-.39-7.25-.95-14.74-1.49-21.78l-.42-5.25q-.63-7.85-1.17-15.69c-.37-5.26-.81-12.17-.81-19.27v-1c0-3.36.06-5.81.18-7.93.2-4.45.53-8.2,1-11.81A96.73,96.73,0,0,1,416.93,958c.8-3.25,1.61-6.15,2.48-8.88,1.31-3.76,2.63-7.1,4-10.14,1.56-3.39,3.07-6.44,4.47-9.13q1.82-3.36,3.78-6.7a1.37,1.37,0,0,1-.13-.45l.08-.25.09-.19-.29-.19-.26-.07a.38.38,0,0,1-.11-.26l.39-1,.28-.64a1.41,1.41,0,0,1-.14-.44,9,9,0,0,1,.38-1.14v-.29c.5-1.14,1.12-2.42,1.9-3.88V838.2c-.37-.7-.73-1.4-1.12-2-.59-1-1.21-2-1.85-3a31.19,31.19,0,0,0-2.15-2.94c-.54-.68-1-1.2-1.4-1.72l-.32-.35-.13-.16-.68,1c-1.34,2.13-2.43,3.94-3.52,5.58-.81,1.3-2.15,3.24-3.52,5.16a53.32,53.32,0,0,1-3.34,4.16,22.1,22.1,0,0,1-2.63,2.58,10.14,10.14,0,0,1-2.28,1.51,7.35,7.35,0,0,1-1.11.4c-.29,0-.58.08-.88.11a4.06,4.06,0,0,1-3-1.21,8.33,8.33,0,0,1-1.35-1.72,20.26,20.26,0,0,1-1.31-2.64,64.87,64.87,0,0,1-2.06-6.52c-.41-1.51-.8-3.1-1.2-4.64l-.08-.3-.28-1.11-.77-3c-1-3.89-1.8-6.82-2.64-9.52a90.91,90.91,0,0,0-3.5-9.51c-.71-1.65-1.5-3.27-2.37-4.84-.4-.7-.82-1.38-1.2-2a20.68,20.68,0,0,0-1.25-1.94c-.59-.87-1.12-1.59-1.7-2.31-.45-.55-.89-1.09-1.35-1.61a38.5,38.5,0,0,0-2.6,5.32c-.46,1.15-.92,2.3-1.33,3.44-.32.93-.64,1.87-.94,2.83a90.56,90.56,0,0,0-2.37,9.34c-.6,3.1-1,6.08-1.4,9.07s-.58,6.27-.74,9.36c-.15,3.43-.22,6.65-.22,9.51,0,10.67.76,21.48,1.46,32V877l.14,2c.36,4.81.82,11.16,1,17.44.24,5.26.36,9.66.36,13.83V913a140,140,0,0,1-1,16.63,105.71,105.71,0,0,1-3,15.77c-.76,2.68-1.5,5-2.36,7.28a70.84,70.84,0,0,1-3,6.86c-.82,1.58-1.46,2.81-2.15,4s-1.32,2.16-2,3.22a69,69,0,0,1-4.22,5.68.55.55,0,0,1-.43.15.49.49,0,0,1-.3-.16,68.77,68.77,0,0,1-6.64-6.8c-1.86-2.19-3.7-4.51-5.46-7-1.51-2.11-3-4.36-4.84-7.1l-1.26-1.91-3-4.55c-1.32-2-2.48-3.6-3.56-5a26.79,26.79,0,0,0-3.3-3.6,9.9,9.9,0,0,0-1.91-1.3,6,6,0,0,0-1-.36,4.5,4.5,0,0,0-.81-.11,4.73,4.73,0,0,0-.91.12,6.37,6.37,0,0,0-.94.38,5.5,5.5,0,0,0-.57.36,5.85,5.85,0,0,0-.54.45,8.87,8.87,0,0,0-1,1.11c-.37.47-.72,1-1.05,1.46a34.2,34.2,0,0,0-3,5.95c-1,2.51-2,5.17-3,8.47s-2,6.63-2.93,10.42c-.63,2.4-1.34,5.26-1.94,8.11-.81,4.21-1.62,8.72-2.34,14.27-.7,5.25-1.32,10.62-1.92,15.83v.23l-.1.81-.08.79-.08.69-.07.54c-.59,5-1.2,10.15-1.89,15.22-.91,7-1.78,12.47-2.81,17.86s-2.23,10.68-3.74,15.93c-.9,3-1.63,5.25-2.43,7.36s-1.73,4.35-2.84,6.59c-.56,1.1-1.14,2.21-1.76,3.29-.5.85-1,1.71-1.61,2.57a37.26,37.26,0,0,1-3.58,4.62.44.44,0,0,1-.43.16.54.54,0,0,1-.3-.13,66.54,66.54,0,0,1-4.63-7.52,81.13,81.13,0,0,1-3.58-8c-1.08-2.93-2-5.87-2.78-8.71-.8-3-1.45-6.08-2-9a172.34,172.34,0,0,1-2.43-19.75c-.41-5.68-.68-11.62-.87-19.27l-.17-6.25v-1.46c-.1-3.92-.2-7.86-.34-11.79-.12-2.92-.25-5.85-.45-8.78-.2-2.73-.45-5.47-.73-8.2-.59-5.65-1.21-11.15-2.07-16.57a90.23,90.23,0,0,0-2.94-13.52,22.28,22.28,0,0,0-2.51-5.56,8.12,8.12,0,0,0-.56-.75c-.31-.31-.43-.43-.57-.55a4.81,4.81,0,0,0-.66-.45,2.47,2.47,0,0,0-.42-.17.75.75,0,0,0-.24-.08,2,2,0,0,0-.42-.07h-.64a5.78,5.78,0,0,0-.7.24l-.21.09a5.78,5.78,0,0,0-.86.52,5.68,5.68,0,0,0-.6.5,14.48,14.48,0,0,0-1.51,1.62q-.7.9-1.35,1.83a48.47,48.47,0,0,0-2.49,4.3c-1,2-2,3.93-2.83,5.94l-.08.2c-.46,1-.9,2.09-1.31,3.13-.11.27-.21.55-.31.86-.22.57-.4,1.12-.58,1.72a69.15,69.15,0,0,0-1.79,7.39c-.46,2.49-.91,5.15-1.39,8.49-.65,4.71-1.23,9.44-1.79,14.37v.59l-.64,5.37c-.8,6.62-1.75,14.32-3.13,22-.72,4.06-1.4,7.42-2.13,10.43-.81,3.44-1.61,6.54-2.59,9.45a75.9,75.9,0,0,1-4.43,11c-.95,1.83-1.89,3.45-2.85,4.92a36.85,36.85,0,0,1-2.82,3.76,29.93,29.93,0,0,1-3.5,3.44,25.08,25.08,0,0,1-3.78,2.68,23.39,23.39,0,0,1-4.4,2,24.23,24.23,0,0,1-4.46,1,30.32,30.32,0,0,1-5.39.22,37.34,37.34,0,0,1-5.77-.75,49.87,49.87,0,0,1-6.53-1.83,69.15,69.15,0,0,1-7-2.93q-3.85-1.85-7.45-4c-2.65-1.59-5-3.12-7.09-4.65a133.05,133.05,0,0,1-13.72-11.26,190.2,190.2,0,0,1-13.34-13.89c-4-4.65-.06.55-4-4.65-.8,4,4.68,11.78,7.59,18.3l1.46,4c-2,5.89-1.67,4.69-2.31,11.84-3,9.5-2.37,5.35-3.19,19.7-1.25,22.32-2.28,16.1-8.79,21.26-5.48,4.35-7,10.4-9.82,17.39C108.46,1130.83,103.17,1165.22,99,1194.51Z" transform="translate(-0.3 8.76)"/><path class="cls-5" d="M251.73,20.52c.25-8.12.64-15.09,1.17-21.4.21-2.71.45-5.31.72-7.82H98.46c.16,3.75.32,7.46.48,11.26C100.61,43,101.83,83.23,103,121l.22,7.51.07,2.17v1.66c1,33.2,2.12,70.82,3.52,107.11q.28,7.73.61,15.4l.17,4,.07,1.56.18,4.43c.06,1.56.11,3,.14,4.51q.28,8,.67,16.12c.38,8,.86,15.76,1.42,23.12.73,9.44,1.61,18.25,2.64,27,1.26,10.43,2.64,19.54,4.23,27.91a227.59,227.59,0,0,0,6.25,25.77,112.68,112.68,0,0,0,4.65,12.61,66.55,66.55,0,0,0,5.51,10.3,38,38,0,0,0,3,4,28.8,28.8,0,0,0,3,3,18.7,18.7,0,0,0,2.15,1.63,20.72,20.72,0,0,0,2,1.17,15.88,15.88,0,0,0,1.85.8,16.67,16.67,0,0,0,1.91.57,12.46,12.46,0,0,0,1.91.31c.55,0,1.11.08,1.66.09a14.82,14.82,0,0,0,2.1-.14,20.68,20.68,0,0,0,2.06-.37,21.54,21.54,0,0,0,2.92-.93c.89-.35,1.75-.75,2.61-1.16a21.09,21.09,0,0,0,2.12-1.21,19.21,19.21,0,0,0,1.61-1.28,22.94,22.94,0,0,0,1.84-1.85c.59-.75,1.15-1.5,1.66-2.25a31.75,31.75,0,0,0,2.59-4.76c.44-1,.86-2,1.22-3s.61-1.8.9-2.69a85.91,85.91,0,0,0,2.62-11.34c.6-3.82,1.07-7.78,1.41-12.08.56-7.43.8-15.21.8-25.11,0-3.5,0-7-.08-10.45v-2.77c0-3-.06-6.09-.07-9.13v-1.88c0-1.94,0-3.89.13-5.84,0-.75.07-1.5.14-2.25l.2-2.25.21-2.25.33-3.94.11-1.38.12-1.35c.15-1.68.3-3.36.47-5.08.31-3.38.62-6.42,1.1-9.38.21-1.55.49-3,.85-4.6.22-1,.49-2,.8-2.93a18.42,18.42,0,0,1,1.13-2.8c.2-.39.44-.75.67-1.13a5.54,5.54,0,0,1,.55-.75,8.4,8.4,0,0,1,.89-.9,6.17,6.17,0,0,1,.57-.44l.29-.2a5.06,5.06,0,0,1,1.55-.56c.24,0,.47-.08.7-.1h.37a4.18,4.18,0,0,1,.93.08,9.49,9.49,0,0,1,2.28.61,17.93,17.93,0,0,1,3.16,1.73c.58.38,1.16.79,1.72,1.21s1.24,1,1.85,1.5c1.11.94,2.28,2,3.49,3.26,1.49,1.5,2.71,2.78,3.87,4.06,2.11,2.36,4.1,4.76,5.9,7.1,1.35,1.8,2.72,3.7,4,5.66l1,1.39.25.36c.66,1,1.33,2,2,2.93a18.5,18.5,0,0,0,2.17,2.59,6.9,6.9,0,0,0,.63.42l.32.13a.84.84,0,0,0,.31,0l.32-.08a3.36,3.36,0,0,0,.51-.32,6.11,6.11,0,0,0,.67-.85,15.66,15.66,0,0,0,1.06-2c.35-.86.68-1.64,1-2.49,1-2.58,1.79-5.26,2.42-7.26,1-3.12,1.93-6.33,2.9-9.56l.13-.47.44-1.45c1.45-4.86,2.63-9.12,3.61-13,2.17-8.6,4-17.46,5.59-26.29,1.47-8.52,2.75-17.49,3.81-26.63,1-8.85,1.84-17.64,2.56-26.84,1-12.77,1.76-26.46,2.43-37.46l.1-1.87.07-1.07.2-3.59c.2-3.61.4-7.21.63-10.82.24-4.41.52-8.82.8-13.18.19-2.7.32-5.33.41-7.93.18-5.54.27-11.16.27-17.15,0-7.66-.11-15.36-.23-22l-.15-5.9V76.32c-.18-9.64-.39-21.64-.39-33V42.25C251.39,33.59,251.51,26.68,251.73,20.52Z" transform="translate(-0.3 8.76)"/><path class="cls-5" d="M290.16-8.7c0,1,.09,2,.13,3l.11,2.82c.18,4.69.37,9.37.61,14.07.31,6.3.6,11,.93,15.63.51,6.63,1,11.57,1.5,16,.7,5.91,1.4,10.75,2.23,15.21a116.9,116.9,0,0,0,3.23,13.19,42.6,42.6,0,0,0,4.71,10.51,16.48,16.48,0,0,0,2.76,3.26,13.6,13.6,0,0,0,1.14.86l1,.57a8,8,0,0,0,1.76.66,17.9,17.9,0,0,0,3,.34,8.79,8.79,0,0,0,1.36-.08c.46-.08.86-.12,1.26-.22a11,11,0,0,0,1.24-.37c.37-.16.73-.3,1.08-.47a9.92,9.92,0,0,0,1.43-.87c.33-.24.65-.5,1-.75a12.76,12.76,0,0,0,1.44-1.5,16.2,16.2,0,0,0,1-1.39,29.12,29.12,0,0,0,2.7-5.27c.61-1.5,1.2-3.2,1.91-5.47.55-1.81,1.07-3.58,1.57-5.35l.11-.38.08-.28.27-1c.56-2,1.12-4,1.78-5.91.37-1.15.8-2.3,1.24-3.44.37-.9.76-1.8,1.2-2.68a22,22,0,0,1,1.35-2.35,14.9,14.9,0,0,1,1.36-1.8c.37-.41.75-.75,1.17-1.16.23-.21.47-.4.72-.59a9.12,9.12,0,0,1,1.83-1.09,9.49,9.49,0,0,1,2-.67,20.67,20.67,0,0,1,3.14-.46,15.39,15.39,0,0,1,2.54,0,13.72,13.72,0,0,1,2.29.4c.42.11.83.24,1.22.38s.77.32,1.15.5a10,10,0,0,1,1.82,1.19,17.08,17.08,0,0,1,3.67,3.68,29.12,29.12,0,0,1,2.65,4.51,61.52,61.52,0,0,1,3.79,11.68c.92,3.93,1.71,8.18,2.28,11.27l.5,2.67a115.29,115.29,0,0,0,2.8,12.17,26.39,26.39,0,0,0,2.88,6.52c.26.37.53.75.81,1.12s.52.58.8.85a11.86,11.86,0,0,0,1.35,1l1.21.75a10,10,0,0,0,.88.5,17.69,17.69,0,0,0,2.32,1c.34.12.67.23,1,.32l.36.09.24,0a10.49,10.49,0,0,0,1.25.2h.81a9.22,9.22,0,0,0,1.29-.09,3.74,3.74,0,0,0,.87-.18,9.73,9.73,0,0,0,1.08-.36,7.24,7.24,0,0,0,.81-.35,11.66,11.66,0,0,0,1.4-.86c.34-.26.65-.51,1-.76a18.54,18.54,0,0,0,1.95-2.11c.54-.69,1-1.39,1.52-2.11a62.84,62.84,0,0,0,4.24-8.19c.8-1.88,1.62-3.79,2.42-5.7L402,81c.67-1.55,1.35-3.1,2.07-4.63.61-1.29,1.23-2.58,1.92-3.83A40.4,40.4,0,0,1,408.15,69a14.1,14.1,0,0,1,1.28-1.71l1-1.2a.43.43,0,0,1,.37-.15.4.4,0,0,1,.36.15A37.61,37.61,0,0,1,414.58,70c1.06,1.5,1.91,2.83,2.62,4a64.15,64.15,0,0,1,4.41,9.56,108.38,108.38,0,0,1,5.2,21.77c2,13.74,2.34,27.64,2.52,40.69l.08,5.38v4.06c0,3,.08,6,.17,9,.08,2.77.17,5.55.36,8.32l.14,2,.25,3.69q.21,3.38.39,6.76c.53,10,.88,20.55,1.12,28.27l.06,1.39c.3,10,.58,18.37,1,27,.17,3.6.36,7.19.59,10.78l.22-261.4Z" transform="translate(-0.3 8.76)"/></g></g><g id="OBJECTS-2"><g class="cls-6"><path class="cls-3" d="M397.71,923.31a.46.46,0,0,1-.18.5c.23.51.47,1,.71,1.51a.45.45,0,0,1-.24.53.55.55,0,0,1-.45,0l.2.38a.43.43,0,0,1-.16.5c1.33,2.19,2.59,4.42,3.78,6.67q2.42,4.44,4.47,9c1.49,3.29,2.81,6.67,4,10.15,1,2.91,1.81,5.86,2.54,8.82a111.86,111.86,0,0,1,2.13,11.5c.5,3.89.81,7.82,1,11.73.16,3,.18,5.9.17,8.84,0,6.38-.4,12.77-.8,19.11-.46,6.94-1.07,13.87-1.62,20.79-.57,7.21-1.11,14.42-1.47,21.63s-.53,14.38-.4,21.57v-.12c.07,3.32.22,6.67.44,10s.57,6.48,1,9.7,1,6.22,1.62,9.31a93.19,93.19,0,0,0,2.65,9.59c.49,1.39,1,2.76,1.53,4.12s1.17,2.69,1.79,4.06,1.31,2.57,2,3.83a49.8,49.8,0,0,0,2.69,4.29c.21.31.44.61.65.92.44.59.9,1.18,1.36,1.72.71.86,1.47,1.72,2.21,2.5,1.49,1.64,3.12,3.16,4.74,4.66s3.32,3,5,4.45c.8.75,1.61,1.5,2.48,2.25,1.09,1,36.65-7.31,37.7-6.27.8.81,1.54,1.63,2.29,2.45s1.45,1.72,2.14,2.57c.48.64.94,1.3,1.4,1.95.66,1,1.26,1.94,1.82,2.94s1.08,2,1.61,3,1,2,1.52,3c1.15,2.38,2.18,4.81,3.17,7.24q2.34,5.87,4.11,11.93c1.43,4.77,2.55,9.62,3.52,14.48.9,4.51,1.62,9.13,2.18,13.75.63,5,1.06,10,1.38,15.06.6,9.28.71,18.58.62,27.86s-.49,18.47-.89,27.69c-1,22.79-2.53,45.52-4.19,68.33-1.56,21.48-3.23,43-4.72,64.48q-1.08,15.77-2,31.54c-.23,4.2-.43,8.43-.62,12.64H831.46V-8.56H429.84V908.65c.7,1.3-33.07,12-32.54,13.29a.39.39,0,0,1,0,.3A9.84,9.84,0,0,1,397.71,923.31Z" transform="translate(-0.3 8.76)"/><path class="cls-4" d="M397.78,923.71l.28.63.41,1a.51.51,0,0,1-.13.29l-.29.09-.25.13.08.19.1.26a1.41,1.41,0,0,1-.14.44c1.29,2.21,2.56,4.43,3.77,6.67,1.46,2.7,3,5.73,4.47,9,1.4,3,2.7,6.39,4,10.09.88,2.57,1.7,5.46,2.54,8.83a106.66,106.66,0,0,1,2.11,11.5c.48,3.49.8,7.22,1,11.73.13,2.13.18,4.51.18,7.88v1c0,5.6-.3,11.85-.81,19.09-.34,5.17-.76,10.4-1.17,15.59l-.42,5.25c-.57,7.26-1.11,14.35-1.49,21.63-.3,5.85-.44,11.26-.44,16.66v4.79c.1,3.21.24,6.58.45,10,.24,3.13.57,6.31,1,9.71.38,2.77.92,5.81,1.61,9.31a88.67,88.67,0,0,0,2.7,9.63c.48,1.38,1,2.76,1.53,4.12s1.16,2.69,1.78,4.06c.47,1,1.12,2.25,2,3.83a39.48,39.48,0,0,0,2.68,4.29l.33.47.33.45c.45.6.9,1.19,1.38,1.77.69.86,1.44,1.72,2.19,2.58,1.4,1.51,2.92,2.95,4.75,4.66,1.23,1.13,2.43,2.25,3.72,3.34l1.25,1.11,1.47,1.31.39.36.62.56c1.09,1,36.65-7.32,37.7-6.26.73.71,1.4,1.46,2.07,2.21l.22.23c.62.7,1.21,1.42,1.94,2.3l.21.25a14.1,14.1,0,0,1,1,1.51l.13.15.22.31c.68,1,1.27,2,1.82,3s1,1.87,1.62,3c.5,1,1,1.93,1.5,3,.94,2,1.92,4.19,3.18,7.23,1.31,3.25,2.62,7.1,4.11,11.93a136.65,136.65,0,0,1,3.47,14.45c.81,4,1.5,8.32,2.18,13.7.57,4.5,1,9.44,1.38,15,.43,6.34.66,13.52.66,22v5.88c-.11,9.56-.51,18.9-.89,27.69-1.06,24.58-2.71,48.34-4.19,68.33q-.81,11.25-1.67,22.52v.47q-1.54,20.74-3,41.48c-.72,10.69-1.36,21-1.95,31.54-.23,4.2-.42,8.39-.62,12.6H731.41l.11-1.08.19-1.71v-.29c3.23-31.11,6.57-63.28,9.54-95.43,2.7-29.57,4.79-56.33,6.4-81.75,1.74-28.08,2.84-55.65,3.29-81.93.1-7.56.16-14.66.16-21.07,0-23.45-.64-46.56-1.88-68.73-.8-14.42-2-29.15-3.46-43.81s-3.41-29.71-5.71-45c-1-6.32-1.94-12-2.9-17.6-1.09-6.09-2.27-12.35-3.62-19.15-2.47-12.17-5.28-24.48-8.34-36.51l-2-7.87-.52-2-.13-.47-.37-1.36L722,926l-.81-2.79-.64-2.39c-.8-2.92-1.61-5.85-2.42-8.74-1.08-3.92-2.29-7.8-3.58-11.54-.58-1.72-1.28-3.55-2.11-5.62-.65-1.61-1.42-3.35-2.36-5.3-.39-.85-.8-1.63-1.24-2.47-.57-1.08-1.21-2.14-1.85-3.19a31,31,0,0,0-2-3,27.53,27.53,0,0,0-2-2.45l-.18-.21c-.35-.4-.72-.76-1.08-1.17s-.81-.75-1.18-1.15-.82-.7-1.25-1c-.59-.45-1.22-.9-1.9-1.34l-.28-.19-.37-.22a12.14,12.14,0,0,0-1.37-.75,16,16,0,0,0-2.18-.92l-.63-.24q-.76-.24-1.56-.42a17,17,0,0,0-2.13-.4H686.1a16.32,16.32,0,0,0-2.32.11h-.23a5.69,5.69,0,0,0-.92.15c-.63.09-1.31.23-1.94.36s-1.32.33-2,.51a18.43,18.43,0,0,0-1.91.61c-.71.25-1.41.51-2.11.81s-1.46.64-2.19,1-1.51.75-2.24,1.14c-1,.53-2,1.1-3,1.71l-.3.17-.82.57a18,18,0,0,0-1.74,1.39A25.85,25.85,0,0,0,662,881.4l-.33.38-.33.36c-.48.59-1,1.17-1.39,1.72a35.66,35.66,0,0,0-2.56,3.53c-.69,1.09-1.43,2.42-2.27,4.05-.54,1-1,1.93-1.58,3l-.27.54-.23.47-1.56,3.19-1.54,3.19c-.35.75-.72,1.5-1.09,2.2-.69,1.38-1.43,2.75-2.18,4.06-.53.85-1.09,1.79-1.62,2.68l-.13.22c-.4.63-.8,1.23-1.26,1.84s-.87,1.18-1.35,1.73-.81.93-1.23,1.39l-.3.32a19.93,19.93,0,0,1-1.55,1.5c-.55.48-1.09.95-1.67,1.4a.48.48,0,0,1-.66-.06c-.64-.86-1.26-1.77-1.86-2.68a34.62,34.62,0,0,1-2-3.44l-.22-.36c-1.15-2-2.11-4.15-3-6.09-1.16-2.67-2-5.26-2.78-7.51-.95-3-1.62-5.78-2.12-7.92-.75-3-1.3-6.21-1.63-8.26-.45-2.58-.75-5.16-1-7.51-.64-5.16-1.09-11-1.39-17.82-.32-6.65-.43-13.3-.48-18.34,0-1.79,0-3.59-.06-5.39v-2.75c0-3.22-.07-6.45-.11-9.67-.13-6.88-.32-12.33-.57-17.18a154.44,154.44,0,0,0-1.63-15.63l-.35-2.15c-.15-.92-.3-1.82-.44-2.73-.25-1.59-.47-3.17-.68-4.76l-.47-3.45v-.7c-.36-2.63-.72-5.26-1.12-7.87q-.5-3.16-1.06-6.33c-.39-2.1-.81-4.12-1.29-6.21-.43-1.76-1-3.75-1.61-5.81a45.22,45.22,0,0,0-2.34-5.94c-.18-.38-.37-.76-.57-1.13s-.46-.85-.7-1.22a17.72,17.72,0,0,0-1.92-2.57l-.22-.29-.15-.19a10.1,10.1,0,0,0-.87-.86,13.49,13.49,0,0,0-1.41-1.08c-.29-.18-.6-.36-.92-.52a8.5,8.5,0,0,0-.92-.43,9.61,9.61,0,0,0-1.17-.35,8.45,8.45,0,0,0-1-.21c-.4,0-.8-.06-1.21-.07a7.71,7.71,0,0,0-1.18.06c-.37.06-.87.12-1.32.22a14.37,14.37,0,0,0-2,.58l-.7.27c-.51.21-1,.43-1.52.68a29.58,29.58,0,0,0-3.23,1.85c-.56.38-1.1.75-1.61,1.16s-1.21.92-1.8,1.4a27.88,27.88,0,0,0-2.42,2.32l-1.26,1.56c-.33.42-.64.85-1,1.29l-.12.17-.23.4a42.31,42.31,0,0,0-2.7,4.72c-.62,1.3-1.21,2.6-1.76,3.92s-1.09,2.83-1.61,4.3a94.64,94.64,0,0,0-2.79,9.37c-.71,2.79-1.46,6.15-2.27,10.24-.53,2.7-1.11,6.09-1.85,10.69s-1.39,9.84-2.16,16.13c-.47,4-.91,8-1.36,12l-.54,4.46-.09.81-.06.49c-.41,3.66-.87,7.81-1.43,11.75-.23,1.7-.51,3.49-.8,5.25-.15.86-.31,1.72-.48,2.59-.12.57-.23,1.13-.31,1.7-.29,2.12-.51,4.23-.71,6.35l-.14,1.29c-.44,4.44-.9,8.31-1.4,11.83a105.56,105.56,0,0,1-2.13,11.16,46.13,46.13,0,0,1-1.49,4.72c-.25.68-.55,1.33-.86,2a17.85,17.85,0,0,1-1,1.82,11.85,11.85,0,0,1-1,1.33,7.13,7.13,0,0,1-.85.8,6,6,0,0,1-.89.59,3.25,3.25,0,0,1-.54.23c-.74.28-1.49.53-2.27.75l-1,.23c-.35.07-.71.12-1.07.16h-.85a8.65,8.65,0,0,1-1.61-.09A4.73,4.73,0,0,1,540,887a4.31,4.31,0,0,1-1.2-.75l-.43-.38c-.14-.13-.26-.27-.54-.59a6.07,6.07,0,0,1-.65-1c-.08-.18-.18-.37-.26-.57a8.92,8.92,0,0,1-.47-1.25c-.13-.43-.23-.86-.33-1.34s-.22-1-.3-1.5-.18-1-.27-1.43l-.07-.39-.07-.5c-.13-.75-.27-1.58-.43-2.37a21.25,21.25,0,0,0-.59-2.35A14.54,14.54,0,0,0,534,871c-.18-.46-.38-.9-.6-1.34l-.17-.3-.16-.3a11.78,11.78,0,0,0-.8-1.19l-.31-.31-.14-.17a5.51,5.51,0,0,1-.7-.75,13.88,13.88,0,0,1-1-1.29,12.55,12.55,0,0,1-.8-1.37l-.41-.85c-.22-.48-.41-1-.58-1.45a9.83,9.83,0,0,1-.42-1.5c-.12-.49-.23-1-.33-1.5-.06-.32-.1-.62-.15-1V857c-.13-1-.21-2-.27-2.95,0-.39-.07-.8-.09-1.25v-.52l-.06-.95a16.47,16.47,0,0,0-.28-2.52,8.76,8.76,0,0,0-.23-1.11,10.88,10.88,0,0,0-.55-1.54l-.19-.36a6.17,6.17,0,0,0-.58-.86,5,5,0,0,0-.65-.57,5.59,5.59,0,0,0-1-.52l-.34-.11a8.52,8.52,0,0,0-1.31-.29q-.69-.06-1.38-.06a17.76,17.76,0,0,0-1.79.16h-.45l-.46.07c-.76.14-1.5.28-2.25.46-1.14.27-2.32.62-3.42,1l-.57.18A.45.45,0,0,1,511,845a27,27,0,0,1-1.08-4.16,48.94,48.94,0,0,1-.73-5.66c-.22-2.33-.28-4.59-.34-6.71,0-1.41-.05-2.81-.05-4.23V820c.09-7,.44-13.62.77-19.15.45-8.12,1-16.4,1.44-21.91l.5-7.1.1-1.41v-.5l.11-1.78.07-.91c.89-12.64,1.67-24,2.27-35.5.4-8.11.65-15.57.76-22.86V703.8c0-5.59-.13-10.73-.4-15.69s-.74-9.7-1.39-14.14q-.66-4.26-1.73-8.42a40.51,40.51,0,0,0-2.6-7.26c-.38-.75-.81-1.5-1.22-2.25a16.65,16.65,0,0,0-1.67-2.32,13.75,13.75,0,0,0-1-1,11.7,11.7,0,0,0-1.42-1.1l-.8-.5a8.46,8.46,0,0,0-1.14-.54c-.33-.11-.66-.21-1-.3l-.64-.16-.31-.05h-1a9.08,9.08,0,0,0-1.47.28l-.3.06-.36.07a10.93,10.93,0,0,0-1.06.31c-.34.13-.75.31-1.11.48a9.9,9.9,0,0,0-1,.57l-.33.23-.4.29c-.38.27-.73.57-1.09.85-.6.54-1.17,1.11-1.72,1.71s-1.13,1.41-1.65,2.1-1.14,1.62-1.67,2.48a53.09,53.09,0,0,0-3.25,5.8c-.81,1.63-1.62,3.43-2.35,5.25s-1.56,4-2.3,6c-1.45,4-2.93,8.59-4.52,14-1.51,5.07-2.83,10-3.91,14.2-1.33,5.07-2.59,10.05-3.84,15.1l-.88,3.52c-.81,3.3-1.61,6.62-2.5,9.91-1.17,4.61-2.26,8.59-3.4,12.52-1,3.44-2,6.41-3.1,9.28-.47,1.23-.92,2.25-1.38,3.19a24.84,24.84,0,0,1-1.7,2.91.49.49,0,0,1-.7,0l0,0-.63-.75-.16-.18c-.51-.64-1-1.26-1.46-1.92s-1-1.51-1.62-2.38l-.12-.19-.11-.17-.14-.25c-.44-.75-.82-1.5-1.26-2.25l-.19-.36-.14-.29-.12-.19c-.55-1.11-1-2.25-1.49-3.35s-.87-2.26-1.25-3.34-.67-2-1-3l-.11-.33c-.33-1.16-.59-2.33-.85-3.51-.35-1.45-.63-2.94-.91-4.5l-.06-.31c-.38-2.1-.68-4.2-1-6.3-.4-2.91-.72-5.83-1-8.84l-.27-2.47-.27-2.58L438,711c-.34-3-.71-5.93-1.14-8.84-.26-1.72-.55-3.4-.87-5.07-.37-2-.8-4-1.43-6.31a60.94,60.94,0,0,0-1.86-6.08,48.09,48.09,0,0,0-2.61-6.09l-.14.11.09,230c1,1.79-33,12.28-32.59,13.19v.34a7.91,7.91,0,0,1,.39,1.16A.84.84,0,0,1,397.78,923.71Z" transform="translate(-0.3 8.76)"/><path class="cls-4" d="M430.15-8.7l.15,367.56c3.15-8.84,6-18,8.59-27.15,2.65-9.6,5-19.7,7-30s3.65-20.93,5-32.81c1.57-13.39,2.67-27,3.74-40.26v-.31l.69-8.4.23-2.81.26-3,.15-1.8c.1-1,.2-2,.27-3,.18-2.35.21-4.7.25-7.31v-7.81c0-3,0-6,.08-9A99.57,99.57,0,0,1,458,168.62a39.92,39.92,0,0,1,2-6.86,27.34,27.34,0,0,1,1.19-2.58A21.64,21.64,0,0,1,463,156.4a16.32,16.32,0,0,1,2.54-2.78,11.31,11.31,0,0,1,1.16-.87,8.6,8.6,0,0,1,1.38-.63,4.87,4.87,0,0,1,1.13-.2,4.53,4.53,0,0,1,2.18.36,8.79,8.79,0,0,1,.94.43c-.21,5.92-.31,11.08-.31,15.77,0,1.82,0,3.64.05,5.48.07,4.69.27,9.3.58,13.7.33,4.73.85,9.55,1.56,14.37.46,2.87.92,5.44,1.41,7.82.53,2.58,1.15,5.07,1.89,7.74.62,2.25,1.4,4.66,2.37,7.34a65.25,65.25,0,0,0,3.24,7.72c.67,1.38,1.38,2.75,2.15,4a22,22,0,0,0,2.71,4,20.33,20.33,0,0,0,1.45-2.58,88,88,0,0,0,3.95-9.95c1.66-4.77,3.17-9.63,4.44-13.82q1.83-6,3.59-12l1.28-4.35q2.58-8.68,5.25-17.35c2.06-6.58,3.82-12,5.56-17.05,2.09-6,4-11,5.85-15.31a101.54,101.54,0,0,1,5.88-11.93,45.85,45.85,0,0,1,3-4.42,23,23,0,0,1,3-3.31,13.39,13.39,0,0,1,1.85-1.34,9.71,9.71,0,0,1,1.84-.88,7,7,0,0,1,1.88-.26,3.75,3.75,0,0,1,1,.07h.37a4.68,4.68,0,0,1,.73.21,8.06,8.06,0,0,1,1.87,1,7.8,7.8,0,0,1,.81.61,4.67,4.67,0,0,1,.8.86,6.35,6.35,0,0,1,.53.91c.2.41.37.85.53,1.26a23,23,0,0,1,.8,3.59c.2,1.19.32,2.38.43,3.59.14,1.5.2,3,.27,4.5.12,2.93.13,6,.14,8.93v2.08c0,3.71,0,7.55.17,11.54a82.25,82.25,0,0,0,1,10.86c.12.75.26,1.56.41,2.34s.41,1.86.66,2.77a25.41,25.41,0,0,0,1.62,4.34,12.52,12.52,0,0,0,.88,1.5,11.73,11.73,0,0,0,1.42,1.86l.74.75a8.21,8.21,0,0,0,1.1.75,6,6,0,0,0,.56.3,7,7,0,0,0,1.16.49,3.94,3.94,0,0,0,.69.21c.4.1.81.18,1.22.24a12.74,12.74,0,0,0,1.44.07,9.83,9.83,0,0,0,1.08-.09h.31a3.17,3.17,0,0,0,.86-.26,3.5,3.5,0,0,0,.54-.29,7.08,7.08,0,0,0,.59-.5,6.52,6.52,0,0,0,.5-.54,6.22,6.22,0,0,0,.58-.75c.17-.26.37-.53.55-.85a18.15,18.15,0,0,0,1-1.84,61.38,61.38,0,0,0,3.37-9c1-3.21,1.88-6.62,2.66-9.63l.07-.31.15-.57.42-1.6c.67-2.57,1.35-5.25,2.1-7.82.39-1.31.81-2.44,1.16-3.44a14.13,14.13,0,0,1,1-2.12.34.34,0,0,1,.31-.16.53.53,0,0,1,.38.16c.43.63.81,1.27,1.24,1.92s.68,1.15,1.16,2c.67,1.24,1.25,2.47,1.78,3.64.67,1.5,1.24,3,1.76,4.5a58,58,0,0,1,1.61,5.62,89.05,89.05,0,0,1,1.91,9.6c.51,3.42.87,7.09,1.15,12,.17,3.16.25,6.42.25,10.25v1.5c0,3.91-.12,7.82-.39,13.06-.39,8.26-1.13,16.74-1.77,24.24v.2l-.07.66-.34,3.82-.14,1.73-.1,1.06c-.54,6.3-1,11.53-1.32,16.78-.22,3.65-.38,7-.44,10v2.91c0,2.57.06,5.16.13,7.68l.06,2.4.43,18.6V312c.35,16,.67,30.42,1.12,45,.6,19.18,1.31,36.4,2.22,52.62.45,8.43,1,17.24,1.72,26.28q.48,6.24,1,12.43l.25,2.57c.14,1.51.27,3.05.39,4.46l.25,3.43.13,1.64.18,2.51c.27,3.57.56,7.1.89,10.72.87,9.7,1.9,18.46,3.23,26.8,1.22,8,2.6,15,4.21,21.41.87,3.39,1.8,6.57,2.75,9.46a79.75,79.75,0,0,0,3.44,8.67c.34.68.68,1.37,1,2a26.34,26.34,0,0,0,1.37,2.36,31.55,31.55,0,0,0,2.86,3.93,16.61,16.61,0,0,0,1.63,1.62,16.43,16.43,0,0,0,1.61,1.28l.21.14.81.46a9.76,9.76,0,0,0,1.31.62c.38.13.75.26,1.13.37a11.15,11.15,0,0,0,1.61.31c.41,0,.83.06,1.24.06a6.65,6.65,0,0,0,1.26-.06c.42,0,.81-.13,1.26-.21a10.06,10.06,0,0,0,1.19-.34c.24-.1.48-.18.71-.29s.54-.22.82-.37a12.23,12.23,0,0,0,1.43-.85,14.23,14.23,0,0,0,1.44-1.12c.59-.54,1.16-1.12,1.71-1.72a15.54,15.54,0,0,0,1-1.31l.14-.17c.43-.56.8-1.13,1.22-1.72a39.27,39.27,0,0,0,2.51-4.42,91,91,0,0,0,5.87-16.83c.75-2.89,1.45-6,2.23-9.94.57-2.94,1.12-6.08,1.72-9.89,1.14-7.45,2-15,2.8-21.57l.12-1.08c.24-2.15.49-4.29.81-6.43.1-.75.22-1.5.35-2.25.06-.36.12-.7.22-1.2l.21-1.31.21-.57.34-2.35.21-1.39.32-2.25c.33-2.5.7-5,1.08-7.51a151.1,151.1,0,0,1,3.37-16.6,66,66,0,0,1,2.43-7.23,33.09,33.09,0,0,1,3.11-6,23.26,23.26,0,0,1,1.62-1.95,11.29,11.29,0,0,1,2-1.72,9.65,9.65,0,0,1,1.9-1,9.18,9.18,0,0,1,.89-.28,8.4,8.4,0,0,1,1.32-.19,7.93,7.93,0,0,1,2.28.12,12.8,12.8,0,0,1,2.42.75,13.84,13.84,0,0,1,1.49.75,15.55,15.55,0,0,1,1.53,1,21.92,21.92,0,0,1,3,2.43,15,15,0,0,1,1.68,2,8.59,8.59,0,0,1,.81,1.33c.23.47.37.75.56,1.07q.36.77.69,1.5c.21.49.36.91.52,1.38l.1.26a39,39,0,0,1,1.08,4.22c.24,1.14.41,2.31.58,3.44.19,1.43.31,2.87.42,4.29.15,2,.21,4.15.21,6.42,0,1.28,0,2.54-.05,3.8-.08,3.7-.33,7.36-.56,10.15-.27,3.63-.68,7.41-1.11,11.25-.38,3.45-.81,6.81-1.26,10.41L681.3,489c-.59,4.66-1.2,9.49-1.7,14.26-.44,4.21-.65,7.35-.71,10.15v1a29.18,29.18,0,0,0,.1,3l.1,1,.07.6c.08.75.16,1.58.25,2.37.23,1.88.5,3.79.81,5.55.35,2.15.74,4.3,1.18,6.43s1,4.38,1.72,6.94c.54,2,1.21,4.06,2,6.26a50.28,50.28,0,0,0,2.36,5.5c.34.67.7,1.35,1.07,2,.47.87,1,1.77,1.56,2.63a34.45,34.45,0,0,0,3,4c.26.29.53.58.81.85s.61.62.94.92a23.57,23.57,0,0,0,2.34,1.89c.32.22.68.44,1,.65a10,10,0,0,0,1,.57,12.22,12.22,0,0,0,2,.87l.53.18c.36.11.73.22,1.11.31a16,16,0,0,0,1.93.36h.27c.39,0,.81.06,1.18.07a14.3,14.3,0,0,0,2.36-.11,7.42,7.42,0,0,0,1.23-.17c.41-.08.8-.18,1.25-.29a15.76,15.76,0,0,0,2.42-.75c.46-.16.9-.33,1.34-.52a22.2,22.2,0,0,0,2-1,37,37,0,0,0,3.5-2c.44-.28.89-.6,1.32-.91l1.44-1c1-.75,2-1.61,2.92-2.44s2-1.87,3-2.82c1.16-1.15,2.31-2.39,3.52-3.76l.33-.36c.8-.86,1.53-1.76,2.29-2.68l2.41-3.05a49.26,49.26,0,0,0,3.15-3.93l.23-.31,1.22-1.72c2.84-3.75,5.88-7.72,9.29-12,5.66-7,11.71-14.08,18-21,6-6.57,12.64-13.37,19.74-20.22,6.45-6.26,13.3-12.4,20.79-18.78q10.73-9,21.9-17.47V-8.7Z" transform="translate(-0.3 8.76)"/><path class="cls-5" d="M400.5,1081.7c-.38-.4-1.17,1-2.08,2.86C398.9,1083.62,401.08,1082.26,400.5,1081.7Z" transform="translate(-0.3 8.76)"/><path class="cls-5" d="M401.91,1096.53c.55-1,.88-1.76.68-2l3.14-7.67c-.2-.28-4.54,3.53-8.61,7.1l-.78,2.25A41.55,41.55,0,0,1,401.91,1096.53Z" transform="translate(-0.3 8.76)"/><path class="cls-5" d="M397.11,1093.88l3.39-9.64-4.57,5.58c.69-1.36,1.48-3.15,2.22-4.71l-9.16-.84c.63.68-6,4.13-5.23,5.08l1.11,1.74c3,2.59,5.81,5.17,6.87,7.36C393.05,1097.4,395.05,1095.68,397.11,1093.88Z" transform="translate(-0.3 8.76)"/><path class="cls-5" d="M347.79,1379.93c-.81,12,11,52.85,10.46,62.14-.22,4.11,74,7.65,110.73,11.5h.19L826.63,1442a1.4,1.4,0,0,0,.91-2.43l-24.12-22.52c-3.29-3.15-8.36-8.33-10.14-11.26-.06-.1-.36-1.18-.25-.66l-1.42-4.52c-.75-3.94-19.45-51.33-22.61-57a1.39,1.39,0,0,1-.1-.26c-6.47-22.82-26.48-45-24.93-70,1.73-28.2,2.84-55.78,3.3-82,.1-7.4.16-14.49.16-21,0-23.46-.63-46.56-1.89-68.73-.81-14.27-2-29-3.46-43.81-1.46-14.31-3.38-29.42-5.72-45v-.22c-.5-3.18-1-6.42-1.6-9.52a1.4,1.4,0,0,0-2.49-.59c-3.32,4.28-6.73,8.42-10.14,12.28a184,184,0,0,1-13.4,13.82A132,132,0,0,1,695,1039.75c-2.13,1.5-4.44,3-7.09,4.62-2.28,1.34-4.72,2.63-7.44,3.94a69.18,69.18,0,0,1-7,2.91,49.3,49.3,0,0,1-6.52,1.83,40.23,40.23,0,0,1-5.79.75,29.45,29.45,0,0,1-5.39-.23,26.42,26.42,0,0,1-4.46-1,24.82,24.82,0,0,1-8.18-4.61,28.34,28.34,0,0,1-3.49-3.44,34.24,34.24,0,0,1-2.81-3.75,54.21,54.21,0,0,1-2.87-4.88,77.4,77.4,0,0,1-4.43-10.89c-.93-2.91-1.78-6-2.59-9.44-.73-3-1.41-6.29-2.13-10.37-1.37-7.61-2.33-15.21-3.13-21.82L621,978v-.56c-.57-4.85-1.13-9.59-1.78-14.27-.48-3.29-.92-6-1.4-8.42a74.24,74.24,0,0,0-1.79-7.35c-.18-.56-.37-1.12-.57-1.71l-.31-.86c-.42-1-.86-2.08-1.31-3.12l-.09-.19c-.87-2-1.79-3.93-2.82-5.9a41.93,41.93,0,0,0-2.51-4.3c-.42-.62-.87-1.22-1.34-1.82a13.34,13.34,0,0,0-1.5-1.6l-.6-.52a8.36,8.36,0,0,0-.88-.5l-.2-.09a4.56,4.56,0,0,0-.71-.24h-.63l-.42.06-.24.09a3,3,0,0,0-.42.16,7.66,7.66,0,0,0-.66.45l-.58.56a5.78,5.78,0,0,0-.55.75,20.82,20.82,0,0,0-2.5,5.52,89.15,89.15,0,0,0-3,13.42c-.85,5.37-1.46,10.86-2.06,16.46-.29,2.7-.53,5.43-.73,8.11-.2,2.9-.34,5.81-.45,8.73-.15,3.91-.25,7.81-.34,11.71l0,1.44-.16,6.21c-.19,7.61-.47,13.51-.88,19.16a180.37,180.37,0,0,1-2.41,19.66c-.55,2.91-1.21,5.93-2,9-.75,2.84-1.68,5.75-2.76,8.66a68.14,68.14,0,0,1-3.59,8,63.09,63.09,0,0,1-4.62,7.43.49.49,0,0,1-.3.14.53.53,0,0,1-.44-.16,39.61,39.61,0,0,1-3.57-4.58c-.56-.86-1.08-1.71-1.62-2.58s-1.19-2.17-1.75-3.25c-1.12-2.25-2-4.56-2.85-6.56a69.5,69.5,0,0,1-2.42-7.31,156.34,156.34,0,0,1-3.74-15.84c-1-5.35-1.91-10.81-2.82-17.73-.69-5.07-1.3-10.14-1.88-15.13l-.07-.54-.08-.69-.08-.75-.1-.8v-.2c-.6-5.16-1.23-10.51-1.93-15.73-.75-5.47-1.49-10-2.33-14.19-.6-2.84-1.32-5.67-1.95-8.07-1-3.75-1.91-7.1-2.92-10.31s-2-5.93-3-8.42a34.59,34.59,0,0,0-3-5.91,16.82,16.82,0,0,0-1.06-1.45,8.8,8.8,0,0,0-1-1.11h0l-.53-.43a4,4,0,0,0-.43-.28l-.52-.25a3.58,3.58,0,0,0-2.28-.22h0a3.85,3.85,0,0,0-1,.36,9.83,9.83,0,0,0-1.92,1.27,26.77,26.77,0,0,0-3.3,3.59c-1.08,1.36-2.24,3-3.55,4.93l-3,4.5-1.25,1.91c-1.84,2.74-3.38,5-4.84,7.1-1.77,2.43-3.6,4.76-5.47,6.93a66.22,66.22,0,0,1-6.64,6.76.48.48,0,0,1-.29.15.52.52,0,0,1-.43-.14,64.3,64.3,0,0,1-4.22-5.65c-.69-1-1.38-2.12-2-3.19s-1.35-2.41-2.15-4a73.73,73.73,0,0,1-3-6.81c-.81-2.26-1.61-4.58-2.35-7.24a101.18,101.18,0,0,1-3-15.53,142.64,142.64,0,0,1-1-16.52v-2.65c0-4.14.11-8.5.35-13.74.27-6.26.7-12.55,1-17.33l.14-2v-.56c.71-10.42,1.44-21.17,1.47-31.78,0-2.85-.08-6-.21-9.46-.17-3-.42-6.19-.75-9.3s-.81-5.94-1.4-9a86.84,86.84,0,0,0-2.37-9.27c-.3-.95-.62-1.88-.95-2.81-.4-1.16-.85-2.3-1.32-3.44s-1-2.37-1.61-3.51a1.38,1.38,0,0,0-2.33-.19h0c-.58.75-1.11,1.46-1.71,2.3-.43.63-.85,1.28-1.26,1.93s-.8,1.36-1.18,2q-1.31,2.35-2.39,4.83a90,90,0,0,0-3.49,9.46c-.81,2.68-1.62,5.6-2.64,9.44l-.76,3-.28,1.11-.08.29c-.39,1.5-.81,3-1.21,4.62a63,63,0,0,1-2.06,6.46,20.67,20.67,0,0,1-1.29,2.63,8.22,8.22,0,0,1-1.37,1.73,4,4,0,0,1-2.95,1.19,4.93,4.93,0,0,1-.87-.11,6.26,6.26,0,0,1-1.13-.38,10.43,10.43,0,0,1-2.27-1.51,23,23,0,0,1-2.64-2.58,51.48,51.48,0,0,1-3.35-4.15c-1.37-1.88-2.65-3.8-3.5-5.07-1.08-1.64-2.19-3.44-3.52-5.55l-.68-1-.14.15-.36.4a21.14,21.14,0,0,0-1.41,1.72,34,34,0,0,0-2.14,2.91c-.64,1-1.27,2-1.86,3-.33.58-.65,1.18-1,1.78a1.49,1.49,0,0,0-.16.66l.08,75.49c.8,1.46-33.07,12.09-32.61,13.18l.05.36a8.3,8.3,0,0,1,.37,1.13,1.22,1.22,0,0,1-.13.45l.28.62.39,1a.52.52,0,0,1-.1.27l-.27.07-.29.19.1.18.08.26a3.19,3.19,0,0,1-.13.44c1.29,2.21,2.55,4.44,3.77,6.67,1.4,2.57,2.9,5.65,4.48,9,1.36,3,2.66,6.37,4,10.14.89,2.71,1.7,5.6,2.49,8.83a93.11,93.11,0,0,1,2.13,11.5c.49,3.58.8,7.3,1,11.72.12,2.11.17,4.5.17,7.88v1c0,7-.46,13.9-.8,19.1s-.82,10.39-1.19,15.58l-.43,5.25c-.53,7-1.07,14.42-1.46,21.62-.3,5.86-.44,11.27-.44,16.65v4.8c.12,4.18.27,7.47.44,10,.27,3.44.59,6.58,1,9.72l.18,1.25-.17-.33c.25.22-2.87-.1-6.06-.41a1.39,1.39,0,0,0-1.33.66c-1.37,2.27-3.41,5.12-3.06,5.73.55.93-6.84-5.36-6.28-4.26.3.56,2.85,5,4.28,7.61a1.39,1.39,0,0,1-1,2.06l-11.14,1.74a1.41,1.41,0,0,0-.79.41c-3.81,3.89-7.35,7.85-7,10.35.57,4.36-25.45,18-25.06,23.82.44,6.34-13.59,23.89-13.59,32.34,0,2-9.39,16.76-9.41,18.72-.11,9.55-10,14.2-10.46,23-1,24.54,10.89,31.9,9.42,51.92-.55,7.5,11,15.45,10.49,23l-1,39.18a1.39,1.39,0,0,1-.66,1.15l-34.22,21.32a1.42,1.42,0,0,0-.66,1.32C302.88,1370.6,348.7,1366.45,347.79,1379.93Z" transform="translate(-0.3 8.76)"/><path class="cls-5" d="M392.11,1099.62a4.54,4.54,0,0,0-.4-1.14c-1,.75-1.6,1.21-1.68,1.11l-5.16-8.47c-4.6-3.91-9.78-7.81-10.49-10.22-1.47-4.77-.76,16.13-2.1,12.77-1.25-3.05-112.76-89.41,3.15,17.88l8.39-1.32C388.07,1105.89,392.53,1101.64,392.11,1099.62Z" transform="translate(-0.3 8.76)"/><path class="cls-5" d="M430.12-8.7,430.34,251c.21-3.56.4-7.1.59-10.71.42-8.59.7-16.91,1-26.85L432,212c.24-7.67.59-18.16,1.12-28.09.12-2.23.25-4.45.38-6.7l.25-3.68.14-1.93c.19-2.75.27-5.52.36-8.26.08-3,.12-6,.17-8.94v-4.06l.08-5.35c.18-13,.54-26.76,2.52-40.42A107,107,0,0,1,442.21,83a62.94,62.94,0,0,1,4.41-9.45c.7-1.2,1.56-2.51,2.62-4a38.35,38.35,0,0,1,3.33-4,.51.51,0,0,1,.74,0c.35.39.68.8,1,1.18.46.58.87,1.17,1.28,1.73.81,1.16,1.52,2.38,2.17,3.54s1.31,2.51,1.92,3.79q1.06,2.25,2.07,4.61l1.3,3c.8,1.9,1.61,3.76,2.42,5.68a63.17,63.17,0,0,0,4.23,8.12c.5.71,1,1.42,1.53,2.1a20.48,20.48,0,0,0,1.95,2.11,9.44,9.44,0,0,0,1,.75,10.55,10.55,0,0,0,1.41.85c.24.13.5.25.76.36a8,8,0,0,0,1.08.35,6.58,6.58,0,0,0,.86.18,11.2,11.2,0,0,0,1.3.1,3.66,3.66,0,0,0,.81,0,6.61,6.61,0,0,0,1.25-.18l.25-.06.34-.09a9.1,9.1,0,0,0,1-.32,15.36,15.36,0,0,0,2.32-1c.3-.15.6-.33.88-.5s.81-.46,1.21-.75a7.24,7.24,0,0,0,2.15-1.82,9.63,9.63,0,0,0,.81-1.12,25.54,25.54,0,0,0,2.89-6.49,113.5,113.5,0,0,0,2.8-12.07l.5-2.66c.57-3,1.36-7.31,2.28-11.15a60.21,60.21,0,0,1,3.79-11.59,28.23,28.23,0,0,1,2.64-4.55A17,17,0,0,1,509.2,46a10.75,10.75,0,0,1,1.88-1.1,10.3,10.3,0,0,1,1.14-.49c.4-.15.8-.28,1.21-.39a14.55,14.55,0,0,1,4.85-.39,19.53,19.53,0,0,1,3.13.46,9.62,9.62,0,0,1,2,.65,10.21,10.21,0,0,1,1.79,1,5.78,5.78,0,0,1,.71.6,11.9,11.9,0,0,1,1.28,1.28,13.45,13.45,0,0,1,1.37,1.79,24.6,24.6,0,0,1,1.36,2.26c.41.81.8,1.78,1.2,2.68.47,1.11.86,2.25,1.25,3.44.64,1.93,1.21,3.89,1.77,5.87l.27,1,.08.29.1.36c.51,1.77,1,3.52,1.57,5.34.71,2.25,1.31,3.93,1.92,5.42a29.53,29.53,0,0,0,2.69,5.21c.32.45.66.91,1,1.36a15.2,15.2,0,0,0,1.45,1.55l.95.75a11.58,11.58,0,0,0,1.44.85c.36.17.71.31,1.09.47a8.67,8.67,0,0,0,1.23.36,10.54,10.54,0,0,0,1.25.22,10.39,10.39,0,0,0,1.37.08,17,17,0,0,0,3-.34c.28-.07.55-.14.81-.23s.64-.26,1-.41l1-.58a9.49,9.49,0,0,0,1.12-.86,14.77,14.77,0,0,0,1.34-1.4,16.65,16.65,0,0,0,1.42-1.89,41.93,41.93,0,0,0,4.7-10.44,114.35,114.35,0,0,0,3.24-13.13c.8-4.43,1.52-9.23,2.22-15.11.52-4.44,1-9.35,1.49-15.92.34-4.63.62-9.28.94-15.55.24-4.66.42-9.3.6-14l.11-2.8c0-1,.1-2,.14-3.11Z" transform="translate(-0.3 8.76)"/><path class="cls-5" d="M610.22-8.7c.26,2.51.5,5.12.73,7.86.53,6.27.91,13.18,1.17,21.3.21,6.13.32,13,.34,21.59v1.14c0,11.26-.22,23.2-.39,32.77v1.81L612,83.56c-.1,6.58-.22,14.19-.22,21.84,0,6,.09,11.53.27,17,.09,2.57.22,5.22.4,7.9q.44,6.56.81,13.13c.23,3.59.43,7.17.63,10.76l.2,3.56.06,1.07.11,1.84c.63,10.94,1.42,24.55,2.43,37.22.71,9.13,1.54,17.88,2.54,26.68,1.08,9.13,2.36,18,3.82,26.47,1.55,8.78,3.43,17.57,5.61,26.14,1,3.84,2.15,8.05,3.6,12.89l.43,1.45.14.46c1,3.19,1.93,6.38,2.9,9.5.61,2,1.45,4.6,2.43,7.21.3.86.64,1.65,1,2.47a13.73,13.73,0,0,0,1,2,5.66,5.66,0,0,0,.67.86,5.29,5.29,0,0,0,.5.32l.32.08a1.91,1.91,0,0,0,.33-.06,1.2,1.2,0,0,0,.31-.13,4.31,4.31,0,0,0,.63-.42,18.6,18.6,0,0,0,2.18-2.58c.7-.95,1.37-1.93,2-2.92l.25-.35,1-1.39c1.35-1.94,2.72-3.82,4-5.61,1.81-2.37,3.8-4.76,5.92-7.1,1.15-1.3,2.37-2.57,3.86-4.06,1.2-1.2,2.38-2.3,3.5-3.23.6-.51,1.22-1,1.83-1.5a15.76,15.76,0,0,1,1.72-1.22,19.35,19.35,0,0,1,3.16-1.72,8.67,8.67,0,0,1,3.21-.68H676a5.72,5.72,0,0,1,2.25.65l.29.19.58.43a9.35,9.35,0,0,1,.88.9,5.78,5.78,0,0,1,.55.75c.23.37.46.75.65,1.12a18.05,18.05,0,0,1,1.14,2.78,30.11,30.11,0,0,1,.81,2.92c.35,1.51.64,3.05.85,4.57.47,2.93.81,6,1.1,9.33.16,1.72.31,3.34.45,5.07l.13,1.35.11,1.37.34,3.89.21,2.25.2,2.22c.06.75.1,1.5.14,2.21.09,1.93.12,3.88.13,5.8v1.87c0,3,0,6-.08,9.07v2.61c0,3.44-.07,6.94-.07,10.4,0,9.87.25,17.55.81,24.91.33,4.3.8,8.21,1.41,12a83.36,83.36,0,0,0,2.55,11.26c.28.85.59,1.78.9,2.67s.81,2,1.22,3a29.29,29.29,0,0,0,2.6,4.72c.5.76,1.06,1.51,1.66,2.26a22.63,22.63,0,0,0,1.89,1.78c.53.45,1.07.86,1.61,1.26a17.69,17.69,0,0,0,2.11,1.21c.87.4,1.73.8,2.62,1.17a24.63,24.63,0,0,0,2.92.9c.68.15,1.36.28,2.06.37a14.82,14.82,0,0,0,2.1.14,8.41,8.41,0,0,0,1.66-.09,11.09,11.09,0,0,0,1.9-.32,19.39,19.39,0,0,0,1.92-.56,17.8,17.8,0,0,0,1.85-.8c.67-.35,1.34-.74,2-1.15a19.82,19.82,0,0,0,2.15-1.62,33.22,33.22,0,0,0,3-3,38.82,38.82,0,0,0,3-4,67.28,67.28,0,0,0,5.51-10.2,115.14,115.14,0,0,0,4.65-12.51A229.27,229.27,0,0,0,747,361c1.62-8.3,3-17.37,4.24-27.73,1-8.71,1.9-17.48,2.63-26.85.56-7.27,1-15,1.43-23q.39-8,.64-16c0-1.47.09-2.92.16-4.46l.17-4.39.07-1.56.19-3.93q.3-7.65.61-15.29c1.39-36.08,2.51-73.45,3.49-106.42l.1-1.61v-2.13l.24-7.45c1.1-37.53,2.34-77.52,4-117.7.15-3.76.32-7.51.48-11.16Z" transform="translate(-0.3 8.76)"/></g></g></g></g></svg>